<svg xmlns="http://www.w3.org/2000/svg" version="1.1" xmlns:xlink="http://www.w3.org/1999/xlink" xmlns:svgjs="http://svgjs.com/svgjs" width="1920" height="1080" preserveAspectRatio="none" viewBox="0 0 1920 1080"><g mask="url(&quot;#SvgjsMask1023&quot;)" fill="none"><rect width="1920" height="1080" x="0" y="0" fill="#0e2a47"></rect><path d="M216.3267041673686 251.75439180851276L165.0930284746177-115.33021761417888-93.66487678070524 79.65784988708475z" fill="rgba(28, 83, 142, 0.4)" class="triangle-float1"></path><path d="M353.8845726811989 173.884572681199L191.88457268119893-106.70765814495914 73.29234185504077 335.88457268119896z" fill="rgba(28, 83, 142, 0.4)" class="triangle-float1"></path><path d="M50.736810253820224 356.03412487013355L325.50439340850227 184.34028325857514 153.81055179694386-90.42729989610689-120.95703135773819 81.26654171545152z" fill="rgba(28, 83, 142, 0.4)" class="triangle-float3"></path><path d="M1608.44 -48.45 a47.11 47.11 0 1 0 94.22 0 a47.11 47.11 0 1 0 -94.22 0z" fill="rgba(28, 83, 142, 0.4)" class="triangle-float2"></path><path d="M1858.2481427765813-80.26871564260739L1644.350239928402-50.2073258352332 1796.3912760635528 255.6088335333485z" fill="rgba(28, 83, 142, 0.4)" class="triangle-float2"></path><path d="M1786.9488418271883-70.24825237348264L1653.7926741647668 275.649760071598 1974.6395284370356 230.55767536053668z" fill="rgba(28, 83, 142, 0.4)" class="triangle-float2"></path><path d="M-121.33 841.34 a98.67 98.67 0 1 0 197.34 0 a98.67 98.67 0 1 0 -197.34 0z" fill="rgba(28, 83, 142, 0.4)" class="triangle-float3"></path><path d="M68.408,1054.378C112.351,1053.856,155.891,1033.589,175.809,994.416C194.331,957.988,178.721,915.822,156.193,881.726C136.31,851.632,104.476,832.156,68.408,831.862C31.805,831.564,-1.354,849.974,-21.887,880.276C-45.682,915.392,-63.038,959.367,-43.508,997.023C-22.823,1036.907,23.482,1054.912,68.408,1054.378" fill="rgba(28, 83, 142, 0.4)" class="triangle-float3"></path><path d="M199.22558662202425 1209.6507781293121L331.0082589785834 913.6620498531094 35.01953070238062 781.8793774965502-96.76314165417853 1077.868105772753z" fill="rgba(28, 83, 142, 0.4)" class="triangle-float3"></path><path d="M1798.968,1092.497C1846.478,1090.545,1887.721,1065.023,1913.85,1025.295C1943.388,980.384,1967.647,923.651,1940.552,877.225C1913.585,831.019,1852.468,828.47,1798.968,828.454C1745.429,828.438,1686.101,832.047,1657.24,877.141C1626.698,924.862,1635.335,988.131,1666.482,1035.459C1694.812,1078.506,1747.478,1094.613,1798.968,1092.497" fill="rgba(28, 83, 142, 0.4)" class="triangle-float3"></path><path d="M1572.85 851.15 a118.3 118.3 0 1 0 236.6 0 a118.3 118.3 0 1 0 -236.6 0z" fill="rgba(28, 83, 142, 0.4)" class="triangle-float1"></path><path d="M1865.093,1238.873C1938.669,1237.926,1997.955,1186.754,2035.811,1123.657C2075.033,1058.283,2102.115,976.206,2061.329,911.797C2022.232,850.056,1938.139,851.853,1865.093,854.064C1797.355,856.114,1725.392,866.296,1688.408,923.084C1648.424,984.479,1650.816,1064.213,1686.59,1128.152C1723.232,1193.643,1790.054,1239.839,1865.093,1238.873" fill="rgba(28, 83, 142, 0.4)" class="triangle-float3"></path></g><defs><mask id="SvgjsMask1023"><rect width="1920" height="1080" fill="#ffffff"></rect></mask><style>
            @keyframes float1 {
                0%{transform: translate(0, 0)}
                50%{transform: translate(-10px, 0)}
                100%{transform: translate(0, 0)}
            }

            .triangle-float1 {
                animation: float1 5s infinite;
            }

            @keyframes float2 {
                0%{transform: translate(0, 0)}
                50%{transform: translate(-5px, -5px)}
                100%{transform: translate(0, 0)}
            }

            .triangle-float2 {
                animation: float2 4s infinite;
            }

            @keyframes float3 {
                0%{transform: translate(0, 0)}
                50%{transform: translate(0, -10px)}
                100%{transform: translate(0, 0)}
            }

            .triangle-float3 {
                animation: float3 6s infinite;
            }
        </style></defs></svg>