<?xml version="1.0" encoding="utf-8"?>
<!-- Generator: Adobe Illustrator 24.0.1, SVG Export Plug-In . SVG Version: 6.00 Build 0)  -->
<svg version="1.1" id="Layer_1" xmlns="http://www.w3.org/2000/svg" xmlns:xlink="http://www.w3.org/1999/xlink" x="0px" y="0px"
	 viewBox="0 0 450 250" style="enable-background:new 0 0 450 250;" xml:space="preserve">
<g id="Car">
	<g>
		<g>
			<path style="fill:#407BFF;" d="M243.89,202.09c0,0,28.53-91.6,103.7-153.54C347.59,48.55,322.45,127.94,243.89,202.09z"/>
			<path style="opacity:0.6;fill:#FFFFFF;enable-background:new    ;" d="M347.57,48.56c0,0.01,0,0.01,0,0.02
				c-0.55,1.71-25.99,80.17-103.68,153.51C243.89,202.09,272.42,110.5,347.57,48.56z"/>
			<path style="opacity:0.2;enable-background:new    ;" d="M347.57,48.58c-0.55,1.71-25.99,80.17-103.68,153.51
				C292.05,156.06,346.58,50.5,347.57,48.58z"/>
			<path style="fill:#407BFF;" d="M329.91,69.7c0,0-6.81-8.93-8.81-17.31c0,0-6.62,15.23-2.77,28.52
				C318.33,80.91,326.18,78.54,329.91,69.7z"/>
			<path style="opacity:0.4;fill:#FFFFFF;enable-background:new    ;" d="M329.91,69.7c0,0-6.81-8.93-8.81-17.31
				c0,0-6.62,15.23-2.77,28.52C318.33,80.91,326.18,78.54,329.91,69.7z"/>
		</g>
		<g>
			
				<rect x="259.97" y="102.98" transform="matrix(0.2046 -0.9788 0.9788 0.2046 114.1108 354.6375)" style="fill:none;stroke:#263238;stroke-width:2.9999;stroke-miterlimit:9.9996;" width="30.6" height="8.24"/>
			<g>
				<path style="fill:#263238;" d="M258.21,176.96c-0.22-0.05-1.06-0.22-1.28-0.27c-1.44-0.3-2.84,0.58-3.15,2.02
					c-0.3,1.44,0.63,2.81,2.07,3.11c0.22,0.05,1.06,0.22,1.28,0.27c1.44,0.3,2.84-0.58,3.15-2.02
					C260.59,178.62,259.65,177.26,258.21,176.96z"/>
				<path style="opacity:0.1;fill:#FFFFFF;enable-background:new    ;" d="M260.3,180.02c-0.3,1.44-1.71,2.37-3.16,2.06
					c-1.45-0.31-2.37-1.71-2.06-3.16s1.71-2.37,3.16-2.06C259.67,177.16,260.6,178.58,260.3,180.02z"/>
			</g>
			<g>
				<path style="fill:#263238;" d="M265.26,178.43c-0.22-0.05-1.06-0.22-1.28-0.27c-1.44-0.3-2.84,0.58-3.15,2.02
					c-0.3,1.44,0.63,2.81,2.07,3.11c0.22,0.05,1.06,0.22,1.28,0.27c1.44,0.3,2.84-0.58,3.15-2.02
					C267.64,180.1,266.7,178.73,265.26,178.43z"/>
				<path style="opacity:0.2;fill:#FFFFFF;enable-background:new    ;" d="M267.34,181.49c-0.3,1.44-1.71,2.37-3.16,2.06
					c-1.44-0.3-2.37-1.71-2.06-3.16c0.3-1.44,1.71-2.37,3.16-2.06C266.72,178.64,267.65,180.05,267.34,181.49z"/>
			</g>
			<path style="fill:#407BFF;" d="M300.02,129.42l-9.48,45.33c-0.94,4.51-5.45,7.82-9.96,6.88l-22.59-4.72l12.99-62.15l22.59,4.72
				c3.13,0.65,5.48,3.03,6.31,5.9C300.25,126.64,300.31,128.04,300.02,129.42z"/>
			<path style="fill:#263238;" d="M265.28,179.33l-8.18-1.71c-1.46-0.3-2.39-1.73-2.09-3.19l12.31-58.9
				c0.3-1.46,1.73-2.39,3.19-2.09l8.18,1.71c1.46,0.3,2.39,1.73,2.09,3.19l-12.31,58.9C268.17,178.7,266.74,179.64,265.28,179.33z"
				/>
			<path style="opacity:0.2;fill:#FFFFFF;enable-background:new    ;" d="M260.3,178.29l-3.2-0.67c-1.46-0.3-2.39-1.73-2.09-3.19
				l12.31-58.9c0.3-1.46,1.73-2.39,3.19-2.09l3.2,0.67c1.46,0.3,2.39,1.73,2.09,3.19l-12.31,58.9
				C263.19,177.66,261.76,178.6,260.3,178.29z"/>
			<path style="opacity:0.2;enable-background:new    ;" d="M300.02,129.42l-9.48,45.33c-0.94,4.51-5.45,7.82-9.96,6.88l-9.07-1.9
				c-0.21-0.71-0.32-1.94-0.16-2.71l10.58-50.61c0.52-2.51,3.14-4.03,5.65-3.5l12.29,2.57C300.2,126.88,300.31,128.04,300.02,129.42
				z"/>
			<path style="opacity:0.2;enable-background:new    ;" d="M259.71,176.47l-2.12-0.44c-1.01-0.21-1.66-1.2-1.45-2.21l11.95-57.19
				c0.21-1.01,1.2-1.66,2.21-1.45l2.12,0.44c1.01,0.21,1.66,1.2,1.45,2.21l-11.95,57.19C261.71,176.03,260.72,176.68,259.71,176.47z
				"/>
			<path style="fill:#263238;" d="M281.9,94.12l-7.61-1.59c-0.93-0.19-1.52-1.1-1.33-2.03l0,0c0.19-0.93,1.1-1.52,2.03-1.33
				l7.61,1.59c0.93,0.19,1.52,1.1,1.33,2.03l0,0C283.74,93.72,282.83,94.31,281.9,94.12z"/>
			<path style="opacity:0.2;fill:#FFFFFF;enable-background:new    ;" d="M281.9,94.12l-7.61-1.59c-0.93-0.19-1.52-1.1-1.33-2.03
				l0,0c0.19-0.93,1.1-1.52,2.03-1.33l7.61,1.59c0.93,0.19,1.52,1.1,1.33,2.03l0,0C283.74,93.72,282.83,94.31,281.9,94.12z"/>
			<path style="opacity:0.2;enable-background:new    ;" d="M281.94,94.13L281.94,94.13c-0.91-0.19-1.49-1.08-1.3-1.98l0.02-0.09
				c0.19-0.91,1.08-1.49,1.98-1.3l0,0c0.91,0.19,1.49,1.08,1.3,1.98l-0.02,0.08C283.74,93.73,282.85,94.31,281.94,94.13z"/>
		</g>
		<g>
			<path style="fill:#E4897B;" d="M201.02,87.76c0,0-2.29,3-4.99,6.06c-2.85,3.25-6.16,6.56-7.69,6.44
				c-2.96-0.24-12.58-3.77-12.58-3.77l-4.33,1.63c0,0-4.05-3.19-4.07-4.32c0-1.12,5.95-2.4,7.14-2.4s2.77,1.79,2.77,1.79
				s9.66,1.96,10.58,1.74c5.03-1.21,9.9-15.01,12.66-15.01l0.21,3.18L201.02,87.76z"/>
			<path style="opacity:0.2;enable-background:new    ;" d="M201.02,87.76c0,0-2.29,3-4.99,6.06c-0.56-4.42,3.98-9.9,4.69-10.72
				L201.02,87.76z"/>
			<path style="fill:#263238;" d="M206.58,64.68c0,0-2-5.21,4.52-7.39s8.73-2.04,10.54,1c1.81,3.05,0.82,5.36,4.68,5.15
				c3.86-0.22,7.17-2.09,9.76,0.23c2.6,2.32,2.01,5.52,5.07,2.49c3.07-3.04,3.36-2.71,5.34-1.39c0,0-1.88,0.97-1.78,2.09
				s2.77,0.83,1.78,2.56c-0.99,1.72-3.78,5.09-7.77,3.21c-4-1.88-5.38-0.3-5.38-0.3s2.97-0.43,4.8,1.63
				c1.63,1.85,2.72,1.41,5.39,0.78c0,0-1.95,4.38-6.67,2.71c-4.72-1.66-5.33-1.27-10.36-0.08s-13.02,0.59-17.07-3.16
				C205.39,70.43,206.58,64.68,206.58,64.68z"/>
			<polygon style="fill:#E4897B;" points="230.66,204.99 232.95,201.99 229.07,198.24 225.54,194.84 222.22,197.94 226.68,201.67 
							"/>
			<path style="fill:#263238;" d="M233.09,201.07c-0.34-0.24-3.18,4.02-3.18,4.02s0.63,4.44-0.65,7.31
				c-1.28,2.86,1.21,2.62,3.28-0.09s3.65-4.78,5.13-6.71C239.14,203.66,236.58,203.61,233.09,201.07z"/>
			<g>
				<path style="fill:#407BFF;" d="M228.85,208.31c-0.12,0-0.27-0.05-0.42-0.24c-0.09-0.12-0.13-0.26-0.11-0.43
					c0.04-0.31,0.3-0.67,0.6-0.99c-0.43,0.2-0.86,0.32-1.09,0.17c-0.15-0.1-0.19-0.28-0.14-0.53c0.05-0.24,0.18-0.42,0.39-0.54
					c0.65-0.38,1.85,0,1.91,0.02c0.02,0.01,0.03,0.01,0.05,0.03l0,0l0,0l0,0l0,0l0,0c0.01,0.01,0.02,0.02,0.03,0.03l0,0l0,0
					c0.01,0.01,0.01,0.03,0.02,0.04l0,0l0,0c0,0.02,0,0.04,0,0.05c-0.08,0.37-0.5,2.21-1.14,2.36
					C228.92,208.31,228.88,208.31,228.85,208.31z M229.73,206.26c-0.45,0.38-1.09,1-1.14,1.42c-0.01,0.09,0.01,0.16,0.05,0.22
					c0.13,0.16,0.21,0.14,0.24,0.14C229.18,207.97,229.53,207.05,229.73,206.26z M228.84,205.87c-0.23,0-0.45,0.03-0.62,0.13
					c-0.14,0.08-0.22,0.2-0.26,0.36c-0.02,0.08-0.03,0.21,0.02,0.25c0.19,0.13,0.95-0.21,1.64-0.64
					C229.42,205.92,229.12,205.87,228.84,205.87z"/>
			</g>
			<polygon style="opacity:0.2;enable-background:new    ;" points="226.68,201.67 229.07,198.24 225.54,194.84 222.22,197.94 			
				"/>
			<polygon style="fill:#E4897B;" points="207.71,209.73 211.49,209.73 212.11,204.48 212.67,199.66 208.19,198.93 207.93,204.65 
							"/>
			<path style="fill:#263238;" d="M212.29,209.49c-0.01-0.42-5.12-0.09-5.12-0.09s-3.15,3.2-6.2,3.92
				c-3.06,0.72-1.35,2.55,2.07,2.55c3.41,0,6.02,0,8.45,0S212.4,213.81,212.29,209.49z"/>
			<g>
				<path style="fill:#407BFF;" d="M204.48,210.71c-0.19,0-0.34-0.04-0.45-0.12c-0.1-0.08-0.2-0.24-0.12-0.54
					c0.04-0.15,0.13-0.26,0.27-0.35c0.27-0.16,0.71-0.17,1.15-0.13c-0.42-0.22-0.78-0.49-0.8-0.76c-0.01-0.17,0.1-0.32,0.34-0.43
					c0.22-0.1,0.44-0.11,0.66-0.02c0.69,0.29,1.12,1.47,1.14,1.53c0.01,0.02,0.01,0.04,0.01,0.05l0,0l0,0l0,0l0,0
					c0,0.01,0,0.03-0.01,0.04l0,0l0,0c-0.01,0.01-0.01,0.03-0.02,0.04l0,0l0,0c-0.01,0.01-0.03,0.02-0.04,0.03
					C206.33,210.19,205.2,210.71,204.48,210.71z M204.92,209.82c-0.25,0-0.46,0.03-0.6,0.11c-0.08,0.05-0.13,0.1-0.15,0.18
					c-0.05,0.2,0.01,0.25,0.03,0.27c0.24,0.2,1.18-0.08,1.93-0.4C205.78,209.9,205.31,209.82,204.92,209.82z M205.22,208.57
					c-0.08,0-0.16,0.02-0.24,0.06c-0.07,0.03-0.19,0.1-0.18,0.17c0.01,0.23,0.74,0.63,1.5,0.92c-0.16-0.35-0.48-0.93-0.88-1.1
					C205.36,208.58,205.29,208.57,205.22,208.57z"/>
			</g>
			<polygon style="opacity:0.2;enable-background:new    ;" points="207.93,204.77 212.11,204.58 212.67,199.71 208.19,198.95 			
				"/>
			<path style="fill:#263238;" d="M198.29,118.92c0,0-11.15,26.36-12.91,37.93c-1.75,11.57,37.87,42.59,37.87,42.59l4.05-4.31
				c0,0-29.48-30.3-29.48-35.51s11.5-29.02,11.5-29.02S210.43,121,198.29,118.92z"/>
			<path style="opacity:0.4;fill:#FFFFFF;enable-background:new    ;" d="M206.36,185.02c4.05,3.73,7.96,7.09,11,9.64
				c3.53,2.95,5.88,4.79,5.88,4.79l4.05-4.31c0,0-4.05-4.16-9.14-9.66c-4.01-4.33-8.66-9.49-12.51-14.11
				c-4.45-5.35-7.82-9.98-7.82-11.74c0-2.75,3.2-10.67,6.22-17.54c2.71-6.16,5.28-11.48,5.28-11.48s0.16-1.41-0.32-3.26
				c-0.78-2.99-3.22-7.13-10.72-8.42c0,0-11.15,26.37-12.9,37.93C184.42,163.18,195.83,175.32,206.36,185.02z"/>
			<path style="opacity:0.2;enable-background:new    ;" d="M205.65,171.36l0.71,13.66c4.05,3.73,7.96,7.09,11,9.64
				c0.48-2.07,1.04-5.44,0.79-9.18C214.15,181.14,209.5,175.98,205.65,171.36z"/>
			<path style="opacity:0.2;enable-background:new    ;" d="M204.05,142.08c2.71-6.16,5.28-11.48,5.28-11.48s0.16-1.41-0.32-3.26
				c-0.72-0.44-1.27-0.53-1.27-0.53S204.44,131.99,204.05,142.08z"/>
			<path style="fill:#263238;" d="M207.58,126.81l-0.73,37.12v37.99h6.43c15.1-71.99,4.74-90.03,4.74-90.03l-0.04,0.01
				c-0.01-0.03-0.02-0.06-0.03-0.08c-2.43-5.39-18.33-1.42-18.33-1.42c-1.14,4.47-1.88,13.54-1.88,13.54L207.58,126.81z"/>
			<path style="opacity:0.4;fill:#FFFFFF;enable-background:new    ;" d="M207.58,126.81l-0.73,37.12v37.99h6.43
				c15.1-71.99,4.74-90.03,4.74-90.03l-0.04,0.01c-0.01-0.03-0.02-0.06-0.03-0.08c-2.43-5.39-18.33-1.42-18.33-1.42
				c-1.14,4.47-1.88,13.54-1.88,13.54L207.58,126.81z"/>
			<polygon style="fill:#263238;" points="218.01,109.11 218.01,111.81 199.6,110.4 199.6,107.21 			"/>
			
				<rect x="209.95" y="109.87" transform="matrix(0.051 -0.9987 0.9987 0.051 91.2755 316.7035)" style="fill:#263238;" width="4.66" height="0.91"/>
			
				<rect x="204.31" y="107.56" transform="matrix(0.0892 -0.996 0.996 0.0892 78.3396 304.8311)" style="fill:#FFFFFF;" width="3.07" height="4.04"/>
			
				<rect x="198.7" y="108.63" transform="matrix(0.051 -0.9987 0.9987 0.051 81.8374 304.2914)" style="fill:#263238;" width="4.66" height="0.91"/>
			
				<rect x="209.95" y="109.87" transform="matrix(0.051 -0.9987 0.9987 0.051 91.2755 316.7035)" style="opacity:0.4;fill:#FFFFFF;enable-background:new    ;" width="4.66" height="0.91"/>
			
				<rect x="198.7" y="108.63" transform="matrix(0.051 -0.9987 0.9987 0.051 81.8374 304.2914)" style="opacity:0.4;fill:#FFFFFF;enable-background:new    ;" width="4.66" height="0.91"/>
			<path style="fill:#407BFF;" d="M199.62,107.53l18.42,1.59c0.44-6.85,0.87-11.26,4.93-23.47c0.35-1.07,0.73-2.2,1.15-3.4
				c-2.5-0.8-5.05-1.41-7.64-1.84c-2.73-0.49-5.5-0.78-8.27-0.87c-3.59-0.03-7.7,0.38-7.7,0.38s-0.59,0.14-0.95,3.94
				C199.21,87.43,198.89,94.56,199.62,107.53z"/>
			<path style="fill:#E4897B;" d="M209.73,83.62c4.54-0.58,5.9-2.52,5.9-2.52c-2.88-2.72-0.49-7.43-0.49-7.43l-5.46,1.02
				c0.14,0.9,0.2,1.66,0.21,2.3c0.04,3.32-1.46,3.35-1.46,3.35C207.48,82.13,209.73,83.62,209.73,83.62z"/>
			<path style="opacity:0.2;enable-background:new    ;" d="M209.68,74.69c0.14,0.9,0.2,1.66,0.21,2.3
				c2.63-0.61,5.25-3.32,5.25-3.32L209.68,74.69z"/>
			<g>
				<path style="fill:#E4897B;" d="M214.55,59.57c-4.63-1.1-6.71,1.03-8.18,5.72c-1.84,5.86-1.52,10.41,4.57,10.51
					C219.21,75.93,222.24,61.39,214.55,59.57z"/>
				<path style="fill:#DE5753;" d="M209.43,65.74c0,0-0.93,1.06-1.8,1.6c0,0,0.25,0.72,1.1,0.81L209.43,65.74z"/>
				<g>
					<path style="fill:#263238;" d="M212.35,66.03c-0.1,0.38,0.03,0.74,0.28,0.8c0.25,0.07,0.54-0.19,0.64-0.57s-0.03-0.74-0.28-0.8
						C212.73,65.4,212.45,65.65,212.35,66.03z"/>
					<path style="fill:#263238;" d="M213.09,65.51l-0.74-0.54C212.35,64.97,212.58,65.77,213.09,65.51z"/>
				</g>
				<g>
					<path style="fill:#263238;" d="M207.67,64.72c-0.1,0.38,0.03,0.74,0.28,0.8c0.25,0.07,0.54-0.19,0.64-0.57s-0.03-0.74-0.28-0.8
						C208.05,64.09,207.77,64.34,207.67,64.72z"/>
					<path style="fill:#263238;" d="M208.41,64.2l-0.74-0.54C207.67,63.66,207.9,64.46,208.41,64.2z"/>
				</g>
				
					<path style="fill:none;stroke:#263238;stroke-width:0.7247;stroke-linecap:round;stroke-linejoin:round;stroke-miterlimit:10;" d="
					M213.15,62.84c0,0,1.34,0.14,1.84,1.18"/>
				
					<path style="fill:none;stroke:#263238;stroke-width:0.7247;stroke-linecap:round;stroke-linejoin:round;stroke-miterlimit:10;" d="
					M209.84,61.85c0,0-0.75-0.5-1.93-0.06"/>
				<g>
					<path style="fill:#263238;" d="M208.97,69.55c0.14,0.62,0.16,1.74,0.16,1.74c0.1,0.02,0.2,0.03,0.3,0.04
						c1.38,0.18,2.08-0.19,2.44-0.65c0.19-0.26,0.29-0.54,0.33-0.78c0.05-0.28,0.02-0.49,0.02-0.49c-0.79,0.34-2.09,0.27-2.78,0.2
						C209.15,69.58,208.97,69.55,208.97,69.55z"/>
					<path style="fill:#FFFFFF;" d="M209.44,69.6l0.06,0.51c1.3,0.17,2.24,0.11,2.7-0.23c0.05-0.28,0.02-0.49,0.02-0.49
						C211.43,69.74,210.13,69.67,209.44,69.6z"/>
					<path style="fill:#DE5753;" d="M209.43,71.32c1.38,0.18,2.08-0.19,2.44-0.65c-0.47-0.04-1.05-0.05-1.57,0.1
						C209.89,70.88,209.62,71.09,209.43,71.32z"/>
				</g>
				<path style="fill:#263238;" d="M217.76,68.57c0,0-1.26-4.32-0.24-7.17c0,0-8.28-5.92-10.94,3.28c0,0,1.06-8.48,9.06-6.78
					c7.99,1.7,5.21,13.33,0.28,15.83C215.92,73.73,218.53,71.26,217.76,68.57z"/>
				<path style="fill:#E4897B;" d="M216.77,69.37c0.21-0.74,1.28-1.82,2.63-1.34c1.4,0.5,1.38,3.6-2.35,3.47
					C216.51,71.47,216.34,70.91,216.77,69.37z"/>
			</g>
			<polygon style="fill:#407BFF;" points="214.09,201.01 206.19,199.85 206.85,203.01 213.37,203.89 			"/>
			<polygon style="fill:#407BFF;" points="227.3,193.68 222,199.44 224.65,200.96 228.74,196.62 			"/>
			<g>
				<g>
					<path style="fill:#263238;" d="M216.43,59.25c-0.14,0.48,0.01,0.94,0.33,1.03s0.69-0.22,0.83-0.7s-0.01-0.94-0.33-1.03
						C216.94,58.46,216.57,58.77,216.43,59.25z"/>
					<path style="fill:#263238;" d="M217.38,58.61l-0.92-0.71C216.46,57.9,216.73,58.93,217.38,58.61z"/>
				</g>
				<g>
					<path style="fill:#263238;" d="M210.52,57.44c-0.14,0.48,0.01,0.94,0.33,1.03s0.69-0.22,0.83-0.7s-0.01-0.94-0.33-1.03
						C211.03,56.65,210.66,56.96,210.52,57.44z"/>
					<path style="fill:#263238;" d="M211.47,56.8l-0.92-0.71C210.55,56.1,210.82,57.12,211.47,56.8z"/>
				</g>
				<path style="fill:#407BFF;" d="M208.79,55.17c0,0,1.38-0.27,3.68,0.98v-0.01c0,0,1.17-0.22,2.13,0.59
					c0.74,0.11,2.45,0.47,4.33,1.57l0.69,5.95l-0.08,0.51l-0.87-5.42c-0.58,1.1-1.92,2.71-3.46,2.13c-2.06-0.78-1.58-2.96-1.25-3.96
					c-0.37-0.59-1.2-0.8-1.44-0.43c-0.32,0.89-1.24,2.89-3.44,2.42C206.85,59.01,208.79,55.17,208.79,55.17z"/>
				<path style="opacity:0.2;enable-background:new    ;" d="M208.79,55.17c0,0,1.38-0.27,3.68,0.98v-0.01c0,0,1.17-0.22,2.13,0.59
					c0.74,0.11,2.45,0.47,4.33,1.57l0.69,5.95l-0.08,0.51l-0.87-5.42c-0.58,1.1-1.92,2.71-3.46,2.13c-2.06-0.78-1.58-2.96-1.25-3.96
					c-0.37-0.59-1.2-0.8-1.44-0.43c-0.32,0.89-1.24,2.89-3.44,2.42C206.85,59.01,208.79,55.17,208.79,55.17z"/>
				<g style="opacity:0.3;">
					<path style="fill:#FFFFFF;" d="M209.54,55.59l0.39,3.61c0,0-1.39,0.23-1.58-0.88s0.55-2.83,0.55-2.83
						S209.31,55.48,209.54,55.59z"/>
					<path style="fill:#FFFFFF;" d="M209.85,55.61l0.37,3.64c0,0,0.62-0.09,0.66-0.31l-0.29-3.1
						C210.59,55.83,210.07,55.66,209.85,55.61z"/>
					<path style="fill:#FFFFFF;" d="M215.35,57.39l0.39,3.61c0,0-1.39,0.23-1.58-0.88s0.55-2.83,0.55-2.83
						S215.12,57.28,215.35,57.39z"/>
					<path style="fill:#FFFFFF;" d="M215.66,57.4l0.37,3.64c0,0,0.62-0.09,0.66-0.31l-0.29-3.1
						C216.4,57.62,215.87,57.46,215.66,57.4z"/>
				</g>
			</g>
			<g>
				<path style="opacity:0.3;enable-background:new    ;" d="M224.12,82.26c-0.42,1.2-0.8,2.33-1.15,3.4
					c-1.08,3.27-1.91,5.98-2.55,8.32c-1.74,6.42-2.06,10.14-2.38,15.15l-18.42-1.6c-0.45-7.93-0.5-13.67-0.39-17.76
					c0.06-2.6,0.19-4.52,0.32-5.91c0.37-3.8,0.96-3.94,0.96-3.94s1.09-0.11,2.63-0.2c0.45-0.03,0.94-0.06,1.45-0.08
					c1.15-0.06,2.41-0.1,3.62-0.09c2.77,0.09,5.54,0.38,8.27,0.87c1.04,0.17,2.07,0.37,3.09,0.62c0.69,0.14,1.37,0.31,2.05,0.5
					C222.46,81.76,223.29,82,224.12,82.26z"/>
				<path style="fill:#E4897B;" d="M219.57,81.04c-2.45,2.99-8.31,9.31-12.99,7.79c-4.4-1.43-3.07-6.49-1.99-9.19
					c1.15-0.06,2.41-0.1,3.62-0.09c2.77,0.09,5.54,0.38,8.27,0.87C217.52,80.59,218.55,80.79,219.57,81.04z"/>
				<path style="fill:#E4897B;" d="M224.12,82.26c-0.42,1.2-0.8,2.33-1.15,3.4c-1.08,3.27-1.91,5.98-2.55,8.32
					c-2.27-4.04-0.01-9.88,1.2-12.44C222.46,81.76,223.29,82,224.12,82.26z"/>
				<path style="fill:#E4897B;" d="M203.14,79.72c-0.78,2.13-2.54,6.95-3.91,10.05c0.06-2.6,0.19-4.52,0.32-5.91
					c0.37-3.8,0.96-3.94,0.96-3.94S201.6,79.81,203.14,79.72z"/>
			</g>
			<path style="fill:#E4897B;" d="M224.12,82.26c3.09,0.93,12.19,2.08,13.97,1.36s15.33-12.12,15.33-12.12l1.58,2.17
				c0,0-13.05,14.42-14.74,14.79c-1.68,0.37-18.59,0-18.59,0L224.12,82.26z"/>
			<path style="opacity:0.2;enable-background:new    ;" d="M222.04,88.53l2.31-1.49c0,0-3.27-1.73-4.84,1.58
				c-1.56,3.3,0.81,5.72,0.81,5.72L222.04,88.53z"/>
			<path style="fill:#E4897B;" d="M253.42,73.67c0,0-1.19-2.47-0.92-3.28c0.26-0.81,6.59-3.44,8.18-3.44c1.58-0.01,1.99,3.82,1,5.27
				C260.67,73.66,254.52,74.92,253.42,73.67z"/>
		</g>
		<g id="_x3C_Group_x3E__168_">
			<path style="fill:#EBB376;" d="M214.56,128.08c0,0-12.86,7.11-13.75,7.25s-14.53-9.12-14.53-9.12l-3.1,3.43
				c0,0,12.4,10.15,15.32,11.45c2.92,1.31,16.6-4.05,16.6-4.05L214.56,128.08z"/>
			<path style="opacity:0.2;enable-background:new    ;" d="M214.56,128.08c0,0-12.86,7.11-13.75,7.25s-14.53-9.12-14.53-9.12
				l-3.1,3.43c0,0,12.4,10.15,15.32,11.45c2.92,1.31,16.6-4.05,16.6-4.05L214.56,128.08z"/>
			<path style="fill:#EBB376;" d="M225.46,123.84c1.61-0.52,2.44-1.46,2.79-2.61c0.24-0.78,0.25-1.66,0.16-2.56
				c-0.04-0.47-0.13-0.95-0.23-1.42l7.37-5.76c-0.89,3.7-1.91,10.49,0.58,13.08C230.3,128.32,225.46,123.84,225.46,123.84z"/>
			<path style="opacity:0.2;enable-background:new    ;" d="M233.91,115.08c-0.18,4.52-3.85,5.86-5.66,6.16
				c0.24-0.78,0.25-1.66,0.16-2.56L233.91,115.08z"/>
			<g>
				<path style="fill:#263238;" d="M222.93,99.53c0,0-2.41,6.68,0.72,10.05s5.67-9.45,5.67-9.45L222.93,99.53z"/>
				<path style="fill:#EBB376;" d="M233.17,117.16c-2.28,2.2-5.3,2.29-7.66,1c-1.51-0.83-2.75-2.23-3.33-4.02
					c-0.08-0.23-0.14-0.48-0.2-0.73c-0.97-4.56-0.08-12.04,4.91-13.92c3.55-1.36,7.55,0.41,8.91,3.97c0.39,1.01,0.54,2.1,0.43,3.18
					C235.81,111.68,235.8,114.65,233.17,117.16z"/>
				<path style="fill:#263238;" d="M228.55,107.86c0.02,0.41-0.23,0.74-0.51,0.73c-0.27-0.01-0.48-0.35-0.47-0.76
					s0.24-0.74,0.51-0.73C228.35,107.11,228.55,107.44,228.55,107.86z"/>
				<path style="fill:#263238;" d="M223.9,107.73c0.02,0.41-0.24,0.74-0.51,0.73c-0.27-0.01-0.48-0.35-0.47-0.76
					s0.24-0.74,0.51-0.73C223.7,106.98,223.91,107.34,223.9,107.73z"/>
				<path style="fill:#D58745;" d="M225.37,107.98c-0.52,1.24-1.21,2.41-2.05,3.46c0.56,0.42,1.28,0.58,1.96,0.42L225.37,107.98z"/>
				<path style="fill:#263238;" d="M230.03,106.39c-0.09,0.01-0.18-0.03-0.23-0.1c-0.35-0.51-0.91-0.82-1.52-0.85
					c-0.13,0.01-0.24-0.1-0.25-0.23s0.1-0.24,0.23-0.25l0,0c0.78,0.01,1.5,0.4,1.93,1.04c0.08,0.11,0.06,0.26-0.05,0.34l0,0
					C230.1,106.37,230.06,106.38,230.03,106.39z"/>
				<path style="fill:#263238;" d="M221.95,106.08c-0.05,0.02-0.1,0.02-0.14,0.01c-0.12-0.06-0.17-0.2-0.11-0.32l0,0
					c0.34-0.7,1-1.19,1.77-1.31c0.13-0.01,0.25,0.08,0.26,0.21l0,0c0.01,0.13-0.09,0.25-0.22,0.26l0,0
					c-0.6,0.11-1.12,0.51-1.39,1.06C222.09,106.04,222.02,106.08,221.95,106.08z"/>
				<path style="fill:#263238;" d="M232.7,100.26l-0.43,2.2c0.7,0.44,1.08,1.29,0.68,2.14c-0.85,1.81-0.01,4.78,1.34,6.04
					c0,0,0.1-0.8,0.77-0.56c0.67,0.24,0.17,4.44-1.31,6.35c0,0,2.15-1.67,3.61-6c1.35-4.01,1.74-7.4,1.01-9.05L232.7,100.26z"/>
				<path style="fill:#263238;" d="M223.32,101.35c0,0-2.07-2.44-0.39-4.55c1.68-2.11,5.89-3.76,6.26-2.64s-1.03,1.58,0,1.78
					s3.22-0.99,5.22-0.79c2,0.2,0.51,0.79,1.59,1.58s2.66,0.79,3.78,1.52c1.12,0.73-0.73,2-0.73,2s2.57,0.04,2.57,1.69
					s-2.89,1.38-2.89,1.38s1.75,1.26,1.36,2.35c-0.38,1.08-6.75-0.93-7.82-3.22C232.27,102.46,225,103.46,223.32,101.35z"/>
				<g>
					<g>
						<path style="fill:#263238;" d="M229.03,108.22c-0.04,0.5,0.19,0.92,0.52,0.95s0.63-0.35,0.67-0.85s-0.19-0.92-0.52-0.95
							C229.37,107.34,229.07,107.72,229.03,108.22z"/>
						<path style="fill:#263238;" d="M229.84,107.41l-1.04-0.51C228.8,106.89,229.26,107.85,229.84,107.41z"/>
					</g>
					<g>
						<path style="fill:#263238;" d="M222.88,107.59c-0.04,0.5,0.19,0.92,0.52,0.95s0.63-0.35,0.67-0.85s-0.19-0.92-0.52-0.95
							S222.92,107.09,222.88,107.59z"/>
						<path style="fill:#263238;" d="M223.69,106.78l-1.04-0.51C222.65,106.26,223.11,107.22,223.69,106.78z"/>
					</g>
					<path style="fill:#407BFF;" d="M220.74,105.69c0,0,1.3-0.53,3.8,0.25v-0.01c0,0,1.1-0.44,2.2,0.17
						c0.74-0.04,2.49-0.02,4.55,0.7l4.77,1.61l0.02,0.52l-4.84-1.06c-0.35,1.19-1.36,3.03-2.99,2.76c-2.17-0.36-2.12-2.6-1.99-3.64
						c-0.47-0.51-1.33-0.55-1.49-0.14c-0.14,0.93-0.65,3.08-2.91,3.03C219.58,109.84,220.74,105.69,220.74,105.69z"/>
					<path style="opacity:0.2;enable-background:new    ;" d="M220.74,105.69c0,0,1.3-0.53,3.8,0.25v-0.01c0,0,1.1-0.44,2.2,0.17
						c0.74-0.04,2.49-0.02,4.55,0.7l4.77,1.61l0.02,0.52l-4.84-1.06c-0.35,1.19-1.36,3.03-2.99,2.76c-2.17-0.36-2.12-2.6-1.99-3.64
						c-0.47-0.51-1.33-0.55-1.49-0.14c-0.14,0.93-0.65,3.08-2.91,3.03C219.58,109.84,220.74,105.69,220.74,105.69z"/>
					<g style="opacity:0.3;">
						<path style="fill:#FFFFFF;" d="M221.56,105.96l1.08,3.46c0,0-1.32,0.5-1.72-0.56s-0.01-2.88-0.01-2.88
							S221.31,105.9,221.56,105.96z"/>
						<path style="fill:#FFFFFF;" d="M221.87,105.92l1.07,3.49c0,0,0.59-0.21,0.59-0.43l-0.89-2.99
							C222.64,105.99,222.09,105.93,221.87,105.92z"/>
						<path style="fill:#FFFFFF;" d="M227.61,106.6l1.08,3.46c0,0-1.32,0.5-1.72-0.56s-0.01-2.88-0.01-2.88
							S227.36,106.54,227.61,106.6z"/>
						<path style="fill:#FFFFFF;" d="M227.91,106.56l1.07,3.49c0,0,0.59-0.21,0.59-0.43l-0.89-2.99
							C228.68,106.63,228.13,106.57,227.91,106.56z"/>
					</g>
				</g>
				<path style="fill:#EBB376;" d="M238.33,110.84c-0.59,1.13-1.6,1.97-2.81,2.35c-1.61,0.49-2.46-0.94-2.05-2.48
					c0.38-1.37,1.66-3.32,3.29-3.12C238.4,107.79,239.04,109.45,238.33,110.84z"/>
				<g>
					<path style="fill:#263238;" d="M225.34,113.35c0.46,0.75,1.01,2.2,1.01,2.2c0.14-0.03,0.28-0.05,0.42-0.08
						c1.89-0.4,2.63-1.21,2.89-1.98c0.14-0.42,0.12-0.84,0.06-1.18c-0.06-0.39-0.19-0.65-0.19-0.65c-0.88,0.81-2.61,1.31-3.54,1.55
						C225.59,113.31,225.34,113.35,225.34,113.35z"/>
					<path style="fill:#FFFFFF;" d="M225.98,113.21l0.31,0.64c1.78-0.38,2.98-0.88,3.42-1.54c-0.06-0.39-0.19-0.65-0.19-0.65
						C228.65,112.47,226.92,112.98,225.98,113.21z"/>
					<path style="fill:#DE5753;" d="M226.77,115.46c1.89-0.4,2.63-1.21,2.89-1.98c-0.64,0.16-1.39,0.42-2.01,0.86
						C227.17,114.67,226.92,115.08,226.77,115.46z"/>
				</g>
			</g>
			<g>
				<path style="fill:#407BFF;" d="M219.04,125.36c-3.97-0.54-11.75,5.4-11.75,5.4l3.2,9.05l7.39-0.68L219.04,125.36z"/>
				<path style="opacity:0.6;fill:#FFFFFF;enable-background:new    ;" d="M217.88,139.13l-0.65,0.06l-6.74,0.62l-1.31-3.72
					l-1.89-5.34c0,0,7.78-5.94,11.75-5.4l-0.56,6.67l-0.42,4.97L217.88,139.13z"/>
				<path style="opacity:0.2;enable-background:new    ;" d="M218.06,137.01c-0.22,0.75-0.5,1.48-0.84,2.19l-6.74,0.62l-1.31-3.72
					c3.01-3.68,9.06-5.08,9.06-5.08c0.11,0.33,0.19,0.66,0.24,1.01C218.77,133.6,218.57,135.32,218.06,137.01z"/>
			</g>
			<path style="fill:#407BFF;" d="M243.35,151.87h-31.94c2.43-20.52,7.38-26.55,7.38-26.55s3.15-1.02,7.02-1.78
				c0.18,0.17,0.74,0.38,2.21,0.45c2.14,0.09,5.89-0.64,7.7-1.02C249.91,125.62,243.35,151.87,243.35,151.87z"/>
			<path style="opacity:0.6;fill:#FFFFFF;enable-background:new    ;" d="M243.71,150.24c-0.21,1.02-0.36,1.63-0.36,1.63h-31.94
				c2.43-20.52,7.38-26.55,7.38-26.55s3.15-1.02,7.02-1.78c0.18,0.17,0.74,0.38,2.21,0.45c2.14,0.09,5.89-0.64,7.7-1.02
				c3.99,0.74,6.33,3.35,7.65,6.72C246.03,136.49,244.48,146.39,243.71,150.24z"/>
			<path style="opacity:0.2;enable-background:new    ;" d="M243.71,150.24c-6.94,2.04-17.58-0.39-19.36-7.49
				C221.59,131.7,236,128.22,236,128.22c3-0.23,5.44,0.24,7.38,1.47C246.03,136.49,244.48,146.39,243.71,150.24z"/>
			<path style="fill:#EBB376;" d="M185.33,128.78l0.95-2.58c0,0-8.02-4.51-9.21-3.23s-2.24,5.77,0,6.82
				c2.24,1.06,4.98,1.69,6.11,1.23C184.31,130.55,185.33,128.78,185.33,128.78z"/>
			<path style="opacity:0.2;enable-background:new    ;" d="M185.33,128.78l0.95-2.58c0,0-8.02-4.51-9.21-3.23s-2.24,5.77,0,6.82
				c2.24,1.06,4.98,1.69,6.11,1.23C184.31,130.55,185.33,128.78,185.33,128.78z"/>
			<path d="M187.74,148.47L187.74,148.47c-0.57,0.24-1.23-0.04-1.46-0.61L178,127.83c-0.24-0.57,0.04-1.23,0.61-1.46l0,0
				c0.57-0.24,1.23,0.04,1.46,0.61l8.28,20.03C188.59,147.58,188.32,148.24,187.74,148.47z"/>
		</g>
		<g>
			<path d="M367.49,178.78H74.27c-0.67,0-1.21,0.54-1.21,1.21v42.32c0,0.67,0.54,1.21,1.21,1.21h82.29c0.67,0,1.21,0.54,1.21,1.21
				v3.48c0,0.67,0.54,1.21,1.21,1.21h35.86c0.67,0,1.21-0.54,1.21-1.21v-3.48c0-0.67,0.54-1.21,1.21-1.21h35.43
				c0.67,0,1.21,0.54,1.21,1.21l0,0c0,0.67,0.54,1.21,1.21,1.21h16.14c0.67,0,1.21-0.54,1.21-1.21l0,0c0-0.67,0.54-1.21,1.21-1.21
				h14.78c0.67,0,1.21,0.54,1.21,1.21v1.41c0,0.67,0.54,1.21,1.21,1.21h31.23c0.67,0,1.21-0.54,1.21-1.21v-1.41
				c0-0.67,0.54-1.21,1.21-1.21h62.99c0.67,0,1.21-0.54,1.21-1.21v-42.32C368.7,179.32,368.16,178.78,367.49,178.78z"/>
			<g>
				<g>
					<circle style="fill:#263238;" cx="118.25" cy="218.29" r="31.6"/>
					<path style="opacity:0.2;enable-background:new    ;" d="M118.25,242.44c-13.32,0-24.15-10.83-24.15-24.15
						s10.83-24.15,24.15-24.15s24.15,10.83,24.15,24.15S131.56,242.44,118.25,242.44z"/>
					<circle style="opacity:0.6;fill:#FFFFFF;enable-background:new    ;" cx="118.25" cy="218.29" r="21.15"/>
					<path style="opacity:0.6;fill:#FFFFFF;enable-background:new    ;" d="M118.25,236.44c-10.01,0-18.15-8.14-18.15-18.15
						s8.14-18.15,18.15-18.15s18.15,8.14,18.15,18.15S128.26,236.44,118.25,236.44z"/>
					<path style="opacity:0.2;enable-background:new    ;" d="M118.25,223.44c-2.84,0-5.15-2.31-5.15-5.15s2.31-5.15,5.15-5.15
						s5.15,2.31,5.15,5.15C123.4,221.13,121.09,223.44,118.25,223.44z"/>
					<g style="opacity:0.2;enable-background:new    ;">
						<path d="M114.67,202.68l2.88,8.63c0.23-0.03,0.46-0.04,0.7-0.04c0.24,0,0.47,0.01,0.7,0.04l2.87-8.64
							c-1.15-0.26-2.34-0.4-3.57-0.4S115.82,202.41,114.67,202.68z"/>
						<path d="M118.24,225.31c-0.24,0-0.47-0.01-0.7-0.04l-2.87,8.64c1.15,0.26,2.34,0.4,3.57,0.4s2.43-0.14,3.58-0.41l-2.88-8.63
							C118.71,225.3,118.48,225.31,118.24,225.31z"/>
						<path d="M133.86,214.72l-8.63,2.88c0.03,0.23,0.04,0.46,0.04,0.7c0,0.24-0.01,0.47-0.04,0.7l8.64,2.87
							c0.26-1.15,0.4-2.34,0.4-3.57C134.27,217.07,134.13,215.87,133.86,214.72z"/>
						<path d="M111.23,218.29c0-0.24,0.01-0.47,0.04-0.7l-8.64-2.87c-0.26,1.15-0.4,2.34-0.4,3.57s0.14,2.43,0.41,3.58l8.63-2.88
							C111.24,218.76,111.23,218.53,111.23,218.29z"/>
						<path d="M123.68,213.85l8.14-4.08c-0.63-1-1.37-1.94-2.24-2.81c-0.87-0.87-1.82-1.62-2.82-2.24l-4.07,8.14
							c0.18,0.14,0.35,0.3,0.52,0.47C123.38,213.5,123.54,213.67,123.68,213.85z"/>
						<path d="M112.81,222.73l-8.14,4.08c0.63,1,1.37,1.94,2.24,2.81c0.87,0.87,1.82,1.62,2.82,2.24l4.07-8.14
							c-0.18-0.14-0.35-0.3-0.52-0.47C113.11,223.08,112.95,222.91,112.81,222.73z"/>
						<path d="M123.21,223.26c-0.17,0.17-0.34,0.33-0.52,0.47l4.08,8.14c1-0.63,1.94-1.37,2.81-2.24s1.62-1.82,2.24-2.82l-8.14-4.07
							C123.53,222.92,123.38,223.09,123.21,223.26z"/>
						<path d="M106.92,206.96c-0.87,0.87-1.62,1.82-2.24,2.82l8.14,4.07c0.14-0.18,0.3-0.35,0.47-0.52
							c0.17-0.17,0.34-0.33,0.52-0.47l-4.08-8.14C108.73,205.35,107.79,206.09,106.92,206.96z"/>
					</g>
				</g>
				<g>
					<circle style="fill:#263238;" cx="324.56" cy="218.29" r="31.6"/>
					<path style="opacity:0.2;enable-background:new    ;" d="M324.56,242.44c-13.32,0-24.15-10.83-24.15-24.15
						s10.83-24.15,24.15-24.15s24.15,10.83,24.15,24.15S337.87,242.44,324.56,242.44z"/>
					<circle style="opacity:0.6;fill:#FFFFFF;enable-background:new    ;" cx="324.56" cy="218.29" r="21.15"/>
					<path style="opacity:0.6;fill:#FFFFFF;enable-background:new    ;" d="M324.56,236.44c-10.01,0-18.15-8.14-18.15-18.15
						s8.14-18.15,18.15-18.15s18.15,8.14,18.15,18.15S334.56,236.44,324.56,236.44z"/>
					<path style="opacity:0.2;enable-background:new    ;" d="M324.56,223.44c-2.84,0-5.15-2.31-5.15-5.15s2.31-5.15,5.15-5.15
						s5.15,2.31,5.15,5.15S327.4,223.44,324.56,223.44z"/>
					<g style="opacity:0.2;enable-background:new    ;">
						<path d="M320.98,202.68l2.88,8.63c0.23-0.03,0.46-0.04,0.7-0.04c0.24,0,0.47,0.01,0.7,0.04l2.87-8.64
							c-1.15-0.26-2.34-0.4-3.57-0.4S322.13,202.41,320.98,202.68z"/>
						<path d="M324.55,225.31c-0.24,0-0.47-0.01-0.7-0.04l-2.87,8.64c1.15,0.26,2.34,0.4,3.57,0.4s2.43-0.14,3.58-0.41l-2.88-8.63
							C325.02,225.3,324.79,225.31,324.55,225.31z"/>
						<path d="M340.17,214.72l-8.63,2.88c0.03,0.23,0.04,0.46,0.04,0.7c0,0.24-0.01,0.47-0.04,0.7l8.64,2.87
							c0.26-1.15,0.4-2.34,0.4-3.57S340.44,215.87,340.17,214.72z"/>
						<path d="M317.54,218.29c0-0.24,0.01-0.47,0.04-0.7l-8.64-2.87c-0.26,1.15-0.4,2.34-0.4,3.57s0.14,2.43,0.41,3.58l8.63-2.88
							C317.55,218.76,317.54,218.53,317.54,218.29z"/>
						<path d="M329.99,213.85l8.14-4.08c-0.63-1-1.37-1.94-2.24-2.81s-1.82-1.62-2.82-2.24l-4.07,8.14c0.18,0.14,0.35,0.3,0.52,0.47
							C329.69,213.5,329.85,213.67,329.99,213.85z"/>
						<path d="M319.12,222.73l-8.14,4.08c0.63,1,1.37,1.94,2.24,2.81s1.82,1.62,2.82,2.24l4.07-8.14c-0.18-0.14-0.35-0.3-0.52-0.47
							C319.42,223.08,319.26,222.91,319.12,222.73z"/>
						<path d="M329.52,223.26c-0.17,0.17-0.34,0.33-0.52,0.47l4.08,8.14c1-0.63,1.94-1.37,2.81-2.24s1.62-1.82,2.24-2.82l-8.14-4.07
							C329.84,222.92,329.69,223.09,329.52,223.26z"/>
						<path d="M313.23,206.96c-0.87,0.87-1.62,1.82-2.24,2.82l8.14,4.07c0.14-0.18,0.3-0.35,0.47-0.52
							c0.17-0.17,0.34-0.33,0.52-0.47l-4.08-8.14C315.04,205.35,314.1,206.09,313.23,206.96z"/>
					</g>
				</g>
			</g>
			<g>
				<path style="fill:#263238;" d="M236.76,148.54c0,0,4.08-16.63,9.5-19.76c0,0-1.79-1.3,0.53-7s4.5-10.35,8.33-9.19
					c3.84,1.16,14.47,8.05,0,16.19c0,0,3.02,7.83,3.03,25.28s-18.32,36.42-22.21,33.46C232.06,184.56,236.76,148.54,236.76,148.54z"
					/>
				<g>
					<path style="fill:#263238;" d="M329.84,129.96c-1.76,2.19-1.78,5.23-1.37,7.72c0.4,2.47,1.24,4.4,1.24,4.4l-59.01,7.54v-10.21
						c0,0-0.45-6.14,29.71-6.67c0,0,16.8-16.23,20.57-15.83c5.73,0.6,3.58,5.18,3.58,5.18s2.42-0.69,4.43,0
						C331.47,122.95,333.34,125.6,329.84,129.96z"/>
					<path style="opacity:0.2;enable-background:new    ;" d="M329.84,129.96c-1.76,2.19-1.78,5.23-1.37,7.72
						c-11.5,2.05-53.86,4.96-51.71,2.18c2.38-3.07,26.61-2.67,27.99-3.56c1.39-0.89,19.81-14.21,19.81-14.21s2.42-0.69,4.43,0
						C331.47,122.95,333.34,125.6,329.84,129.96z"/>
				</g>
				<path style="fill:#407BFF;" d="M381.71,216.57l-22.21,0.18c-0.8-18.57-16.18-33.44-34.94-33.44
					c-18.98,0-34.47,15.17-34.98,34.02l-136.36,1.12v-0.17c0-19.28-15.68-34.97-34.97-34.97c-12.33,0-23.18,6.41-29.41,16.07
					c-3.53,5.45-5.57,11.94-5.57,18.9c0,0.25,0,0.5,0.01,0.75l-6.81-3.21l-17.16-8.09c0,0-5.15-32.61,9.63-49.92
					c14.78-17.3,70.46-30.16,70.46-30.16s16.23-21.98,26.79-32.72c0.32-0.32,0.63-0.64,0.94-0.94c0.53-0.51,1.24-0.8,1.98-0.8h6.56
					c0.78,0,1.3,0.82,0.95,1.52c-3.14,6.45-15.1,31.81-15.1,44.7h141.89l26.43-9.45c0,0,42.78,8.76,47.7,14.45
					c0.56,0.65,1.05,2.09,1.46,4.13C382.29,164.4,381.71,216.57,381.71,216.57z"/>
				<g>
					<path style="fill:#407BFF;" d="M80.74,148.71c7.57-1.93,5.87,13.83-4.42,22.27s-14.34,8.06-15.48,3.24
						C59.71,169.4,65.64,152.55,80.74,148.71z"/>
					<path style="opacity:0.6;fill:#FFFFFF;enable-background:new    ;" d="M80.74,148.71c7.57-1.93,5.87,13.83-4.42,22.27
						s-14.34,8.06-15.48,3.24C59.71,169.4,65.64,152.55,80.74,148.71z"/>
					<path style="opacity:0.6;fill:#FFFFFF;enable-background:new    ;" d="M80.13,161.78c-1.35,4.72-4.34,8.01-6.68,7.34
						c-2.34-0.67-3.14-5.04-1.79-9.76s4.34-8.01,6.68-7.34C80.69,152.69,81.49,157.06,80.13,161.78z"/>
					<path style="opacity:0.6;fill:#FFFFFF;enable-background:new    ;" d="M68.54,168.57c-0.62,2.17-2,3.69-3.08,3.38
						s-1.44-2.32-0.82-4.49s2-3.69,3.08-3.38C68.8,164.39,69.17,166.4,68.54,168.57z"/>
					<path style="opacity:0.2;fill:#FFFFFF;enable-background:new    ;" d="M82.65,158.32c0,0-8.13,9.89-19.76,9.69
						c0,0,5.12-13.78,17.91-18C80.81,150.01,84.63,152.91,82.65,158.32z"/>
				</g>
				<g>
					<path style="fill:#263238;" d="M171.36,95.62c-1.06,1.71-2.16,3.6-3.28,5.58c-5.56,9.79-11.4,21.71-13.16,25.35
						c-0.33,0.67-1.01,1.1-1.77,1.1H139.4c0,0,16.23-21.98,26.79-32.72h4.78C171.33,94.93,171.55,95.31,171.36,95.62z"/>
					<path style="opacity:0.2;fill:#FFFFFF;enable-background:new    ;" d="M171.36,95.62c-1.06,1.71-2.16,3.6-3.28,5.58
						c-7.06,6.22-16.72,15.46-25.63,26.45h-3.05c0,0,16.23-21.98,26.79-32.72h4.78C171.33,94.93,171.55,95.31,171.36,95.62z"/>
				</g>
				<path style="opacity:0.2;enable-background:new    ;" d="M381.71,216.57l-22.21,0.18c-0.8-18.57-16.18-33.44-34.94-33.44
					c-18.98,0-34.47,15.17-34.98,34.02l-136.36,1.12v-0.17c0-19.28-15.68-34.97-34.97-34.97c-12.33,0-23.18,6.41-29.41,16.07
					c-3.53,5.45-5.57,11.94-5.57,18.9c0,0.25,0,0.5,0.01,0.75l-6.81-3.21l-1.66-28.3c0,0,7.65-18.45,36.16-28.5
					c28.52-10.06,248.47-2.91,248.47-2.91s12.33-6.69,19.56-7.57c0.32,1.53,0.6,3.39,0.85,5.52c0.83,7.13,1.31,17.17,1.58,27.12
					C381.91,199.02,381.71,216.57,381.71,216.57z"/>
				<path style="fill:#407BFF;" d="M367.36,201.44l-7.86,15.31c-0.8-18.57-16.18-33.44-34.94-33.44
					c-18.98,0-34.47,15.17-34.98,34.02l-136.36,1.12v-0.17c0-19.28-15.68-34.97-34.97-34.97c-12.33,0-23.18,6.41-29.41,16.07
					l-6.68-5.65c0,0,8.52-21.62,36.09-21.62s39.83,20.86,43,35.84h120.26c0,0,10.53-35.84,43.05-35.84
					C357.07,172.11,367.36,201.44,367.36,201.44z"/>
				<g>
					<path style="fill:#407BFF;" d="M84.17,229.3c0.01,1.73-1.38,3.13-3.1,3.13H72.5c-1.28,0-2.53-0.42-3.55-1.2l-15.27-11.67
						c-1.02-0.79-1.87-1.76-2.49-2.85c-0.8-1.42-1.24-3.03-1.24-4.7v-13.9c0-0.91,0.21-1.8,0.61-2.6c0.32-0.66,0.76-1.26,1.31-1.76
						l6.82-6.23h16.12l14.03,11.86C84.46,206.06,84.11,222.42,84.17,229.3z"/>
					<path style="opacity:0.2;enable-background:new    ;" d="M67.88,207.48c0,2.93-0.77,5.49-1.94,6.91
						c-0.61,0.75-1.33,1.19-2.11,1.19c-2.24,0-4.06-3.62-4.06-8.1c0-4.47,1.82-8.1,4.06-8.1c0.7,0,1.36,0.36,1.93,0.98
						C67.02,201.73,67.88,204.41,67.88,207.48z"/>
					<path style="opacity:0.2;fill:#FFFFFF;enable-background:new    ;" d="M67.88,207.48c0,2.93-0.77,5.49-1.94,6.91
						c-1.26-1.37-2.11-4.05-2.11-7.12c0-2.92,0.77-5.48,1.93-6.91C67.02,201.73,67.88,204.41,67.88,207.48z"/>
					<path style="opacity:0.1;fill:#FFFFFF;enable-background:new    ;" d="M74.81,187.52l-8.96,7.99H50.56
						c0.32-0.66,0.76-1.26,1.31-1.76l6.82-6.23L74.81,187.52L74.81,187.52z"/>
					<path style="opacity:0.2;enable-background:new    ;" d="M84.17,229.3c0.01,1.73-1.38,3.13-3.1,3.13H72.5
						c-1.28,0-2.53-0.42-3.55-1.2l-15.27-11.67c-1.02-0.79-1.87-1.76-2.49-2.85H69.4l9.36,7.61c0,0-1.51-15.97,6.66-25.75
						l-10.61-11.05l14.03,11.86C84.46,206.06,84.11,222.42,84.17,229.3z"/>
				</g>
				<path style="fill:#407BFF;" d="M359.5,216.75l17.22-32.96h5.03l5.94,3.7c1.71,1.06,2.74,2.93,2.74,4.94v25.15
					c0,1.93-0.95,3.73-2.55,4.81l-6.62,4.5c-0.56,0.38-1.21,0.58-1.89,0.58h-16.52c-1.85,0-3.36-1.5-3.36-3.36L359.5,216.75
					L359.5,216.75z"/>
				<g style="opacity:0.2;enable-background:new    ;">
					<path d="M161.25,208.45c-0.28,0-0.5-0.22-0.5-0.5c0-6.57-6.58-16.05-6.65-16.15c-0.06-0.08-0.09-0.18-0.09-0.29
						c0-39.76,3.71-49.91,3.86-50.33l1.82-8.55c0.06-0.27,0.32-0.44,0.59-0.38c0.27,0.06,0.44,0.32,0.38,0.59l-1.85,8.62
						c-0.06,0.17-3.81,10.54-3.82,49.89c0.84,1.23,6.74,10.05,6.74,16.59C161.75,208.23,161.53,208.45,161.25,208.45z"/>
				</g>
				<g>
					<path style="fill:#263238;" d="M162.79,128.78c-1.87,0-3.48,1.3-3.89,3.12c-0.8,3.54-1.78,8.89-0.56,9.46
						c1.2,0.56,7.54,0.69,11.82,0.71c2.21,0.01,4-1.78,4-3.99v-0.61c0-4.81-3.9-8.7-8.7-8.7h-2.67V128.78z"/>
					<path style="opacity:0.2;enable-background:new    ;" d="M162.79,128.78c-1.87,0-3.48,1.3-3.89,3.12
						c-0.8,3.54-1.78,8.89-0.56,9.46c1.2,0.56,7.54,0.69,11.82,0.71c2.21,0.01,4-1.78,4-3.99v-0.61c0-4.81-3.9-8.7-8.7-8.7h-2.67
						V128.78z"/>
					<path style="fill:#263238;" d="M182.74,135.43c-1.71,0.74-12.13,0.8-12.13,0.8l-0.24,0.76c-0.33,1.08-1.32,1.81-2.45,1.81
						h-1.27c-1.3,0-2.27-1.19-2-2.46c0.18-0.84,0.39-1.83,0.64-2.89c0.99-4.4,2.45-10.02,3.47-10.73c1.5-1.04,10.68-0.76,13.9,0.67
						c0.48,0.22,0.83,0.46,1,0.72C184.98,126.15,184.45,134.69,182.74,135.43z"/>
					<path style="opacity:0.1;fill:#FFFFFF;enable-background:new    ;" d="M182.66,123.39c0,2.54-0.68,6.13-1.16,8.36
						c-0.26,1.22-1.31,2.1-2.55,2.15l-11.24,0.5c-0.95,0.04-1.81-0.33-2.42-0.95c0.99-4.4,2.45-10.02,3.47-10.73
						C170.26,121.68,179.44,121.96,182.66,123.39z"/>
				</g>
				<g style="opacity:0.2;enable-background:new    ;">
					<path d="M255.63,208.84c-0.05,0.24-0.26,0.4-0.49,0.4c-0.04,0-0.07,0-0.1-0.01c-0.27-0.05-0.45-0.32-0.39-0.59
						c8.92-43.93,5.3-68.91,5.27-69.16c-0.01-0.02-0.01-0.05-0.01-0.07h1C261.14,141.01,264.34,165.96,255.63,208.84z"/>
				</g>
				<path style="opacity:0.2;enable-background:new    ;" d="M250.62,158.96h-10.94c-2.49,0-4.5,2.02-4.5,4.5
					c0,2.49,2.02,4.5,4.5,4.5h10.94c2.49,0,4.5-2.02,4.5-4.5C255.12,160.97,253.11,158.96,250.62,158.96z M252.32,165.5h-14.33
					c-1.13,0-2.04-0.92-2.04-2.04c0-1.13,0.92-2.04,2.04-2.04h14.33c1.13,0,2.04,0.92,2.04,2.04
					C254.36,164.59,253.45,165.5,252.32,165.5z"/>
				<path style="opacity:0.4;enable-background:new    ;" d="M390.43,213.85h-2.25c-1.67,0-3.02-1.35-3.02-3.02V200.4
					c0-1.67,1.35-3.02,3.02-3.02h2.25V213.85z"/>
				<path style="opacity:0.4;enable-background:new    ;" d="M381.43,181.18c-3.99-1.53-6.98-6.82-7.19-13.22
					c-0.02-0.25-0.02-0.5-0.02-0.75c0-5.85,2.31-10.88,5.63-13.15c0.46,3.92,0.81,8.72,1.07,13.9
					C381.15,172.2,381.3,176.7,381.43,181.18z"/>
				<path style="opacity:0.6;fill:#FFFFFF;enable-background:new    ;" d="M381.43,181.18c-3.99-1.53-6.98-6.82-7.19-13.22h6.68
					C381.15,172.2,381.3,176.7,381.43,181.18z"/>
				<path style="opacity:0.2;fill:#FFFFFF;enable-background:new    ;" d="M144.42,161.41h-6.69c-1.1,0-2-0.89-2-2l0,0
					c0-1.1,0.89-1.99,2-1.99h6.69c1.1,0,1.99,0.89,1.99,1.99l0,0C146.41,160.52,145.52,161.41,144.42,161.41z"/>
			</g>
		</g>
		<g>
			<path style="fill:#EBB376;" d="M240.09,137.11c0,0-11.86,12.82-14.54,14.56c-2.69,1.73-18.25-12-18.25-12s-8.37-1.94-8.46-2.01
				c-0.09-0.07,4.03-4.02,6.09-3.98c2.06,0.04,5.26,3.43,5.36,3.44s11.43,9.18,13.29,8.04c1.86-1.13,7.72-10.68,7.72-10.68
				L240.09,137.11z"/>
			<path style="fill:#407BFF;" d="M241.2,125.03c5.66,4.04,1.64,12.39-5.1,19.35l-9.4-6.05C226.7,138.33,234.3,120.1,241.2,125.03z"
				/>
			<path style="opacity:0.6;fill:#FFFFFF;enable-background:new    ;" d="M241.2,125.03c5.66,4.04,1.64,12.39-5.1,19.35l-9.4-6.05
				C226.7,138.33,234.3,120.1,241.2,125.03z"/>
		</g>
	</g>
</g>
</svg>
