<?xml version="1.0" encoding="utf-8"?>
<!-- Generator: Adobe Illustrator 24.0.1, SVG Export Plug-In . SVG Version: 6.00 Build 0)  -->
<svg version="1.1" id="Layer_1" xmlns:svgjs="http://svgjs.com/svgjs"
	 xmlns="http://www.w3.org/2000/svg" xmlns:xlink="http://www.w3.org/1999/xlink" x="0px" y="0px" viewBox="0 0 1920 1080"
	 style="enable-background:new 0 0 1920 1080;" xml:space="preserve">
<g style="opacity:0.95;">
	<rect style="fill:#0E2A47;" width="1920" height="1080"/>
	<path style="fill:none;stroke:#03305D;stroke-width:2;" d="M130.8,106.9l64.96,37.5v75l-64.96,37.5l-64.95-37.5v-75L130.8,106.9z
		 M65.85,444.4l64.95,37.5v75l-64.95,37.5L0.9,556.9v-75L65.85,444.4z M65.85,669.4l64.95,37.5v75l-64.95,37.5L0.9,781.9v-75
		L65.85,669.4z M130.8,781.9l64.96,37.5v75l-64.96,37.5l-64.95-37.5v-75L130.8,781.9z M130.8,1006.9l64.96,37.5v75l-64.96,37.5
		l-64.95-37.5v-75L130.8,1006.9z M65.85,1119.4l64.95,37.5v75l-64.95,37.5L0.9,1231.9v-75L65.85,1119.4z M195.76,219.4l64.95,37.5
		v75l-64.95,37.5l-64.96-37.5v-75L195.76,219.4z M260.71,556.9l64.95,37.5v75l-64.95,37.5l-64.95-37.5v-75L260.71,556.9z
		 M195.76,669.4l64.95,37.5v75l-64.95,37.5l-64.96-37.5v-75L195.76,669.4z M195.76,894.4l64.95,37.5v75l-64.95,37.5l-64.96-37.5v-75
		L195.76,894.4z M260.71,1006.9l64.95,37.5v75l-64.95,37.5l-64.95-37.5v-75L260.71,1006.9z M195.76,1119.4l64.95,37.5v75
		l-64.95,37.5l-64.96-37.5v-75L195.76,1119.4z M325.66-5.6l64.96,37.5v75l-64.96,37.5l-64.95-37.5v-75L325.66-5.6z M390.62,106.9
		l64.95,37.5v75l-64.95,37.5l-64.96-37.5v-75L390.62,106.9z M390.62,331.9l64.95,37.5v75l-64.95,37.5l-64.96-37.5v-75L390.62,331.9z
		 M325.66,444.4l64.96,37.5v75l-64.96,37.5l-64.95-37.5v-75L325.66,444.4z M390.62,781.9l64.95,37.5v75l-64.95,37.5l-64.96-37.5v-75
		L390.62,781.9z M325.66,1119.4l64.96,37.5v75l-64.96,37.5l-64.95-37.5v-75L325.66,1119.4z M455.57-5.6l64.96,37.5v75l-64.96,37.5
		l-64.95-37.5v-75L455.57-5.6z M520.53,106.9l64.95,37.5v75l-64.95,37.5l-64.96-37.5v-75L520.53,106.9z M455.57,219.4l64.96,37.5v75
		l-64.96,37.5l-64.95-37.5v-75L455.57,219.4z M455.57,669.4l64.96,37.5v75l-64.96,37.5l-64.95-37.5v-75L455.57,669.4z M455.57,894.4
		l64.96,37.5v75l-64.96,37.5l-64.95-37.5v-75L455.57,894.4z M650.43,106.9l64.96,37.5v75l-64.96,37.5l-64.95-37.5v-75L650.43,106.9z
		 M585.48,219.4l64.95,37.5v75l-64.95,37.5l-64.95-37.5v-75L585.48,219.4z M650.43,331.9l64.96,37.5v75l-64.96,37.5l-64.95-37.5v-75
		L650.43,331.9z M585.48,669.4l64.95,37.5v75l-64.95,37.5l-64.95-37.5v-75L585.48,669.4z M585.48,894.4l64.95,37.5v75l-64.95,37.5
		l-64.95-37.5v-75L585.48,894.4z M585.48,1119.4l64.95,37.5v75l-64.95,37.5l-64.95-37.5v-75L585.48,1119.4z M715.39-5.6l64.95,37.5
		v75l-64.95,37.5l-64.96-37.5v-75L715.39-5.6z M715.39,669.4l64.95,37.5v75l-64.95,37.5l-64.96-37.5v-75L715.39,669.4z
		 M715.39,1119.4l64.95,37.5v75l-64.95,37.5l-64.96-37.5v-75L715.39,1119.4z M845.29-5.6l64.96,37.5v75l-64.96,37.5l-64.95-37.5v-75
		L845.29-5.6z M910.25,106.9l64.95,37.5v75l-64.95,37.5l-64.96-37.5v-75L910.25,106.9z M845.29,219.4l64.96,37.5v75l-64.96,37.5
		l-64.95-37.5v-75L845.29,219.4z M910.25,331.9l64.95,37.5v75l-64.95,37.5l-64.96-37.5v-75L910.25,331.9z M910.25,556.9l64.95,37.5
		v75l-64.95,37.5l-64.96-37.5v-75L910.25,556.9z M845.29,669.4l64.96,37.5v75l-64.96,37.5l-64.95-37.5v-75L845.29,669.4z
		 M845.29,894.4l64.96,37.5v75l-64.96,37.5l-64.95-37.5v-75L845.29,894.4z M1040.16,106.9l64.95,37.5v75l-64.95,37.5l-64.96-37.5
		v-75L1040.16,106.9z M975.2,219.4l64.96,37.5v75l-64.96,37.5l-64.95-37.5v-75L975.2,219.4z M1040.16,556.9l64.95,37.5v75
		l-64.95,37.5l-64.96-37.5v-75L1040.16,556.9z M1040.16,781.9l64.95,37.5v75l-64.95,37.5l-64.96-37.5v-75L1040.16,781.9z
		 M975.2,894.4l64.96,37.5v75l-64.96,37.5l-64.95-37.5v-75L975.2,894.4z M1105.11-5.6l64.95,37.5v75l-64.95,37.5l-64.95-37.5v-75
		L1105.11-5.6z M1170.06,106.9l64.96,37.5v75l-64.96,37.5l-64.95-37.5v-75L1170.06,106.9z M1105.11,219.4l64.95,37.5v75l-64.95,37.5
		l-64.95-37.5v-75L1105.11,219.4z M1105.11,444.4l64.95,37.5v75l-64.95,37.5l-64.95-37.5v-75L1105.11,444.4z M1170.06,556.9
		l64.96,37.5v75l-64.96,37.5l-64.95-37.5v-75L1170.06,556.9z M1105.11,894.4l64.95,37.5v75l-64.95,37.5l-64.95-37.5v-75
		L1105.11,894.4z M1105.11,1119.4l64.95,37.5v75l-64.95,37.5l-64.95-37.5v-75L1105.11,1119.4z M1235.02-5.6l64.95,37.5v75
		l-64.95,37.5l-64.96-37.5v-75L1235.02-5.6z M1299.97,106.9l64.95,37.5v75l-64.95,37.5l-64.95-37.5v-75L1299.97,106.9z
		 M1299.97,556.9l64.95,37.5v75l-64.95,37.5l-64.95-37.5v-75L1299.97,556.9z M1235.02,894.4l64.95,37.5v75l-64.95,37.5l-64.96-37.5
		v-75L1235.02,894.4z M1299.97,1006.9l64.95,37.5v75l-64.95,37.5l-64.95-37.5v-75L1299.97,1006.9z M1235.02,1119.4l64.95,37.5v75
		l-64.95,37.5l-64.96-37.5v-75L1235.02,1119.4z M1429.88,106.9l64.95,37.5v75l-64.95,37.5l-64.96-37.5v-75L1429.88,106.9z
		 M1364.92,219.4l64.96,37.5v75l-64.96,37.5l-64.95-37.5v-75L1364.92,219.4z M1429.88,331.9l64.95,37.5v75l-64.95,37.5l-64.96-37.5
		v-75L1429.88,331.9z M1364.92,894.4l64.96,37.5v75l-64.96,37.5l-64.95-37.5v-75L1364.92,894.4z M1494.83-5.6l64.96,37.5v75
		l-64.96,37.5l-64.95-37.5v-75L1494.83-5.6z M1494.83,219.4l64.96,37.5v75l-64.96,37.5l-64.95-37.5v-75L1494.83,219.4z
		 M1559.79,331.9l64.95,37.5v75l-64.95,37.5l-64.96-37.5v-75L1559.79,331.9z M1494.83,444.4l64.96,37.5v75l-64.96,37.5l-64.95-37.5
		v-75L1494.83,444.4z M1494.83,669.4l64.96,37.5v75l-64.96,37.5l-64.95-37.5v-75L1494.83,669.4z M1494.83,894.4l64.96,37.5v75
		l-64.96,37.5l-64.95-37.5v-75L1494.83,894.4z M1559.79,1006.9l64.95,37.5v75l-64.95,37.5l-64.96-37.5v-75L1559.79,1006.9z
		 M1689.69,106.9l64.96,37.5v75l-64.96,37.5l-64.95-37.5v-75L1689.69,106.9z M1689.69,331.9l64.96,37.5v75l-64.96,37.5l-64.95-37.5
		v-75L1689.69,331.9z M1624.74,444.4l64.95,37.5v75l-64.95,37.5l-64.95-37.5v-75L1624.74,444.4z M1689.69,556.9l64.96,37.5v75
		l-64.96,37.5l-64.95-37.5v-75L1689.69,556.9z M1689.69,781.9l64.96,37.5v75l-64.96,37.5l-64.95-37.5v-75L1689.69,781.9z
		 M1689.69,1006.9l64.96,37.5v75l-64.96,37.5l-64.95-37.5v-75L1689.69,1006.9z M1624.74,1119.4l64.95,37.5v75l-64.95,37.5
		l-64.95-37.5v-75L1624.74,1119.4z M1819.6,106.9l64.95,37.5v75l-64.95,37.5l-64.95-37.5v-75L1819.6,106.9z M1754.65,219.4
		l64.95,37.5v75l-64.95,37.5l-64.96-37.5v-75L1754.65,219.4z M1819.6,331.9l64.95,37.5v75l-64.95,37.5l-64.95-37.5v-75L1819.6,331.9
		z M1819.6,556.9l64.95,37.5v75l-64.95,37.5l-64.95-37.5v-75L1819.6,556.9z M1754.65,669.4l64.95,37.5v75l-64.95,37.5l-64.96-37.5
		v-75L1754.65,669.4z M1819.6,781.9l64.95,37.5v75l-64.95,37.5l-64.95-37.5v-75L1819.6,781.9z M1754.65,894.4l64.95,37.5v75
		l-64.95,37.5l-64.96-37.5v-75L1754.65,894.4z M1819.6,1006.9l64.95,37.5v75l-64.95,37.5l-64.95-37.5v-75L1819.6,1006.9z
		 M1949.51,331.9l64.95,37.5v75l-64.95,37.5l-64.96-37.5v-75L1949.51,331.9z M1884.55,444.4l64.96,37.5v75l-64.96,37.5l-64.95-37.5
		v-75L1884.55,444.4z M1949.51,556.9l64.95,37.5v75l-64.95,37.5l-64.96-37.5v-75L1949.51,556.9z M1884.55,669.4l64.96,37.5v75
		l-64.96,37.5l-64.95-37.5v-75L1884.55,669.4z M1949.51,781.9l64.95,37.5v75l-64.95,37.5l-64.96-37.5v-75L1949.51,781.9z
		 M1949.51,1006.9l64.95,37.5v75l-64.95,37.5l-64.96-37.5v-75L1949.51,1006.9z M1884.55,1119.4l64.96,37.5v75l-64.96,37.5
		l-64.95-37.5v-75L1884.55,1119.4z"/>
	<path style="fill:#03305D;" d="M123.3,106.9c0,4.14,3.36,7.5,7.5,7.5s7.5-3.36,7.5-7.5s-3.36-7.5-7.5-7.5S123.3,102.76,123.3,106.9
		z M188.26,144.4c0,4.14,3.36,7.5,7.5,7.5s7.5-3.36,7.5-7.5s-3.36-7.5-7.5-7.5S188.26,140.26,188.26,144.4z M188.26,219.4
		c0,4.14,3.36,7.5,7.5,7.5s7.5-3.36,7.5-7.5s-3.36-7.5-7.5-7.5S188.26,215.26,188.26,219.4z M123.3,256.9c0,4.14,3.36,7.5,7.5,7.5
		s7.5-3.36,7.5-7.5c0-4.14-3.36-7.5-7.5-7.5S123.3,252.76,123.3,256.9z M58.35,219.4c0,4.14,3.36,7.5,7.5,7.5s7.5-3.36,7.5-7.5
		s-3.36-7.5-7.5-7.5S58.35,215.26,58.35,219.4z M58.35,144.4c0,4.14,3.36,7.5,7.5,7.5s7.5-3.36,7.5-7.5s-3.36-7.5-7.5-7.5
		S58.35,140.26,58.35,144.4z M58.35,444.4c0,4.14,3.36,7.5,7.5,7.5s7.5-3.36,7.5-7.5s-3.36-7.5-7.5-7.5S58.35,440.26,58.35,444.4z
		 M123.3,481.9c0,4.14,3.36,7.5,7.5,7.5s7.5-3.36,7.5-7.5l0,0c0-4.14-3.36-7.5-7.5-7.5S123.3,477.76,123.3,481.9z M123.3,556.9
		c0,4.14,3.36,7.5,7.5,7.5s7.5-3.36,7.5-7.5s-3.36-7.5-7.5-7.5S123.3,552.76,123.3,556.9z M58.35,594.4c0,4.14,3.36,7.5,7.5,7.5
		s7.5-3.36,7.5-7.5s-3.36-7.5-7.5-7.5S58.35,590.26,58.35,594.4z M-6.6,556.9c0,4.14,3.36,7.5,7.5,7.5s7.5-3.36,7.5-7.5c0,0,0,0,0,0
		c0-4.14-3.36-7.5-7.5-7.5S-6.6,552.76-6.6,556.9z M-6.6,481.9c0,4.14,3.36,7.5,7.5,7.5s7.5-3.36,7.5-7.5c0,0,0,0,0,0
		c0-4.14-3.36-7.5-7.5-7.5S-6.6,477.76-6.6,481.9z M58.35,669.4c0,4.14,3.36,7.5,7.5,7.5s7.5-3.36,7.5-7.5s-3.36-7.5-7.5-7.5
		S58.35,665.26,58.35,669.4z M123.3,706.9c0,4.14,3.36,7.5,7.5,7.5s7.5-3.36,7.5-7.5s-3.36-7.5-7.5-7.5S123.3,702.76,123.3,706.9z
		 M123.3,781.9c0,4.14,3.36,7.5,7.5,7.5s7.5-3.36,7.5-7.5s-3.36-7.5-7.5-7.5S123.3,777.76,123.3,781.9z M58.35,819.4
		c0,4.14,3.36,7.5,7.5,7.5s7.5-3.36,7.5-7.5l0,0c0-4.14-3.36-7.5-7.5-7.5S58.35,815.26,58.35,819.4L58.35,819.4z M-6.6,781.9
		c0,4.14,3.36,7.5,7.5,7.5s7.5-3.36,7.5-7.5c0,0,0,0,0,0c0-4.14-3.36-7.5-7.5-7.5S-6.6,777.76-6.6,781.9z M-6.6,706.9
		c0,4.14,3.36,7.5,7.5,7.5s7.5-3.36,7.5-7.5c0,0,0,0,0,0c0-4.14-3.36-7.5-7.5-7.5S-6.6,702.76-6.6,706.9z M188.26,819.4
		c0,4.14,3.36,7.5,7.5,7.5s7.5-3.36,7.5-7.5l0,0c0-4.14-3.36-7.5-7.5-7.5S188.26,815.26,188.26,819.4L188.26,819.4z M188.26,894.4
		c0,4.14,3.36,7.5,7.5,7.5s7.5-3.36,7.5-7.5s-3.36-7.5-7.5-7.5S188.26,890.26,188.26,894.4z M123.3,931.9c0,4.14,3.36,7.5,7.5,7.5
		c4.14,0,7.5-3.36,7.5-7.5l0,0c0-4.14-3.36-7.5-7.5-7.5C126.66,924.4,123.3,927.76,123.3,931.9L123.3,931.9z M58.35,894.4
		c0,4.14,3.36,7.5,7.5,7.5s7.5-3.36,7.5-7.5s-3.36-7.5-7.5-7.5S58.35,890.26,58.35,894.4z M123.3,1006.9c0,4.14,3.36,7.5,7.5,7.5
		s7.5-3.36,7.5-7.5s-3.36-7.5-7.5-7.5S123.3,1002.76,123.3,1006.9z M188.26,1044.4c0,4.14,3.36,7.5,7.5,7.5s7.5-3.36,7.5-7.5
		s-3.36-7.5-7.5-7.5S188.26,1040.26,188.26,1044.4z M188.26,1119.4c0,4.14,3.36,7.5,7.5,7.5s7.5-3.36,7.5-7.5s-3.36-7.5-7.5-7.5
		S188.26,1115.26,188.26,1119.4z M123.3,1156.9c0,4.14,3.36,7.5,7.5,7.5s7.5-3.36,7.5-7.5l0,0c0-4.14-3.36-7.5-7.5-7.5
		S123.3,1152.76,123.3,1156.9L123.3,1156.9z M58.35,1119.4c0,4.14,3.36,7.5,7.5,7.5s7.5-3.36,7.5-7.5s-3.36-7.5-7.5-7.5
		S58.35,1115.26,58.35,1119.4z M58.35,1044.4c0,4.14,3.36,7.5,7.5,7.5s7.5-3.36,7.5-7.5s-3.36-7.5-7.5-7.5
		S58.35,1040.26,58.35,1044.4z M123.3,1231.9c0,4.14,3.36,7.5,7.5,7.5s7.5-3.36,7.5-7.5s-3.36-7.5-7.5-7.5
		S123.3,1227.76,123.3,1231.9z M58.35,1269.4c0,4.14,3.36,7.5,7.5,7.5s7.5-3.36,7.5-7.5s-3.36-7.5-7.5-7.5
		S58.35,1265.26,58.35,1269.4z M-6.6,1231.9c0,4.14,3.36,7.5,7.5,7.5c4.14,0,7.5-3.36,7.5-7.5c0,0,0,0,0,0c0-4.14-3.36-7.5-7.5-7.5
		S-6.6,1227.76-6.6,1231.9z M-6.6,1156.9c0,4.14,3.36,7.5,7.5,7.5c4.14,0,7.5-3.36,7.5-7.5c0,0,0,0,0,0c0-4.14-3.36-7.5-7.5-7.5
		S-6.6,1152.76-6.6,1156.9C-6.6,1156.9-6.6,1156.9-6.6,1156.9z M253.21,256.9c0,4.14,3.36,7.5,7.5,7.5c4.14,0,7.5-3.36,7.5-7.5
		c0-4.14-3.36-7.5-7.5-7.5S253.21,252.76,253.21,256.9L253.21,256.9z M253.21,331.9c0,4.14,3.36,7.5,7.5,7.5
		c4.14,0,7.5-3.36,7.5-7.5s-3.36-7.5-7.5-7.5C256.57,324.4,253.21,327.76,253.21,331.9L253.21,331.9L253.21,331.9z M188.26,369.4
		c0,4.14,3.36,7.5,7.5,7.5s7.5-3.36,7.5-7.5s-3.36-7.5-7.5-7.5S188.26,365.26,188.26,369.4z M123.3,331.9c0,4.14,3.36,7.5,7.5,7.5
		s7.5-3.36,7.5-7.5l0,0c0-4.14-3.36-7.5-7.5-7.5S123.3,327.76,123.3,331.9L123.3,331.9z M253.21,556.9c0,4.14,3.36,7.5,7.5,7.5
		c4.14,0,7.5-3.36,7.5-7.5s-3.36-7.5-7.5-7.5S253.21,552.76,253.21,556.9L253.21,556.9z M318.16,594.4c0,4.14,3.36,7.5,7.5,7.5
		s7.5-3.36,7.5-7.5s-3.36-7.5-7.5-7.5S318.16,590.26,318.16,594.4z M318.16,669.4c0,4.14,3.36,7.5,7.5,7.5s7.5-3.36,7.5-7.5
		s-3.36-7.5-7.5-7.5S318.16,665.26,318.16,669.4z M253.21,706.9c0,4.14,3.36,7.5,7.5,7.5c4.14,0,7.5-3.36,7.5-7.5s-3.36-7.5-7.5-7.5
		S253.21,702.76,253.21,706.9L253.21,706.9z M188.26,669.4c0,4.14,3.36,7.5,7.5,7.5s7.5-3.36,7.5-7.5s-3.36-7.5-7.5-7.5
		S188.26,665.26,188.26,669.4z M188.26,594.4c0,4.14,3.36,7.5,7.5,7.5s7.5-3.36,7.5-7.5s-3.36-7.5-7.5-7.5
		S188.26,590.26,188.26,594.4z M253.21,781.9c0,4.14,3.36,7.5,7.5,7.5c4.14,0,7.5-3.36,7.5-7.5s-3.36-7.5-7.5-7.5
		S253.21,777.76,253.21,781.9L253.21,781.9z M253.21,931.9c0,4.14,3.36,7.5,7.5,7.5c4.14,0,7.5-3.36,7.5-7.5s-3.36-7.5-7.5-7.5
		C256.57,924.4,253.21,927.76,253.21,931.9L253.21,931.9L253.21,931.9z M253.21,1006.9c0,4.14,3.36,7.5,7.5,7.5
		c4.14,0,7.5-3.36,7.5-7.5s-3.36-7.5-7.5-7.5S253.21,1002.76,253.21,1006.9L253.21,1006.9z M318.16,1044.4c0,4.14,3.36,7.5,7.5,7.5
		s7.5-3.36,7.5-7.5s-3.36-7.5-7.5-7.5S318.16,1040.26,318.16,1044.4z M318.16,1119.4c0,4.14,3.36,7.5,7.5,7.5s7.5-3.36,7.5-7.5
		s-3.36-7.5-7.5-7.5S318.16,1115.26,318.16,1119.4z M253.21,1156.9c0,4.14,3.36,7.5,7.5,7.5c4.14,0,7.5-3.36,7.5-7.5
		s-3.36-7.5-7.5-7.5C256.57,1149.4,253.21,1152.76,253.21,1156.9L253.21,1156.9L253.21,1156.9z M253.21,1231.9
		c0,4.14,3.36,7.5,7.5,7.5c4.14,0,7.5-3.36,7.5-7.5s-3.36-7.5-7.5-7.5S253.21,1227.76,253.21,1231.9L253.21,1231.9z M188.26,1269.4
		c0,4.14,3.36,7.5,7.5,7.5s7.5-3.36,7.5-7.5s-3.36-7.5-7.5-7.5S188.26,1265.26,188.26,1269.4z M318.16-5.6c0,4.14,3.36,7.5,7.5,7.5
		s7.5-3.36,7.5-7.5l0,0c0-4.14-3.36-7.5-7.5-7.5C321.52-13.1,318.16-9.74,318.16-5.6L318.16-5.6z M383.12,31.9
		c0,4.14,3.36,7.5,7.5,7.5s7.5-3.36,7.5-7.5s-3.36-7.5-7.5-7.5S383.12,27.76,383.12,31.9L383.12,31.9z M383.12,106.9
		c0,4.14,3.36,7.5,7.5,7.5s7.5-3.36,7.5-7.5s-3.36-7.5-7.5-7.5S383.12,102.76,383.12,106.9z M318.16,144.4c0,4.14,3.36,7.5,7.5,7.5
		s7.5-3.36,7.5-7.5s-3.36-7.5-7.5-7.5S318.16,140.26,318.16,144.4z M253.21,106.9c0,4.14,3.36,7.5,7.5,7.5c4.14,0,7.5-3.36,7.5-7.5
		c0-4.14-3.36-7.5-7.5-7.5S253.21,102.76,253.21,106.9L253.21,106.9z M253.21,31.9c0,4.14,3.36,7.5,7.5,7.5c4.14,0,7.5-3.36,7.5-7.5
		c0-4.14-3.36-7.5-7.5-7.5S253.21,27.76,253.21,31.9L253.21,31.9L253.21,31.9z M448.07,144.4c0,4.14,3.36,7.5,7.5,7.5
		s7.5-3.36,7.5-7.5s-3.36-7.5-7.5-7.5S448.07,140.26,448.07,144.4z M448.07,219.4c0,4.14,3.36,7.5,7.5,7.5s7.5-3.36,7.5-7.5
		s-3.36-7.5-7.5-7.5S448.07,215.26,448.07,219.4z M383.12,256.9c0,4.14,3.36,7.5,7.5,7.5s7.5-3.36,7.5-7.5c0-4.14-3.36-7.5-7.5-7.5
		S383.12,252.76,383.12,256.9z M318.16,219.4c0,4.14,3.36,7.5,7.5,7.5s7.5-3.36,7.5-7.5s-3.36-7.5-7.5-7.5
		S318.16,215.26,318.16,219.4z M383.12,331.9c0,4.14,3.36,7.5,7.5,7.5c4.14,0,7.5-3.36,7.5-7.5l0,0c0-4.14-3.36-7.5-7.5-7.5
		C386.48,324.4,383.12,327.76,383.12,331.9L383.12,331.9z M448.07,369.4c0,4.14,3.36,7.5,7.5,7.5s7.5-3.36,7.5-7.5
		s-3.36-7.5-7.5-7.5S448.07,365.26,448.07,369.4z M448.07,444.4c0,4.14,3.36,7.5,7.5,7.5s7.5-3.36,7.5-7.5s-3.36-7.5-7.5-7.5
		S448.07,440.26,448.07,444.4z M383.12,481.9c0,4.14,3.36,7.5,7.5,7.5s7.5-3.36,7.5-7.5l0,0c0-4.14-3.36-7.5-7.5-7.5
		S383.12,477.76,383.12,481.9z M318.16,444.4c0,4.14,3.36,7.5,7.5,7.5s7.5-3.36,7.5-7.5s-3.36-7.5-7.5-7.5
		S318.16,440.26,318.16,444.4z M318.16,369.4c0,4.14,3.36,7.5,7.5,7.5s7.5-3.36,7.5-7.5s-3.36-7.5-7.5-7.5
		S318.16,365.26,318.16,369.4z M383.12,556.9c0,4.14,3.36,7.5,7.5,7.5s7.5-3.36,7.5-7.5s-3.36-7.5-7.5-7.5
		S383.12,552.76,383.12,556.9z M253.21,481.9c0,4.14,3.36,7.5,7.5,7.5c4.14,0,7.5-3.36,7.5-7.5s-3.36-7.5-7.5-7.5
		S253.21,477.76,253.21,481.9L253.21,481.9z M383.12,781.9c0,4.14,3.36,7.5,7.5,7.5s7.5-3.36,7.5-7.5s-3.36-7.5-7.5-7.5
		S383.12,777.76,383.12,781.9z M448.07,819.4c0,4.14,3.36,7.5,7.5,7.5c4.14,0,7.5-3.36,7.5-7.5l0,0c0-4.14-3.36-7.5-7.5-7.5
		C451.43,811.9,448.07,815.26,448.07,819.4L448.07,819.4z M448.07,894.4c0,4.14,3.36,7.5,7.5,7.5s7.5-3.36,7.5-7.5
		s-3.36-7.5-7.5-7.5S448.07,890.26,448.07,894.4z M383.12,931.9c0,4.14,3.36,7.5,7.5,7.5c4.14,0,7.5-3.36,7.5-7.5l0,0
		c0-4.14-3.36-7.5-7.5-7.5C386.48,924.4,383.12,927.76,383.12,931.9L383.12,931.9z M318.16,894.4c0,4.14,3.36,7.5,7.5,7.5
		s7.5-3.36,7.5-7.5s-3.36-7.5-7.5-7.5S318.16,890.26,318.16,894.4z M318.16,819.4c0,4.14,3.36,7.5,7.5,7.5c4.14,0,7.5-3.36,7.5-7.5
		l0,0c0-4.14-3.36-7.5-7.5-7.5C321.52,811.9,318.16,815.26,318.16,819.4L318.16,819.4z M383.12,1156.9c0,4.14,3.36,7.5,7.5,7.5
		c4.14,0,7.5-3.36,7.5-7.5l0,0c0-4.14-3.36-7.5-7.5-7.5C386.48,1149.4,383.12,1152.76,383.12,1156.9L383.12,1156.9z M383.12,1231.9
		c0,4.14,3.36,7.5,7.5,7.5s7.5-3.36,7.5-7.5s-3.36-7.5-7.5-7.5S383.12,1227.76,383.12,1231.9z M318.16,1269.4
		c0,4.14,3.36,7.5,7.5,7.5s7.5-3.36,7.5-7.5s-3.36-7.5-7.5-7.5S318.16,1265.26,318.16,1269.4z M448.07-5.6c0,4.14,3.36,7.5,7.5,7.5
		s7.5-3.36,7.5-7.5l0,0c0-4.14-3.36-7.5-7.5-7.5C451.43-13.1,448.07-9.74,448.07-5.6L448.07-5.6z M513.03,31.9
		c0,4.14,3.36,7.5,7.5,7.5s7.5-3.36,7.5-7.5s-3.36-7.5-7.5-7.5S513.03,27.76,513.03,31.9L513.03,31.9z M513.03,106.9
		c0,4.14,3.36,7.5,7.5,7.5s7.5-3.36,7.5-7.5s-3.36-7.5-7.5-7.5S513.03,102.76,513.03,106.9z M577.98,144.4c0,4.14,3.36,7.5,7.5,7.5
		s7.5-3.36,7.5-7.5s-3.36-7.5-7.5-7.5S577.98,140.26,577.98,144.4z M577.98,219.4c0,4.14,3.36,7.5,7.5,7.5s7.5-3.36,7.5-7.5
		s-3.36-7.5-7.5-7.5S577.98,215.26,577.98,219.4z M513.03,256.9c0,4.14,3.36,7.5,7.5,7.5s7.5-3.36,7.5-7.5c0-4.14-3.36-7.5-7.5-7.5
		S513.03,252.76,513.03,256.9z M513.03,331.9c0,4.14,3.36,7.5,7.5,7.5s7.5-3.36,7.5-7.5l0,0c0-4.14-3.36-7.5-7.5-7.5
		S513.03,327.76,513.03,331.9L513.03,331.9z M448.07,669.4c0,4.14,3.36,7.5,7.5,7.5s7.5-3.36,7.5-7.5s-3.36-7.5-7.5-7.5
		S448.07,665.26,448.07,669.4z M513.03,706.9c0,4.14,3.36,7.5,7.5,7.5s7.5-3.36,7.5-7.5s-3.36-7.5-7.5-7.5
		S513.03,702.76,513.03,706.9z M513.03,781.9c0,4.14,3.36,7.5,7.5,7.5s7.5-3.36,7.5-7.5s-3.36-7.5-7.5-7.5
		S513.03,777.76,513.03,781.9z M383.12,706.9c0,4.14,3.36,7.5,7.5,7.5s7.5-3.36,7.5-7.5s-3.36-7.5-7.5-7.5
		S383.12,702.76,383.12,706.9z M513.03,931.9c0,4.14,3.36,7.5,7.5,7.5s7.5-3.36,7.5-7.5l0,0c0-4.14-3.36-7.5-7.5-7.5
		S513.03,927.76,513.03,931.9L513.03,931.9z M513.03,1006.9c0,4.14,3.36,7.5,7.5,7.5s7.5-3.36,7.5-7.5s-3.36-7.5-7.5-7.5
		S513.03,1002.76,513.03,1006.9z M448.07,1044.4c0,4.14,3.36,7.5,7.5,7.5s7.5-3.36,7.5-7.5s-3.36-7.5-7.5-7.5
		S448.07,1040.26,448.07,1044.4z M383.12,1006.9c0,4.14,3.36,7.5,7.5,7.5s7.5-3.36,7.5-7.5s-3.36-7.5-7.5-7.5
		S383.12,1002.76,383.12,1006.9z M642.93,106.9c0,4.14,3.36,7.5,7.5,7.5s7.5-3.36,7.5-7.5s-3.36-7.5-7.5-7.5
		S642.93,102.76,642.93,106.9z M707.89,144.4c0,4.14,3.36,7.5,7.5,7.5s7.5-3.36,7.5-7.5s-3.36-7.5-7.5-7.5
		S707.89,140.26,707.89,144.4z M707.89,219.4c0,4.14,3.36,7.5,7.5,7.5s7.5-3.36,7.5-7.5s-3.36-7.5-7.5-7.5
		S707.89,215.26,707.89,219.4z M642.93,256.9c0,4.14,3.36,7.5,7.5,7.5s7.5-3.36,7.5-7.5c0-4.14-3.36-7.5-7.5-7.5
		S642.93,252.76,642.93,256.9z M642.93,331.9c0,4.14,3.36,7.5,7.5,7.5s7.5-3.36,7.5-7.5l0,0c0-4.14-3.36-7.5-7.5-7.5
		S642.93,327.76,642.93,331.9L642.93,331.9z M577.98,369.4c0,4.14,3.36,7.5,7.5,7.5s7.5-3.36,7.5-7.5s-3.36-7.5-7.5-7.5
		S577.98,365.26,577.98,369.4z M707.89,369.4c0,4.14,3.36,7.5,7.5,7.5s7.5-3.36,7.5-7.5s-3.36-7.5-7.5-7.5
		S707.89,365.26,707.89,369.4z M707.89,444.4c0,4.14,3.36,7.5,7.5,7.5s7.5-3.36,7.5-7.5s-3.36-7.5-7.5-7.5
		S707.89,440.26,707.89,444.4z M642.93,481.9c0,4.14,3.36,7.5,7.5,7.5s7.5-3.36,7.5-7.5l0,0c0-4.14-3.36-7.5-7.5-7.5
		S642.93,477.76,642.93,481.9z M577.98,444.4c0,4.14,3.36,7.5,7.5,7.5s7.5-3.36,7.5-7.5s-3.36-7.5-7.5-7.5
		S577.98,440.26,577.98,444.4z M577.98,669.4c0,4.14,3.36,7.5,7.5,7.5s7.5-3.36,7.5-7.5s-3.36-7.5-7.5-7.5
		S577.98,665.26,577.98,669.4z M642.93,706.9c0,4.14,3.36,7.5,7.5,7.5s7.5-3.36,7.5-7.5s-3.36-7.5-7.5-7.5
		S642.93,702.76,642.93,706.9z M642.93,781.9c0,4.14,3.36,7.5,7.5,7.5s7.5-3.36,7.5-7.5s-3.36-7.5-7.5-7.5
		S642.93,777.76,642.93,781.9z M577.98,819.4c0,4.14,3.36,7.5,7.5,7.5s7.5-3.36,7.5-7.5l0,0c0-4.14-3.36-7.5-7.5-7.5
		S577.98,815.26,577.98,819.4L577.98,819.4z M577.98,894.4c0,4.14,3.36,7.5,7.5,7.5s7.5-3.36,7.5-7.5s-3.36-7.5-7.5-7.5
		S577.98,890.26,577.98,894.4z M642.93,931.9c0,4.14,3.36,7.5,7.5,7.5s7.5-3.36,7.5-7.5l0,0c0-4.14-3.36-7.5-7.5-7.5
		S642.93,927.76,642.93,931.9L642.93,931.9z M642.93,1006.9c0,4.14,3.36,7.5,7.5,7.5s7.5-3.36,7.5-7.5s-3.36-7.5-7.5-7.5
		S642.93,1002.76,642.93,1006.9z M577.98,1044.4c0,4.14,3.36,7.5,7.5,7.5s7.5-3.36,7.5-7.5s-3.36-7.5-7.5-7.5
		S577.98,1040.26,577.98,1044.4z M577.98,1119.4c0,4.14,3.36,7.5,7.5,7.5s7.5-3.36,7.5-7.5s-3.36-7.5-7.5-7.5
		S577.98,1115.26,577.98,1119.4z M642.93,1156.9c0,4.14,3.36,7.5,7.5,7.5s7.5-3.36,7.5-7.5l0,0c0-4.14-3.36-7.5-7.5-7.5
		S642.93,1152.76,642.93,1156.9L642.93,1156.9z M642.93,1231.9c0,4.14,3.36,7.5,7.5,7.5s7.5-3.36,7.5-7.5s-3.36-7.5-7.5-7.5
		S642.93,1227.76,642.93,1231.9z M577.98,1269.4c0,4.14,3.36,7.5,7.5,7.5s7.5-3.36,7.5-7.5s-3.36-7.5-7.5-7.5
		S577.98,1265.26,577.98,1269.4z M513.03,1231.9c0,4.14,3.36,7.5,7.5,7.5s7.5-3.36,7.5-7.5s-3.36-7.5-7.5-7.5
		S513.03,1227.76,513.03,1231.9z M513.03,1156.9c0,4.14,3.36,7.5,7.5,7.5s7.5-3.36,7.5-7.5l0,0c0-4.14-3.36-7.5-7.5-7.5
		S513.03,1152.76,513.03,1156.9L513.03,1156.9z M707.89-5.6c0,4.14,3.36,7.5,7.5,7.5s7.5-3.36,7.5-7.5l0,0c0-4.14-3.36-7.5-7.5-7.5
		S707.89-9.74,707.89-5.6L707.89-5.6z M772.84,31.9c0,4.14,3.36,7.5,7.5,7.5s7.5-3.36,7.5-7.5s-3.36-7.5-7.5-7.5
		S772.84,27.76,772.84,31.9L772.84,31.9z M772.84,106.9c0,4.14,3.36,7.5,7.5,7.5s7.5-3.36,7.5-7.5s-3.36-7.5-7.5-7.5
		S772.84,102.76,772.84,106.9z M642.93,31.9c0,4.14,3.36,7.5,7.5,7.5s7.5-3.36,7.5-7.5s-3.36-7.5-7.5-7.5S642.93,27.76,642.93,31.9
		L642.93,31.9z M707.89,669.4c0,4.14,3.36,7.5,7.5,7.5s7.5-3.36,7.5-7.5s-3.36-7.5-7.5-7.5S707.89,665.26,707.89,669.4z
		 M772.84,706.9c0,4.14,3.36,7.5,7.5,7.5s7.5-3.36,7.5-7.5s-3.36-7.5-7.5-7.5S772.84,702.76,772.84,706.9z M772.84,781.9
		c0,4.14,3.36,7.5,7.5,7.5s7.5-3.36,7.5-7.5s-3.36-7.5-7.5-7.5S772.84,777.76,772.84,781.9z M707.89,819.4c0,4.14,3.36,7.5,7.5,7.5
		s7.5-3.36,7.5-7.5l0,0c0-4.14-3.36-7.5-7.5-7.5S707.89,815.26,707.89,819.4L707.89,819.4z M707.89,1119.4c0,4.14,3.36,7.5,7.5,7.5
		s7.5-3.36,7.5-7.5s-3.36-7.5-7.5-7.5S707.89,1115.26,707.89,1119.4z M772.84,1156.9c0,4.14,3.36,7.5,7.5,7.5s7.5-3.36,7.5-7.5l0,0
		c0-4.14-3.36-7.5-7.5-7.5S772.84,1152.76,772.84,1156.9L772.84,1156.9z M772.84,1231.9c0,4.14,3.36,7.5,7.5,7.5s7.5-3.36,7.5-7.5
		s-3.36-7.5-7.5-7.5S772.84,1227.76,772.84,1231.9z M707.89,1269.4c0,4.14,3.36,7.5,7.5,7.5s7.5-3.36,7.5-7.5s-3.36-7.5-7.5-7.5
		S707.89,1265.26,707.89,1269.4z M837.79-5.6c0,4.14,3.36,7.5,7.5,7.5s7.5-3.36,7.5-7.5l0,0c0-4.14-3.36-7.5-7.5-7.5
		S837.79-9.74,837.79-5.6L837.79-5.6z M902.75,31.9c0,4.14,3.36,7.5,7.5,7.5s7.5-3.36,7.5-7.5s-3.36-7.5-7.5-7.5
		S902.75,27.76,902.75,31.9L902.75,31.9z M902.75,106.9c0,4.14,3.36,7.5,7.5,7.5s7.5-3.36,7.5-7.5s-3.36-7.5-7.5-7.5
		S902.75,102.76,902.75,106.9z M837.79,144.4c0,4.14,3.36,7.5,7.5,7.5s7.5-3.36,7.5-7.5s-3.36-7.5-7.5-7.5
		S837.79,140.26,837.79,144.4z M967.7,144.4c0,4.14,3.36,7.5,7.5,7.5s7.5-3.36,7.5-7.5s-3.36-7.5-7.5-7.5S967.7,140.26,967.7,144.4z
		 M967.7,219.4c0,4.14,3.36,7.5,7.5,7.5s7.5-3.36,7.5-7.5s-3.36-7.5-7.5-7.5S967.7,215.26,967.7,219.4z M902.75,256.9
		c0,4.14,3.36,7.5,7.5,7.5s7.5-3.36,7.5-7.5c0-4.14-3.36-7.5-7.5-7.5S902.75,252.76,902.75,256.9z M837.79,219.4
		c0,4.14,3.36,7.5,7.5,7.5s7.5-3.36,7.5-7.5s-3.36-7.5-7.5-7.5S837.79,215.26,837.79,219.4z M902.75,331.9c0,4.14,3.36,7.5,7.5,7.5
		s7.5-3.36,7.5-7.5l0,0c0-4.14-3.36-7.5-7.5-7.5S902.75,327.76,902.75,331.9L902.75,331.9z M837.79,369.4c0,4.14,3.36,7.5,7.5,7.5
		s7.5-3.36,7.5-7.5s-3.36-7.5-7.5-7.5S837.79,365.26,837.79,369.4z M772.84,331.9c0,4.14,3.36,7.5,7.5,7.5s7.5-3.36,7.5-7.5l0,0
		c0-4.14-3.36-7.5-7.5-7.5S772.84,327.76,772.84,331.9L772.84,331.9z M772.84,256.9c0,4.14,3.36,7.5,7.5,7.5s7.5-3.36,7.5-7.5
		c0-4.14-3.36-7.5-7.5-7.5S772.84,252.76,772.84,256.9z M967.7,369.4c0,4.14,3.36,7.5,7.5,7.5s7.5-3.36,7.5-7.5s-3.36-7.5-7.5-7.5
		S967.7,365.26,967.7,369.4z M967.7,444.4c0,4.14,3.36,7.5,7.5,7.5s7.5-3.36,7.5-7.5s-3.36-7.5-7.5-7.5S967.7,440.26,967.7,444.4z
		 M902.75,481.9c0,4.14,3.36,7.5,7.5,7.5s7.5-3.36,7.5-7.5l0,0c0-4.14-3.36-7.5-7.5-7.5S902.75,477.76,902.75,481.9z M837.79,444.4
		c0,4.14,3.36,7.5,7.5,7.5s7.5-3.36,7.5-7.5s-3.36-7.5-7.5-7.5S837.79,440.26,837.79,444.4z M902.75,556.9c0,4.14,3.36,7.5,7.5,7.5
		s7.5-3.36,7.5-7.5s-3.36-7.5-7.5-7.5S902.75,552.76,902.75,556.9z M967.7,594.4c0,4.14,3.36,7.5,7.5,7.5s7.5-3.36,7.5-7.5
		s-3.36-7.5-7.5-7.5S967.7,590.26,967.7,594.4z M967.7,669.4c0,4.14,3.36,7.5,7.5,7.5s7.5-3.36,7.5-7.5s-3.36-7.5-7.5-7.5
		S967.7,665.26,967.7,669.4z M902.75,706.9c0,4.14,3.36,7.5,7.5,7.5s7.5-3.36,7.5-7.5s-3.36-7.5-7.5-7.5S902.75,702.76,902.75,706.9
		z M837.79,669.4c0,4.14,3.36,7.5,7.5,7.5s7.5-3.36,7.5-7.5s-3.36-7.5-7.5-7.5S837.79,665.26,837.79,669.4z M837.79,594.4
		c0,4.14,3.36,7.5,7.5,7.5s7.5-3.36,7.5-7.5s-3.36-7.5-7.5-7.5S837.79,590.26,837.79,594.4z M902.75,781.9c0,4.14,3.36,7.5,7.5,7.5
		s7.5-3.36,7.5-7.5s-3.36-7.5-7.5-7.5S902.75,777.76,902.75,781.9z M837.79,819.4c0,4.14,3.36,7.5,7.5,7.5s7.5-3.36,7.5-7.5l0,0
		c0-4.14-3.36-7.5-7.5-7.5S837.79,815.26,837.79,819.4L837.79,819.4z M837.79,894.4c0,4.14,3.36,7.5,7.5,7.5s7.5-3.36,7.5-7.5
		s-3.36-7.5-7.5-7.5S837.79,890.26,837.79,894.4z M902.75,931.9c0,4.14,3.36,7.5,7.5,7.5s7.5-3.36,7.5-7.5l0,0
		c0-4.14-3.36-7.5-7.5-7.5S902.75,927.76,902.75,931.9L902.75,931.9z M902.75,1006.9c0,4.14,3.36,7.5,7.5,7.5s7.5-3.36,7.5-7.5
		s-3.36-7.5-7.5-7.5S902.75,1002.76,902.75,1006.9z M837.79,1044.4c0,4.14,3.36,7.5,7.5,7.5s7.5-3.36,7.5-7.5s-3.36-7.5-7.5-7.5
		S837.79,1040.26,837.79,1044.4z M772.84,1006.9c0,4.14,3.36,7.5,7.5,7.5s7.5-3.36,7.5-7.5s-3.36-7.5-7.5-7.5
		S772.84,1002.76,772.84,1006.9z M772.84,931.9c0,4.14,3.36,7.5,7.5,7.5s7.5-3.36,7.5-7.5l0,0c0-4.14-3.36-7.5-7.5-7.5
		S772.84,927.76,772.84,931.9L772.84,931.9z M1032.66,106.9c0,4.14,3.36,7.5,7.5,7.5s7.5-3.36,7.5-7.5s-3.36-7.5-7.5-7.5
		S1032.66,102.76,1032.66,106.9z M1097.61,144.4c0,4.14,3.36,7.5,7.5,7.5s7.5-3.36,7.5-7.5s-3.36-7.5-7.5-7.5
		S1097.61,140.26,1097.61,144.4z M1097.61,219.4c0,4.14,3.36,7.5,7.5,7.5s7.5-3.36,7.5-7.5s-3.36-7.5-7.5-7.5
		S1097.61,215.26,1097.61,219.4z M1032.66,256.9c0,4.14,3.36,7.5,7.5,7.5s7.5-3.36,7.5-7.5c0-4.14-3.36-7.5-7.5-7.5
		S1032.66,252.76,1032.66,256.9z M1032.66,331.9c0,4.14,3.36,7.5,7.5,7.5s7.5-3.36,7.5-7.5l0,0c0-4.14-3.36-7.5-7.5-7.5
		S1032.66,327.76,1032.66,331.9L1032.66,331.9z M1032.66,556.9c0,4.14,3.36,7.5,7.5,7.5s7.5-3.36,7.5-7.5s-3.36-7.5-7.5-7.5
		S1032.66,552.76,1032.66,556.9z M1097.61,594.4c0,4.14,3.36,7.5,7.5,7.5s7.5-3.36,7.5-7.5s-3.36-7.5-7.5-7.5
		S1097.61,590.26,1097.61,594.4z M1097.61,669.4c0,4.14,3.36,7.5,7.5,7.5s7.5-3.36,7.5-7.5s-3.36-7.5-7.5-7.5
		S1097.61,665.26,1097.61,669.4z M1032.66,706.9c0,4.14,3.36,7.5,7.5,7.5s7.5-3.36,7.5-7.5s-3.36-7.5-7.5-7.5
		S1032.66,702.76,1032.66,706.9z M1032.66,781.9c0,4.14,3.36,7.5,7.5,7.5s7.5-3.36,7.5-7.5s-3.36-7.5-7.5-7.5
		S1032.66,777.76,1032.66,781.9z M1097.61,819.4c0,4.14,3.36,7.5,7.5,7.5s7.5-3.36,7.5-7.5l0,0c0-4.14-3.36-7.5-7.5-7.5
		S1097.61,815.26,1097.61,819.4L1097.61,819.4z M1097.61,894.4c0,4.14,3.36,7.5,7.5,7.5s7.5-3.36,7.5-7.5s-3.36-7.5-7.5-7.5
		S1097.61,890.26,1097.61,894.4z M1032.66,931.9c0,4.14,3.36,7.5,7.5,7.5s7.5-3.36,7.5-7.5l0,0c0-4.14-3.36-7.5-7.5-7.5
		S1032.66,927.76,1032.66,931.9L1032.66,931.9z M967.7,894.4c0,4.14,3.36,7.5,7.5,7.5s7.5-3.36,7.5-7.5s-3.36-7.5-7.5-7.5
		S967.7,890.26,967.7,894.4z M967.7,819.4c0,4.14,3.36,7.5,7.5,7.5s7.5-3.36,7.5-7.5l0,0c0-4.14-3.36-7.5-7.5-7.5
		S967.7,815.26,967.7,819.4L967.7,819.4z M1032.66,1006.9c0,4.14,3.36,7.5,7.5,7.5s7.5-3.36,7.5-7.5s-3.36-7.5-7.5-7.5
		S1032.66,1002.76,1032.66,1006.9z M967.7,1044.4c0,4.14,3.36,7.5,7.5,7.5s7.5-3.36,7.5-7.5s-3.36-7.5-7.5-7.5
		S967.7,1040.26,967.7,1044.4z M1097.61-5.6c0,4.14,3.36,7.5,7.5,7.5s7.5-3.36,7.5-7.5l0,0c0-4.14-3.36-7.5-7.5-7.5
		S1097.61-9.74,1097.61-5.6L1097.61-5.6z M1162.56,31.9c0,4.14,3.36,7.5,7.5,7.5s7.5-3.36,7.5-7.5s-3.36-7.5-7.5-7.5
		S1162.56,27.76,1162.56,31.9L1162.56,31.9z M1162.56,106.9c0,4.14,3.36,7.5,7.5,7.5s7.5-3.36,7.5-7.5s-3.36-7.5-7.5-7.5
		S1162.56,102.76,1162.56,106.9z M1032.66,31.9c0,4.14,3.36,7.5,7.5,7.5s7.5-3.36,7.5-7.5s-3.36-7.5-7.5-7.5
		S1032.66,27.76,1032.66,31.9L1032.66,31.9z M1227.52,144.4c0,4.14,3.36,7.5,7.5,7.5s7.5-3.36,7.5-7.5s-3.36-7.5-7.5-7.5
		S1227.52,140.26,1227.52,144.4z M1227.52,219.4c0,4.14,3.36,7.5,7.5,7.5s7.5-3.36,7.5-7.5s-3.36-7.5-7.5-7.5
		S1227.52,215.26,1227.52,219.4z M1162.56,256.9c0,4.14,3.36,7.5,7.5,7.5s7.5-3.36,7.5-7.5c0-4.14-3.36-7.5-7.5-7.5
		S1162.56,252.76,1162.56,256.9z M1162.56,331.9c0,4.14,3.36,7.5,7.5,7.5s7.5-3.36,7.5-7.5l0,0c0-4.14-3.36-7.5-7.5-7.5
		S1162.56,327.76,1162.56,331.9L1162.56,331.9z M1097.61,369.4c0,4.14,3.36,7.5,7.5,7.5s7.5-3.36,7.5-7.5s-3.36-7.5-7.5-7.5
		S1097.61,365.26,1097.61,369.4z M1097.61,444.4c0,4.14,3.36,7.5,7.5,7.5s7.5-3.36,7.5-7.5s-3.36-7.5-7.5-7.5
		S1097.61,440.26,1097.61,444.4z M1162.56,481.9c0,4.14,3.36,7.5,7.5,7.5s7.5-3.36,7.5-7.5l0,0c0-4.14-3.36-7.5-7.5-7.5
		S1162.56,477.76,1162.56,481.9z M1162.56,556.9c0,4.14,3.36,7.5,7.5,7.5s7.5-3.36,7.5-7.5s-3.36-7.5-7.5-7.5
		S1162.56,552.76,1162.56,556.9z M1032.66,481.9c0,4.14,3.36,7.5,7.5,7.5s7.5-3.36,7.5-7.5l0,0c0-4.14-3.36-7.5-7.5-7.5
		S1032.66,477.76,1032.66,481.9z M1227.52,594.4c0,4.14,3.36,7.5,7.5,7.5s7.5-3.36,7.5-7.5s-3.36-7.5-7.5-7.5
		S1227.52,590.26,1227.52,594.4z M1227.52,669.4c0,4.14,3.36,7.5,7.5,7.5s7.5-3.36,7.5-7.5s-3.36-7.5-7.5-7.5
		S1227.52,665.26,1227.52,669.4z M1162.56,706.9c0,4.14,3.36,7.5,7.5,7.5s7.5-3.36,7.5-7.5s-3.36-7.5-7.5-7.5
		S1162.56,702.76,1162.56,706.9z M1162.56,931.9c0,4.14,3.36,7.5,7.5,7.5s7.5-3.36,7.5-7.5l0,0c0-4.14-3.36-7.5-7.5-7.5
		S1162.56,927.76,1162.56,931.9L1162.56,931.9z M1162.56,1006.9c0,4.14,3.36,7.5,7.5,7.5s7.5-3.36,7.5-7.5s-3.36-7.5-7.5-7.5
		S1162.56,1002.76,1162.56,1006.9z M1097.61,1044.4c0,4.14,3.36,7.5,7.5,7.5s7.5-3.36,7.5-7.5s-3.36-7.5-7.5-7.5
		S1097.61,1040.26,1097.61,1044.4z M1097.61,1119.4c0,4.14,3.36,7.5,7.5,7.5s7.5-3.36,7.5-7.5s-3.36-7.5-7.5-7.5
		S1097.61,1115.26,1097.61,1119.4z M1162.56,1156.9c0,4.14,3.36,7.5,7.5,7.5s7.5-3.36,7.5-7.5l0,0c0-4.14-3.36-7.5-7.5-7.5
		S1162.56,1152.76,1162.56,1156.9L1162.56,1156.9z M1162.56,1231.9c0,4.14,3.36,7.5,7.5,7.5s7.5-3.36,7.5-7.5s-3.36-7.5-7.5-7.5
		S1162.56,1227.76,1162.56,1231.9z M1097.61,1269.4c0,4.14,3.36,7.5,7.5,7.5s7.5-3.36,7.5-7.5s-3.36-7.5-7.5-7.5
		S1097.61,1265.26,1097.61,1269.4z M1032.66,1231.9c0,4.14,3.36,7.5,7.5,7.5s7.5-3.36,7.5-7.5s-3.36-7.5-7.5-7.5
		S1032.66,1227.76,1032.66,1231.9z M1032.66,1156.9c0,4.14,3.36,7.5,7.5,7.5s7.5-3.36,7.5-7.5l0,0c0-4.14-3.36-7.5-7.5-7.5
		S1032.66,1152.76,1032.66,1156.9L1032.66,1156.9z M1227.52-5.6c0,4.14,3.36,7.5,7.5,7.5s7.5-3.36,7.5-7.5l0,0
		c0-4.14-3.36-7.5-7.5-7.5S1227.52-9.74,1227.52-5.6L1227.52-5.6z M1292.47,31.9c0,4.14,3.36,7.5,7.5,7.5s7.5-3.36,7.5-7.5
		s-3.36-7.5-7.5-7.5S1292.47,27.76,1292.47,31.9L1292.47,31.9z M1292.47,106.9c0,4.14,3.36,7.5,7.5,7.5s7.5-3.36,7.5-7.5
		s-3.36-7.5-7.5-7.5S1292.47,102.76,1292.47,106.9z M1357.42,144.4c0,4.14,3.36,7.5,7.5,7.5s7.5-3.36,7.5-7.5s-3.36-7.5-7.5-7.5
		S1357.42,140.26,1357.42,144.4z M1357.42,219.4c0,4.14,3.36,7.5,7.5,7.5s7.5-3.36,7.5-7.5s-3.36-7.5-7.5-7.5
		S1357.42,215.26,1357.42,219.4z M1292.47,256.9c0,4.14,3.36,7.5,7.5,7.5s7.5-3.36,7.5-7.5c0-4.14-3.36-7.5-7.5-7.5
		S1292.47,252.76,1292.47,256.9z M1292.47,556.9c0,4.14,3.36,7.5,7.5,7.5s7.5-3.36,7.5-7.5s-3.36-7.5-7.5-7.5
		S1292.47,552.76,1292.47,556.9z M1357.42,594.4c0,4.14,3.36,7.5,7.5,7.5s7.5-3.36,7.5-7.5s-3.36-7.5-7.5-7.5
		S1357.42,590.26,1357.42,594.4z M1357.42,669.4c0,4.14,3.36,7.5,7.5,7.5s7.5-3.36,7.5-7.5s-3.36-7.5-7.5-7.5
		S1357.42,665.26,1357.42,669.4z M1292.47,706.9c0,4.14,3.36,7.5,7.5,7.5s7.5-3.36,7.5-7.5s-3.36-7.5-7.5-7.5
		S1292.47,702.76,1292.47,706.9z M1227.52,894.4c0,4.14,3.36,7.5,7.5,7.5s7.5-3.36,7.5-7.5s-3.36-7.5-7.5-7.5
		S1227.52,890.26,1227.52,894.4z M1292.47,931.9c0,4.14,3.36,7.5,7.5,7.5s7.5-3.36,7.5-7.5l0,0c0-4.14-3.36-7.5-7.5-7.5
		S1292.47,927.76,1292.47,931.9L1292.47,931.9z M1292.47,1006.9c0,4.14,3.36,7.5,7.5,7.5s7.5-3.36,7.5-7.5s-3.36-7.5-7.5-7.5
		S1292.47,1002.76,1292.47,1006.9z M1227.52,1044.4c0,4.14,3.36,7.5,7.5,7.5s7.5-3.36,7.5-7.5s-3.36-7.5-7.5-7.5
		S1227.52,1040.26,1227.52,1044.4z M1357.42,1044.4c0,4.14,3.36,7.5,7.5,7.5s7.5-3.36,7.5-7.5s-3.36-7.5-7.5-7.5
		S1357.42,1040.26,1357.42,1044.4z M1357.42,1119.4c0,4.14,3.36,7.5,7.5,7.5s7.5-3.36,7.5-7.5s-3.36-7.5-7.5-7.5
		S1357.42,1115.26,1357.42,1119.4z M1292.47,1156.9c0,4.14,3.36,7.5,7.5,7.5s7.5-3.36,7.5-7.5l0,0c0-4.14-3.36-7.5-7.5-7.5
		S1292.47,1152.76,1292.47,1156.9L1292.47,1156.9z M1227.52,1119.4c0,4.14,3.36,7.5,7.5,7.5s7.5-3.36,7.5-7.5s-3.36-7.5-7.5-7.5
		S1227.52,1115.26,1227.52,1119.4z M1292.47,1231.9c0,4.14,3.36,7.5,7.5,7.5s7.5-3.36,7.5-7.5s-3.36-7.5-7.5-7.5
		S1292.47,1227.76,1292.47,1231.9z M1227.52,1269.4c0,4.14,3.36,7.5,7.5,7.5s7.5-3.36,7.5-7.5s-3.36-7.5-7.5-7.5
		S1227.52,1265.26,1227.52,1269.4z M1422.38,106.9c0,4.14,3.36,7.5,7.5,7.5s7.5-3.36,7.5-7.5s-3.36-7.5-7.5-7.5
		S1422.38,102.76,1422.38,106.9z M1487.33,144.4c0,4.14,3.36,7.5,7.5,7.5s7.5-3.36,7.5-7.5s-3.36-7.5-7.5-7.5
		S1487.33,140.26,1487.33,144.4z M1487.33,219.4c0,4.14,3.36,7.5,7.5,7.5s7.5-3.36,7.5-7.5s-3.36-7.5-7.5-7.5
		S1487.33,215.26,1487.33,219.4z M1422.38,256.9c0,4.14,3.36,7.5,7.5,7.5s7.5-3.36,7.5-7.5c0-4.14-3.36-7.5-7.5-7.5
		S1422.38,252.76,1422.38,256.9z M1422.38,331.9c0,4.14,3.36,7.5,7.5,7.5s7.5-3.36,7.5-7.5l0,0c0-4.14-3.36-7.5-7.5-7.5
		S1422.38,327.76,1422.38,331.9L1422.38,331.9z M1357.42,369.4c0,4.14,3.36,7.5,7.5,7.5s7.5-3.36,7.5-7.5s-3.36-7.5-7.5-7.5
		S1357.42,365.26,1357.42,369.4z M1292.47,331.9c0,4.14,3.36,7.5,7.5,7.5s7.5-3.36,7.5-7.5l0,0c0-4.14-3.36-7.5-7.5-7.5
		S1292.47,327.76,1292.47,331.9L1292.47,331.9z M1487.33,369.4c0,4.14,3.36,7.5,7.5,7.5s7.5-3.36,7.5-7.5s-3.36-7.5-7.5-7.5
		S1487.33,365.26,1487.33,369.4z M1487.33,444.4c0,4.14,3.36,7.5,7.5,7.5s7.5-3.36,7.5-7.5s-3.36-7.5-7.5-7.5
		S1487.33,440.26,1487.33,444.4z M1422.38,481.9c0,4.14,3.36,7.5,7.5,7.5s7.5-3.36,7.5-7.5l0,0c0-4.14-3.36-7.5-7.5-7.5
		S1422.38,477.76,1422.38,481.9z M1357.42,444.4c0,4.14,3.36,7.5,7.5,7.5s7.5-3.36,7.5-7.5s-3.36-7.5-7.5-7.5
		S1357.42,440.26,1357.42,444.4z M1357.42,894.4c0,4.14,3.36,7.5,7.5,7.5s7.5-3.36,7.5-7.5s-3.36-7.5-7.5-7.5
		S1357.42,890.26,1357.42,894.4z M1422.38,931.9c0,4.14,3.36,7.5,7.5,7.5s7.5-3.36,7.5-7.5l0,0c0-4.14-3.36-7.5-7.5-7.5
		S1422.38,927.76,1422.38,931.9L1422.38,931.9z M1422.38,1006.9c0,4.14,3.36,7.5,7.5,7.5s7.5-3.36,7.5-7.5s-3.36-7.5-7.5-7.5
		S1422.38,1002.76,1422.38,1006.9z M1487.33-5.6c0,4.14,3.36,7.5,7.5,7.5s7.5-3.36,7.5-7.5l0,0c0-4.14-3.36-7.5-7.5-7.5
		S1487.33-9.74,1487.33-5.6L1487.33-5.6z M1552.29,31.9c0,4.14,3.36,7.5,7.5,7.5s7.5-3.36,7.5-7.5s-3.36-7.5-7.5-7.5
		S1552.29,27.76,1552.29,31.9L1552.29,31.9z M1552.29,106.9c0,4.14,3.36,7.5,7.5,7.5s7.5-3.36,7.5-7.5s-3.36-7.5-7.5-7.5
		S1552.29,102.76,1552.29,106.9z M1422.38,31.9c0,4.14,3.36,7.5,7.5,7.5s7.5-3.36,7.5-7.5s-3.36-7.5-7.5-7.5
		S1422.38,27.76,1422.38,31.9L1422.38,31.9z M1552.29,256.9c0,4.14,3.36,7.5,7.5,7.5s7.5-3.36,7.5-7.5c0-4.14-3.36-7.5-7.5-7.5
		S1552.29,252.76,1552.29,256.9z M1552.29,331.9c0,4.14,3.36,7.5,7.5,7.5s7.5-3.36,7.5-7.5l0,0c0-4.14-3.36-7.5-7.5-7.5
		S1552.29,327.76,1552.29,331.9L1552.29,331.9z M1617.24,369.4c0,4.14,3.36,7.5,7.5,7.5s7.5-3.36,7.5-7.5s-3.36-7.5-7.5-7.5
		S1617.24,365.26,1617.24,369.4z M1617.24,444.4c0,4.14,3.36,7.5,7.5,7.5s7.5-3.36,7.5-7.5s-3.36-7.5-7.5-7.5
		S1617.24,440.26,1617.24,444.4z M1552.29,481.9c0,4.14,3.36,7.5,7.5,7.5s7.5-3.36,7.5-7.5l0,0c0-4.14-3.36-7.5-7.5-7.5
		S1552.29,477.76,1552.29,481.9z M1552.29,556.9c0,4.14,3.36,7.5,7.5,7.5s7.5-3.36,7.5-7.5s-3.36-7.5-7.5-7.5
		S1552.29,552.76,1552.29,556.9z M1487.33,594.4c0,4.14,3.36,7.5,7.5,7.5s7.5-3.36,7.5-7.5s-3.36-7.5-7.5-7.5
		S1487.33,590.26,1487.33,594.4z M1422.38,556.9c0,4.14,3.36,7.5,7.5,7.5s7.5-3.36,7.5-7.5s-3.36-7.5-7.5-7.5
		S1422.38,552.76,1422.38,556.9z M1487.33,669.4c0,4.14,3.36,7.5,7.5,7.5s7.5-3.36,7.5-7.5s-3.36-7.5-7.5-7.5
		S1487.33,665.26,1487.33,669.4z M1552.29,706.9c0,4.14,3.36,7.5,7.5,7.5s7.5-3.36,7.5-7.5s-3.36-7.5-7.5-7.5
		S1552.29,702.76,1552.29,706.9z M1552.29,781.9c0,4.14,3.36,7.5,7.5,7.5s7.5-3.36,7.5-7.5s-3.36-7.5-7.5-7.5
		S1552.29,777.76,1552.29,781.9z M1487.33,819.4c0,4.14,3.36,7.5,7.5,7.5s7.5-3.36,7.5-7.5l0,0c0-4.14-3.36-7.5-7.5-7.5
		S1487.33,815.26,1487.33,819.4L1487.33,819.4z M1422.38,781.9c0,4.14,3.36,7.5,7.5,7.5s7.5-3.36,7.5-7.5s-3.36-7.5-7.5-7.5
		S1422.38,777.76,1422.38,781.9z M1422.38,706.9c0,4.14,3.36,7.5,7.5,7.5s7.5-3.36,7.5-7.5s-3.36-7.5-7.5-7.5
		S1422.38,702.76,1422.38,706.9z M1487.33,894.4c0,4.14,3.36,7.5,7.5,7.5s7.5-3.36,7.5-7.5s-3.36-7.5-7.5-7.5
		S1487.33,890.26,1487.33,894.4z M1552.29,931.9c0,4.14,3.36,7.5,7.5,7.5s7.5-3.36,7.5-7.5l0,0c0-4.14-3.36-7.5-7.5-7.5
		S1552.29,927.76,1552.29,931.9L1552.29,931.9z M1552.29,1006.9c0,4.14,3.36,7.5,7.5,7.5s7.5-3.36,7.5-7.5s-3.36-7.5-7.5-7.5
		S1552.29,1002.76,1552.29,1006.9z M1487.33,1044.4c0,4.14,3.36,7.5,7.5,7.5s7.5-3.36,7.5-7.5s-3.36-7.5-7.5-7.5
		S1487.33,1040.26,1487.33,1044.4z M1617.24,1044.4c0,4.14,3.36,7.5,7.5,7.5s7.5-3.36,7.5-7.5s-3.36-7.5-7.5-7.5
		S1617.24,1040.26,1617.24,1044.4z M1617.24,1119.4c0,4.14,3.36,7.5,7.5,7.5s7.5-3.36,7.5-7.5s-3.36-7.5-7.5-7.5
		S1617.24,1115.26,1617.24,1119.4z M1552.29,1156.9c0,4.14,3.36,7.5,7.5,7.5s7.5-3.36,7.5-7.5l0,0c0-4.14-3.36-7.5-7.5-7.5
		S1552.29,1152.76,1552.29,1156.9L1552.29,1156.9z M1487.33,1119.4c0,4.14,3.36,7.5,7.5,7.5s7.5-3.36,7.5-7.5s-3.36-7.5-7.5-7.5
		S1487.33,1115.26,1487.33,1119.4z M1682.19,106.9c0,4.14,3.36,7.5,7.5,7.5s7.5-3.36,7.5-7.5s-3.36-7.5-7.5-7.5
		S1682.19,102.76,1682.19,106.9z M1747.15,144.4c0,4.14,3.36,7.5,7.5,7.5s7.5-3.36,7.5-7.5s-3.36-7.5-7.5-7.5
		S1747.15,140.26,1747.15,144.4z M1747.15,219.4c0,4.14,3.36,7.5,7.5,7.5s7.5-3.36,7.5-7.5s-3.36-7.5-7.5-7.5
		S1747.15,215.26,1747.15,219.4z M1682.19,256.9c0,4.14,3.36,7.5,7.5,7.5s7.5-3.36,7.5-7.5c0-4.14-3.36-7.5-7.5-7.5
		S1682.19,252.76,1682.19,256.9z M1617.24,219.4c0,4.14,3.36,7.5,7.5,7.5s7.5-3.36,7.5-7.5s-3.36-7.5-7.5-7.5
		S1617.24,215.26,1617.24,219.4z M1617.24,144.4c0,4.14,3.36,7.5,7.5,7.5s7.5-3.36,7.5-7.5s-3.36-7.5-7.5-7.5
		S1617.24,140.26,1617.24,144.4z M1682.19,331.9c0,4.14,3.36,7.5,7.5,7.5s7.5-3.36,7.5-7.5l0,0c0-4.14-3.36-7.5-7.5-7.5
		S1682.19,327.76,1682.19,331.9L1682.19,331.9z M1747.15,369.4c0,4.14,3.36,7.5,7.5,7.5s7.5-3.36,7.5-7.5s-3.36-7.5-7.5-7.5
		S1747.15,365.26,1747.15,369.4z M1747.15,444.4c0,4.14,3.36,7.5,7.5,7.5s7.5-3.36,7.5-7.5s-3.36-7.5-7.5-7.5
		S1747.15,440.26,1747.15,444.4z M1682.19,481.9c0,4.14,3.36,7.5,7.5,7.5s7.5-3.36,7.5-7.5l0,0c0-4.14-3.36-7.5-7.5-7.5
		S1682.19,477.76,1682.19,481.9z M1682.19,556.9c0,4.14,3.36,7.5,7.5,7.5s7.5-3.36,7.5-7.5s-3.36-7.5-7.5-7.5
		S1682.19,552.76,1682.19,556.9z M1617.24,594.4c0,4.14,3.36,7.5,7.5,7.5s7.5-3.36,7.5-7.5s-3.36-7.5-7.5-7.5
		S1617.24,590.26,1617.24,594.4z M1747.15,594.4c0,4.14,3.36,7.5,7.5,7.5s7.5-3.36,7.5-7.5s-3.36-7.5-7.5-7.5
		S1747.15,590.26,1747.15,594.4z M1747.15,669.4c0,4.14,3.36,7.5,7.5,7.5s7.5-3.36,7.5-7.5s-3.36-7.5-7.5-7.5
		S1747.15,665.26,1747.15,669.4z M1682.19,706.9c0,4.14,3.36,7.5,7.5,7.5s7.5-3.36,7.5-7.5s-3.36-7.5-7.5-7.5
		S1682.19,702.76,1682.19,706.9z M1617.24,669.4c0,4.14,3.36,7.5,7.5,7.5s7.5-3.36,7.5-7.5s-3.36-7.5-7.5-7.5
		S1617.24,665.26,1617.24,669.4z M1682.19,781.9c0,4.14,3.36,7.5,7.5,7.5s7.5-3.36,7.5-7.5s-3.36-7.5-7.5-7.5
		S1682.19,777.76,1682.19,781.9z M1747.15,819.4c0,4.14,3.36,7.5,7.5,7.5s7.5-3.36,7.5-7.5l0,0c0-4.14-3.36-7.5-7.5-7.5
		S1747.15,815.26,1747.15,819.4L1747.15,819.4z M1747.15,894.4c0,4.14,3.36,7.5,7.5,7.5s7.5-3.36,7.5-7.5s-3.36-7.5-7.5-7.5
		S1747.15,890.26,1747.15,894.4z M1682.19,931.9c0,4.14,3.36,7.5,7.5,7.5s7.5-3.36,7.5-7.5l0,0c0-4.14-3.36-7.5-7.5-7.5
		S1682.19,927.76,1682.19,931.9L1682.19,931.9z M1617.24,894.4c0,4.14,3.36,7.5,7.5,7.5s7.5-3.36,7.5-7.5s-3.36-7.5-7.5-7.5
		S1617.24,890.26,1617.24,894.4z M1617.24,819.4c0,4.14,3.36,7.5,7.5,7.5s7.5-3.36,7.5-7.5l0,0c0-4.14-3.36-7.5-7.5-7.5
		S1617.24,815.26,1617.24,819.4L1617.24,819.4z M1682.19,1006.9c0,4.14,3.36,7.5,7.5,7.5s7.5-3.36,7.5-7.5s-3.36-7.5-7.5-7.5
		S1682.19,1002.76,1682.19,1006.9z M1747.15,1044.4c0,4.14,3.36,7.5,7.5,7.5s7.5-3.36,7.5-7.5s-3.36-7.5-7.5-7.5
		S1747.15,1040.26,1747.15,1044.4z M1747.15,1119.4c0,4.14,3.36,7.5,7.5,7.5s7.5-3.36,7.5-7.5s-3.36-7.5-7.5-7.5
		S1747.15,1115.26,1747.15,1119.4z M1682.19,1156.9c0,4.14,3.36,7.5,7.5,7.5s7.5-3.36,7.5-7.5l0,0c0-4.14-3.36-7.5-7.5-7.5
		S1682.19,1152.76,1682.19,1156.9L1682.19,1156.9z M1682.19,1231.9c0,4.14,3.36,7.5,7.5,7.5s7.5-3.36,7.5-7.5s-3.36-7.5-7.5-7.5
		S1682.19,1227.76,1682.19,1231.9z M1617.24,1269.4c0,4.14,3.36,7.5,7.5,7.5s7.5-3.36,7.5-7.5s-3.36-7.5-7.5-7.5
		S1617.24,1265.26,1617.24,1269.4z M1552.29,1231.9c0,4.14,3.36,7.5,7.5,7.5s7.5-3.36,7.5-7.5s-3.36-7.5-7.5-7.5
		S1552.29,1227.76,1552.29,1231.9z M1812.1,106.9c0,4.14,3.36,7.5,7.5,7.5s7.5-3.36,7.5-7.5s-3.36-7.5-7.5-7.5
		S1812.1,102.76,1812.1,106.9z M1877.05,144.4c0,4.14,3.36,7.5,7.5,7.5s7.5-3.36,7.5-7.5s-3.36-7.5-7.5-7.5
		S1877.05,140.26,1877.05,144.4z M1877.05,219.4c0,4.14,3.36,7.5,7.5,7.5s7.5-3.36,7.5-7.5s-3.36-7.5-7.5-7.5
		S1877.05,215.26,1877.05,219.4z M1812.1,256.9c0,4.14,3.36,7.5,7.5,7.5s7.5-3.36,7.5-7.5c0-4.14-3.36-7.5-7.5-7.5
		S1812.1,252.76,1812.1,256.9z M1812.1,331.9c0,4.14,3.36,7.5,7.5,7.5s7.5-3.36,7.5-7.5l0,0c0-4.14-3.36-7.5-7.5-7.5
		S1812.1,327.76,1812.1,331.9L1812.1,331.9z M1877.05,369.4c0,4.14,3.36,7.5,7.5,7.5s7.5-3.36,7.5-7.5s-3.36-7.5-7.5-7.5
		S1877.05,365.26,1877.05,369.4z M1877.05,444.4c0,4.14,3.36,7.5,7.5,7.5s7.5-3.36,7.5-7.5s-3.36-7.5-7.5-7.5
		S1877.05,440.26,1877.05,444.4z M1812.1,481.9c0,4.14,3.36,7.5,7.5,7.5s7.5-3.36,7.5-7.5l0,0c0-4.14-3.36-7.5-7.5-7.5
		S1812.1,477.76,1812.1,481.9z M1812.1,556.9c0,4.14,3.36,7.5,7.5,7.5s7.5-3.36,7.5-7.5s-3.36-7.5-7.5-7.5
		S1812.1,552.76,1812.1,556.9z M1877.05,594.4c0,4.14,3.36,7.5,7.5,7.5s7.5-3.36,7.5-7.5s-3.36-7.5-7.5-7.5
		S1877.05,590.26,1877.05,594.4z M1877.05,669.4c0,4.14,3.36,7.5,7.5,7.5s7.5-3.36,7.5-7.5s-3.36-7.5-7.5-7.5
		S1877.05,665.26,1877.05,669.4z M1812.1,706.9c0,4.14,3.36,7.5,7.5,7.5s7.5-3.36,7.5-7.5s-3.36-7.5-7.5-7.5
		S1812.1,702.76,1812.1,706.9z M1812.1,781.9c0,4.14,3.36,7.5,7.5,7.5s7.5-3.36,7.5-7.5s-3.36-7.5-7.5-7.5
		S1812.1,777.76,1812.1,781.9z M1877.05,819.4c0,4.14,3.36,7.5,7.5,7.5s7.5-3.36,7.5-7.5l0,0c0-4.14-3.36-7.5-7.5-7.5
		S1877.05,815.26,1877.05,819.4L1877.05,819.4z M1877.05,894.4c0,4.14,3.36,7.5,7.5,7.5s7.5-3.36,7.5-7.5s-3.36-7.5-7.5-7.5
		S1877.05,890.26,1877.05,894.4z M1812.1,931.9c0,4.14,3.36,7.5,7.5,7.5s7.5-3.36,7.5-7.5l0,0c0-4.14-3.36-7.5-7.5-7.5
		S1812.1,927.76,1812.1,931.9L1812.1,931.9z M1812.1,1006.9c0,4.14,3.36,7.5,7.5,7.5s7.5-3.36,7.5-7.5s-3.36-7.5-7.5-7.5
		S1812.1,1002.76,1812.1,1006.9z M1877.05,1044.4c0,4.14,3.36,7.5,7.5,7.5s7.5-3.36,7.5-7.5s-3.36-7.5-7.5-7.5
		S1877.05,1040.26,1877.05,1044.4z M1877.05,1119.4c0,4.14,3.36,7.5,7.5,7.5s7.5-3.36,7.5-7.5s-3.36-7.5-7.5-7.5
		S1877.05,1115.26,1877.05,1119.4z M1812.1,1156.9c0,4.14,3.36,7.5,7.5,7.5s7.5-3.36,7.5-7.5l0,0c0-4.14-3.36-7.5-7.5-7.5
		S1812.1,1152.76,1812.1,1156.9L1812.1,1156.9z M1942.01,331.9c0,4.14,3.36,7.5,7.5,7.5s7.5-3.36,7.5-7.5l0,0
		c0-4.14-3.36-7.5-7.5-7.5S1942.01,327.76,1942.01,331.9L1942.01,331.9z M2006.96,369.4c0,4.14,3.36,7.5,7.5,7.5s7.5-3.36,7.5-7.5
		s-3.36-7.5-7.5-7.5S2006.96,365.26,2006.96,369.4z M2006.96,444.4c0,4.14,3.36,7.5,7.5,7.5s7.5-3.36,7.5-7.5s-3.36-7.5-7.5-7.5
		S2006.96,440.26,2006.96,444.4z M1942.01,481.9c0,4.14,3.36,7.5,7.5,7.5s7.5-3.36,7.5-7.5l0,0c0-4.14-3.36-7.5-7.5-7.5
		S1942.01,477.76,1942.01,481.9z M1942.01,556.9c0,4.14,3.36,7.5,7.5,7.5s7.5-3.36,7.5-7.5s-3.36-7.5-7.5-7.5
		S1942.01,552.76,1942.01,556.9z M2006.96,594.4c0,4.14,3.36,7.5,7.5,7.5s7.5-3.36,7.5-7.5s-3.36-7.5-7.5-7.5
		S2006.96,590.26,2006.96,594.4z M2006.96,669.4c0,4.14,3.36,7.5,7.5,7.5s7.5-3.36,7.5-7.5s-3.36-7.5-7.5-7.5
		S2006.96,665.26,2006.96,669.4z M1942.01,706.9c0,4.14,3.36,7.5,7.5,7.5s7.5-3.36,7.5-7.5s-3.36-7.5-7.5-7.5
		S1942.01,702.76,1942.01,706.9z M1942.01,781.9c0,4.14,3.36,7.5,7.5,7.5s7.5-3.36,7.5-7.5s-3.36-7.5-7.5-7.5
		S1942.01,777.76,1942.01,781.9z M2006.96,819.4c0,4.14,3.36,7.5,7.5,7.5s7.5-3.36,7.5-7.5l0,0c0-4.14-3.36-7.5-7.5-7.5
		S2006.96,815.26,2006.96,819.4L2006.96,819.4z M2006.96,894.4c0,4.14,3.36,7.5,7.5,7.5s7.5-3.36,7.5-7.5s-3.36-7.5-7.5-7.5
		S2006.96,890.26,2006.96,894.4z M1942.01,931.9c0,4.14,3.36,7.5,7.5,7.5s7.5-3.36,7.5-7.5l0,0c0-4.14-3.36-7.5-7.5-7.5
		S1942.01,927.76,1942.01,931.9L1942.01,931.9z M1942.01,1006.9c0,4.14,3.36,7.5,7.5,7.5s7.5-3.36,7.5-7.5s-3.36-7.5-7.5-7.5
		S1942.01,1002.76,1942.01,1006.9z M2006.96,1044.4c0,4.14,3.36,7.5,7.5,7.5s7.5-3.36,7.5-7.5s-3.36-7.5-7.5-7.5
		S2006.96,1040.26,2006.96,1044.4z M2006.96,1119.4c0,4.14,3.36,7.5,7.5,7.5s7.5-3.36,7.5-7.5s-3.36-7.5-7.5-7.5
		S2006.96,1115.26,2006.96,1119.4z M1942.01,1156.9c0,4.14,3.36,7.5,7.5,7.5s7.5-3.36,7.5-7.5l0,0c0-4.14-3.36-7.5-7.5-7.5
		S1942.01,1152.76,1942.01,1156.9L1942.01,1156.9z M1942.01,1231.9c0,4.14,3.36,7.5,7.5,7.5s7.5-3.36,7.5-7.5s-3.36-7.5-7.5-7.5
		S1942.01,1227.76,1942.01,1231.9z M1877.05,1269.4c0,4.14,3.36,7.5,7.5,7.5s7.5-3.36,7.5-7.5s-3.36-7.5-7.5-7.5
		S1877.05,1265.26,1877.05,1269.4z M1812.1,1231.9c0,4.14,3.36,7.5,7.5,7.5s7.5-3.36,7.5-7.5s-3.36-7.5-7.5-7.5
		S1812.1,1227.76,1812.1,1231.9z"/>
	<path style="fill:none;" d="M61.39,222.44l43.31,25v50l-43.31,25l-43.3-25v-50L61.39,222.44z M61.39,522.44l43.31,25v50l-43.31,25
		l-43.3-25v-50L61.39,522.44z M18.09,597.44l43.3,25v50l-43.3,25l-43.3-25v-50L18.09,597.44z M18.09,897.44l43.3,25v50l-43.3,25
		l-43.3-25v-50L18.09,897.44z M104.7-2.56l43.3,25v50l-43.3,25l-43.31-25v-50L104.7-2.56z M148,72.44l43.3,25v50l-43.3,25l-43.3-25
		v-50L148,72.44z M104.7,447.44l43.3,25v50l-43.3,25l-43.31-25v-50L104.7,447.44z M148,672.44l43.3,25v50l-43.3,25l-43.3-25v-50
		L148,672.44z M104.7,747.44l43.3,25v50l-43.3,25l-43.31-25v-50L104.7,747.44z M191.3,597.44l43.3,25v50l-43.3,25l-43.3-25v-50
		L191.3,597.44z M234.6,822.44l43.3,25v50l-43.3,25l-43.3-25v-50L234.6,822.44z M191.3,1047.44l43.3,25v50l-43.3,25l-43.3-25v-50
		L191.3,1047.44z M277.9-2.56l43.31,25v50l-43.31,25l-43.3-25v-50L277.9-2.56z M321.21,222.44l43.3,25v50l-43.3,25l-43.31-25v-50
		L321.21,222.44z M321.21,522.44l43.3,25v50l-43.3,25l-43.31-25v-50L321.21,522.44z M277.9,597.44l43.31,25v50l-43.31,25l-43.3-25
		v-50L277.9,597.44z M364.51,147.44l43.3,25v50l-43.3,25l-43.3-25v-50L364.51,147.44z M407.81,372.44l43.31,25v50l-43.31,25
		l-43.3-25v-50L407.81,372.44z M407.81,522.44l43.31,25v50l-43.31,25l-43.3-25v-50L407.81,522.44z M407.81,822.44l43.31,25v50
		l-43.31,25l-43.3-25v-50L407.81,822.44z M494.42,72.44l43.3,25v50l-43.3,25l-43.3-25v-50L494.42,72.44z M494.42,222.44l43.3,25v50
		l-43.3,25l-43.3-25v-50L494.42,222.44z M451.12,597.44l43.3,25v50l-43.3,25l-43.31-25v-50L451.12,597.44z M451.12,747.44l43.3,25
		v50l-43.3,25l-43.31-25v-50L451.12,747.44z M537.72,597.44l43.3,25v50l-43.3,25l-43.3-25v-50L537.72,597.44z M581.02,822.44
		l43.31,25v50l-43.31,25l-43.3-25v-50L581.02,822.44z M624.33,597.44l43.3,25v50l-43.3,25l-43.31-25v-50L624.33,597.44z
		 M667.63,672.44l43.3,25v50l-43.3,25l-43.3-25v-50L667.63,672.44z M624.33,747.44l43.3,25v50l-43.3,25l-43.31-25v-50L624.33,747.44
		z M624.33,897.44l43.3,25v50l-43.3,25l-43.31-25v-50L624.33,897.44z M624.33,1047.44l43.3,25v50l-43.3,25l-43.31-25v-50
		L624.33,1047.44z M710.93,897.44l43.3,25v50l-43.3,25l-43.3-25v-50L710.93,897.44z M797.54-2.56l43.3,25v50l-43.3,25l-43.31-25v-50
		L797.54-2.56z M840.84,72.44l43.3,25v50l-43.3,25l-43.3-25v-50L840.84,72.44z M840.84,972.44l43.3,25v50l-43.3,25l-43.3-25v-50
		L840.84,972.44z M927.44,222.44l43.31,25v50l-43.31,25l-43.3-25v-50L927.44,222.44z M884.14,597.44l43.3,25v50l-43.3,25l-43.3-25
		v-50L884.14,597.44z M970.75-2.56l43.3,25v50l-43.3,25l-43.31-25v-50L970.75-2.56z M1014.05,72.44l43.3,25v50l-43.3,25l-43.3-25
		v-50L1014.05,72.44z M1014.05,372.44l43.3,25v50l-43.3,25l-43.3-25v-50L1014.05,372.44z M1057.35-2.56l43.3,25v50l-43.3,25
		l-43.3-25v-50L1057.35-2.56z M1100.65,672.44l43.3,25v50l-43.3,25l-43.3-25v-50L1100.65,672.44z M1100.65,822.44l43.3,25v50
		l-43.3,25l-43.3-25v-50L1100.65,822.44z M1143.95,147.44l43.31,25v50l-43.31,25l-43.3-25v-50L1143.95,147.44z M1143.95,297.44
		l43.31,25v50l-43.31,25l-43.3-25v-50L1143.95,297.44z M1143.95,597.44l43.31,25v50l-43.31,25l-43.3-25v-50L1143.95,597.44z
		 M1187.26,972.44l43.3,25v50l-43.3,25l-43.31-25v-50L1187.26,972.44z M1273.86,72.44l43.3,25v50l-43.3,25l-43.3-25v-50
		L1273.86,72.44z M1230.56,147.44l43.3,25v50l-43.3,25l-43.3-25v-50L1230.56,147.44z M1273.86,222.44l43.3,25v50l-43.3,25l-43.3-25
		v-50L1273.86,222.44z M1273.86,672.44l43.3,25v50l-43.3,25l-43.3-25v-50L1273.86,672.44z M1230.56,897.44l43.3,25v50l-43.3,25
		l-43.3-25v-50L1230.56,897.44z M1273.86,972.44l43.3,25v50l-43.3,25l-43.3-25v-50L1273.86,972.44z M1230.56,1047.44l43.3,25v50
		l-43.3,25l-43.3-25v-50L1230.56,1047.44z M1360.47,222.44l43.3,25v50l-43.3,25l-43.31-25v-50L1360.47,222.44z M1360.47,672.44
		l43.3,25v50l-43.3,25l-43.31-25v-50L1360.47,672.44z M1317.16,897.44l43.31,25v50l-43.31,25l-43.3-25v-50L1317.16,897.44z
		 M1447.07,222.44l43.31,25v50l-43.31,25l-43.3-25v-50L1447.07,222.44z M1403.77,447.44l43.3,25v50l-43.3,25l-43.3-25v-50
		L1403.77,447.44z M1447.07,522.44l43.31,25v50l-43.31,25l-43.3-25v-50L1447.07,522.44z M1447.07,672.44l43.31,25v50l-43.31,25
		l-43.3-25v-50L1447.07,672.44z M1403.77,747.44l43.3,25v50l-43.3,25l-43.3-25v-50L1403.77,747.44z M1403.77,897.44l43.3,25v50
		l-43.3,25l-43.3-25v-50L1403.77,897.44z M1533.68,72.44l43.3,25v50l-43.3,25l-43.3-25v-50L1533.68,72.44z M1490.38,297.44l43.3,25
		v50l-43.3,25l-43.31-25v-50L1490.38,297.44z M1533.68,372.44l43.3,25v50l-43.3,25l-43.3-25v-50L1533.68,372.44z M1490.38,897.44
		l43.3,25v50l-43.3,25l-43.31-25v-50L1490.38,897.44z M1533.68,972.44l43.3,25v50l-43.3,25l-43.3-25v-50L1533.68,972.44z
		 M1576.98-2.56l43.3,25v50l-43.3,25l-43.3-25v-50L1576.98-2.56z M1576.98,747.44l43.3,25v50l-43.3,25l-43.3-25v-50L1576.98,747.44z
		 M1663.59,447.44l43.3,25v50l-43.3,25l-43.31-25v-50L1663.59,447.44z M1706.89,522.44l43.3,25v50l-43.3,25l-43.3-25v-50
		L1706.89,522.44z M1663.59,597.44l43.3,25v50l-43.3,25l-43.31-25v-50L1663.59,597.44z M1706.89,972.44l43.3,25v50l-43.3,25
		l-43.3-25v-50L1706.89,972.44z M1793.49,72.44l43.31,25v50l-43.31,25l-43.3-25v-50L1793.49,72.44z M1750.19,447.44l43.3,25v50
		l-43.3,25l-43.3-25v-50L1750.19,447.44z M1750.19,897.44l43.3,25v50l-43.3,25l-43.3-25v-50L1750.19,897.44z M1836.8,297.44l43.3,25
		v50l-43.3,25l-43.31-25v-50L1836.8,297.44z M1880.1,672.44l43.3,25v50l-43.3,25l-43.3-25v-50L1880.1,672.44z M1836.8,747.44
		l43.3,25v50l-43.3,25l-43.31-25v-50L1836.8,747.44z M1880.1,972.44l43.3,25v50l-43.3,25l-43.3-25v-50L1880.1,972.44z
		 M1923.4,1047.44l43.3,25v50l-43.3,25l-43.3-25v-50L1923.4,1047.44z"/>
</g>
</svg>
