<?xml version="1.0" encoding="utf-8"?>
<!-- Generator: Adobe Illustrator 24.0.1, SVG Export Plug-In . SVG Version: 6.00 Build 0)  -->
<svg version="1.1" id="Layer_1" xmlns="http://www.w3.org/2000/svg" xmlns:xlink="http://www.w3.org/1999/xlink" x="0px" y="0px"
	 viewBox="0 0 1920 350" style="enable-background:new 0 0 1920 350;" xml:space="preserve">
<g>
	
		<ellipse transform="matrix(0.516 -0.8566 0.8566 0.516 128.3489 561.1097)" style="fill:#FAFAFA;" cx="560.73" cy="166.97" rx="32.45" ry="32.45"/>
	<path style="fill:#F5F5F5;" d="M618.66,160.58c0-2.92-2.37-5.29-5.29-5.29c-0.53,0-1.04,0.08-1.52,0.23
		c0.08-0.53,0.12-1.07,0.12-1.62c0-6.18-5.01-11.19-11.19-11.19c-0.7,0-1.39,0.07-2.06,0.2c-1.72-2.81-4.81-4.7-8.36-4.7
		c-5.36,0-9.71,4.3-9.79,9.65c-0.05,0-0.11-0.01-0.16-0.01c-4.98,0-9.01,4.04-9.01,9.01c0,4.98,4.04,9.01,9.01,9.01h33.11
		l-0.01-0.01C616.38,165.77,618.66,163.45,618.66,160.58z"/>
	<path style="fill:#F5F5F5;" d="M548.11,194.36c0-2.92-2.37-5.29-5.29-5.29c-0.53,0-1.04,0.08-1.52,0.23
		c0.08-0.53,0.12-1.07,0.12-1.62c0-6.18-5.01-11.19-11.19-11.19c-0.7,0-1.39,0.07-2.06,0.2c-1.72-2.81-4.81-4.7-8.36-4.7
		c-5.36,0-9.71,4.3-9.79,9.65c-0.05,0-0.11-0.01-0.16-0.01c-4.98,0-9.01,4.04-9.01,9.01c0,4.98,4.04,9.01,9.01,9.01h33.11
		l-0.01-0.01C545.82,199.56,548.11,197.22,548.11,194.36z"/>
	<path style="fill:#F5F5F5;" d="M435.42,223.38c0-2.92-2.37-5.29-5.29-5.29c-0.53,0-1.04,0.08-1.52,0.23
		c0.08-0.53,0.12-1.07,0.12-1.62c0-6.18-5.01-11.19-11.19-11.19c-0.7,0-1.39,0.07-2.06,0.2c-1.72-2.81-4.81-4.7-8.36-4.7
		c-5.36,0-9.71,4.3-9.79,9.65c-0.05,0-0.11-0.01-0.16-0.01c-4.98,0-9.01,4.04-9.01,9.01c0,4.98,4.04,9.01,9.01,9.01h33.11
		l-0.01-0.01C433.13,228.58,435.42,226.25,435.42,223.38z"/>
	<path style="fill:#F5F5F5;" d="M615.6,224.89c0-1.77-1.43-3.19-3.19-3.19c-0.32,0-0.62,0.05-0.91,0.13
		c0.05-0.32,0.07-0.65,0.07-0.98c0-3.73-3.03-6.76-6.76-6.76c-0.43,0-0.84,0.04-1.25,0.12c-1.04-1.7-2.91-2.84-5.05-2.84
		c-3.24,0-5.87,2.6-5.91,5.83c-0.03,0-0.06-0.01-0.1-0.01c-3.01,0-5.45,2.44-5.45,5.45c0,3.01,2.44,5.45,5.45,5.45h20.01l-0.01-0.01
		C614.22,228.03,615.6,226.62,615.6,224.89z"/>
	<path style="fill:#EBEBEB;" d="M486.08,129.22c0-1.77-1.43-3.19-3.19-3.19c-0.32,0-0.62,0.05-0.91,0.13
		c0.05-0.32,0.07-0.65,0.07-0.98c0-3.73-3.03-6.76-6.76-6.76c-0.43,0-0.84,0.04-1.25,0.12c-1.04-1.7-2.91-2.84-5.05-2.84
		c-3.24,0-5.87,2.6-5.91,5.83c-0.03,0-0.06-0.01-0.1-0.01c-3.01,0-5.45,2.44-5.45,5.45s2.44,5.45,5.45,5.45h20.01l-0.01-0.01
		C484.7,132.37,486.08,130.96,486.08,129.22z"/>
	<path style="fill:#EBEBEB;" d="M373.3,130.98c0-1.77-1.43-3.19-3.19-3.19c-0.32,0-0.62,0.05-0.91,0.13
		c0.05-0.32,0.07-0.65,0.07-0.98c0-3.73-3.03-6.76-6.76-6.76c-0.43,0-0.84,0.04-1.25,0.12c-1.04-1.7-2.91-2.84-5.05-2.84
		c-3.24,0-5.87,2.6-5.91,5.83c-0.03,0-0.06-0.01-0.1-0.01c-3.01,0-5.45,2.44-5.45,5.45c0,3.01,2.44,5.45,5.45,5.45h20.01l-0.01-0.01
		C371.91,134.12,373.3,132.72,373.3,130.98z"/>
	<path style="fill:#F0F0F0;" d="M630.81,338.71c-8.58-10.76-82.44-102.99-92.73-103.01c-10.93-0.02-31.72,25.51-31.72,25.51
		s-36.18-44.84-51.69-43.63C440,218.73,344.94,327.04,334.74,338.71H630.81z"/>
</g>
<g>
	<g>
		<g>
			<path style="fill:#407BFF;" d="M590.42,330.24c0,0-4.77-66.48,21.59-132.98l-3.18-2.84c0,0-28.86,49.64-31.47,136.73
				L590.42,330.24z"/>
		</g>
		<g style="opacity:0.5;enable-background:new    ;">
			<path style="fill:#FFFFFF;" d="M590.42,330.24c0,0-4.77-66.48,21.59-132.98l-3.18-2.84c0,0-28.86,49.64-31.47,136.73
				L590.42,330.24z"/>
		</g>
	</g>
	<g>
		<path style="fill:#407BFF;" d="M619.14,179.82c8.24-4.58,19.29,4.46,19.95,17.39c0,0-1.3-0.94-3.48-1.98
			c-0.37-3.26-0.76-6.16-0.76-6.16v5.82c-0.67-0.3-1.41-0.59-2.21-0.87l-0.32-3.16l-0.47,2.89c-1.03-0.33-2.15-0.62-3.33-0.84
			l-0.81-9.19l-1.41,8.87c-1.12-0.11-2.3-0.16-3.5-0.09l-0.45-6.25l-0.46,6.3c-0.98,0.09-1.98,0.24-3,0.47l-0.41-9.3
			c0,0-0.34,5.19-0.72,9.58c-2.59,0.72-5.26,1.96-7.92,3.92v-1.14C609.83,196.07,611.62,184,619.14,179.82z"/>
		<path style="fill:#407BFF;" d="M608.57,174.91c-5.73-7.48-19.47-3.58-25.23,8.02c0,0,1.56-0.34,3.98-0.43
			c1.65-2.85,3.15-5.36,3.15-5.36l-2.31,5.34c0.73-0.01,1.53,0.02,2.38,0.08l1.55-2.76l-0.72,2.83c1.08,0.11,2.22,0.29,3.4,0.55
			l4.4-8.11l-2.23,8.7c1.08,0.34,2.16,0.77,3.25,1.3l2.9-5.55l-2.09,5.97c0.87,0.47,1.73,1.01,2.56,1.62l4.08-8.37
			c0,0-1.75,4.9-3.15,9.08c2.09,1.69,4.05,3.89,5.71,6.75l0.45-1.05C610.65,193.52,613.8,181.75,608.57,174.91z"/>
		<path style="fill:#407BFF;" d="M601.34,191.16c6.7-5.66,11.02,0,11.02,0c-2.4,0.44-4.6,1.8-6.57,3.58l-0.77-1.16v1.89
			c-0.48,0.47-0.93,0.96-1.37,1.48l-1.19-3.37l0.29,4.46c-0.64,0.8-1.23,1.63-1.8,2.46l-0.4-3.28l-0.27,4.3
			c-0.59,0.93-1.13,1.84-1.61,2.71l-0.25-5.98l-0.64,7.67c-1.17,2.3-1.81,3.92-1.81,3.92S594.64,196.81,601.34,191.16z"/>
		<path style="fill:#407BFF;" d="M617.21,206.81l-1.35,0.65c-0.12-1.01-0.26-2.07-0.43-3.15l1-1.55l-1.16,0.6
			c-0.06-0.36-0.13-0.72-0.2-1.07l1.35-3.07l-1.78,1.13c-0.7-2.91-1.69-5.49-3.05-6.79c0,0,14.03,5.62,4.8,20.52
			c0,0-0.09-2.47-0.43-5.72L617.21,206.81z"/>
		<path style="fill:#407BFF;" d="M604,193.13l-1.98-4.49l0.62,4.57c-0.23,0.02-0.47,0.05-0.7,0.08l-2.71-3.92l0.42,4.32
			c-0.98,0.22-2,0.51-3.07,0.88c-1.09,0.38-2.16,0.84-3.22,1.34l-1.18-3.89l0.37,4.29c-1.03,0.52-2.03,1.08-3,1.66l-0.48-3.39
			l-0.21,3.8c-1.19,0.73-2.31,1.49-3.35,2.23l0.52-6.04l-1.37,6.65c-1.07,0.79-2.03,1.54-2.85,2.21l0.2-4.2l-1.44,5.25
			c-1.19,1.02-1.87,1.67-1.87,1.67c1.64-14.64,7.75-20.06,17.28-20.95c9.53-0.89,15.6,9.37,15.6,9.37S608.8,192.99,604,193.13z"/>
		<path style="fill:#407BFF;" d="M630.16,213.06l-1.18,4.31c-0.34-1.12-0.8-2.55-1.4-4.15l1.23-6.35l-1.77,4.94
			c-0.88-2.2-1.99-4.61-3.35-6.88l1.66-4.34l-2.41,3.14c-0.39-0.6-0.8-1.19-1.23-1.76l0.96-2.74l-1.34,2.25
			c-0.3-0.37-0.6-0.73-0.91-1.08l1.19-3.66l-1.7,3.12c-0.89-0.92-1.84-1.73-2.86-2.4l1.83-4.45c0,0-1.19,1.78-2.65,3.96
			c-1.43-0.78-2.98-1.27-4.65-1.33c0,0,3.16-4.34,8.52-5.54c5.36-1.19,15.93,9.1,9.53,29.65c0,0-0.12-0.48-0.34-1.32L630.16,213.06z
			"/>
		<path style="fill:#407BFF;" d="M624.47,171.83l0.7,2.72c-0.29-0.01-0.62,0.02-0.99,0.07l-0.83-3.53l0.46,3.59
			c-0.59,0.12-1.27,0.36-2,0.74l-1.15-4.77l0.51,5.15c-0.25,0.16-0.5,0.34-0.77,0.53l-1.36-4.5l0.92,4.85
			c-1.09,0.91-2.25,2.18-3.44,3.95v-6.45l-1.37,8.71c-1.19,2.16-2.41,4.87-3.58,8.27c0,0,0.77-23.38,6.58-25.62
			c5.81-2.23,8.34,9.23,8.34,9.23s-0.27-0.12-0.76-0.18L624.47,171.83z"/>
		<path style="fill:#407BFF;" d="M614.57,197.21l-0.82,4.39l-1.37-4.39l-2.53,3.17l-0.67-3.17l-2.8,2.01c0,0,0.73-5.62,2.6-8.08
			C610.84,188.7,615.74,190.87,614.57,197.21z"/>
	</g>
	<g style="opacity:0.3;">
		<path style="fill:#FFFFFF;" d="M619.14,179.82c8.24-4.58,19.29,4.46,19.95,17.39c0,0-1.3-0.94-3.48-1.98
			c-0.37-3.26-0.76-6.16-0.76-6.16v5.82c-0.67-0.3-1.41-0.59-2.21-0.87l-0.32-3.16l-0.47,2.89c-1.03-0.33-2.15-0.62-3.33-0.84
			l-0.81-9.19l-1.41,8.87c-1.12-0.11-2.3-0.16-3.5-0.09l-0.45-6.25l-0.46,6.3c-0.98,0.09-1.98,0.24-3,0.47l-0.41-9.3
			c0,0-0.34,5.19-0.72,9.58c-2.59,0.72-5.26,1.96-7.92,3.92v-1.14C609.83,196.07,611.62,184,619.14,179.82z"/>
		<path style="fill:#FFFFFF;" d="M608.57,174.91c-5.73-7.48-19.47-3.58-25.23,8.02c0,0,1.56-0.34,3.98-0.43
			c1.65-2.85,3.15-5.36,3.15-5.36l-2.31,5.34c0.73-0.01,1.53,0.02,2.38,0.08l1.55-2.76l-0.72,2.83c1.08,0.11,2.22,0.29,3.4,0.55
			l4.4-8.11l-2.23,8.7c1.08,0.34,2.16,0.77,3.25,1.3l2.9-5.55l-2.09,5.97c0.87,0.47,1.73,1.01,2.56,1.62l4.08-8.37
			c0,0-1.75,4.9-3.15,9.08c2.09,1.69,4.05,3.89,5.71,6.75l0.45-1.05C610.65,193.52,613.8,181.75,608.57,174.91z"/>
		<path style="fill:#FFFFFF;" d="M601.34,191.16c6.7-5.66,11.02,0,11.02,0c-2.4,0.44-4.6,1.8-6.57,3.58l-0.77-1.16v1.89
			c-0.48,0.47-0.93,0.96-1.37,1.48l-1.19-3.37l0.29,4.46c-0.64,0.8-1.23,1.63-1.8,2.46l-0.4-3.28l-0.27,4.3
			c-0.59,0.93-1.13,1.84-1.61,2.71l-0.25-5.98l-0.64,7.67c-1.17,2.3-1.81,3.92-1.81,3.92S594.64,196.81,601.34,191.16z"/>
		<path style="fill:#FFFFFF;" d="M617.21,206.81l-1.35,0.65c-0.12-1.01-0.26-2.07-0.43-3.15l1-1.55l-1.16,0.6
			c-0.06-0.36-0.13-0.72-0.2-1.07l1.35-3.07l-1.78,1.13c-0.7-2.91-1.69-5.49-3.05-6.79c0,0,14.03,5.62,4.8,20.52
			c0,0-0.09-2.47-0.43-5.72L617.21,206.81z"/>
		<path style="fill:#FFFFFF;" d="M604,193.13l-1.98-4.49l0.62,4.57c-0.23,0.02-0.47,0.05-0.7,0.08l-2.71-3.92l0.42,4.32
			c-0.98,0.22-2,0.51-3.07,0.88c-1.09,0.38-2.16,0.84-3.22,1.34l-1.18-3.89l0.37,4.29c-1.03,0.52-2.03,1.08-3,1.66l-0.48-3.39
			l-0.21,3.8c-1.19,0.73-2.31,1.49-3.35,2.23l0.52-6.04l-1.37,6.65c-1.07,0.79-2.03,1.54-2.85,2.21l0.2-4.2l-1.44,5.25
			c-1.19,1.02-1.87,1.67-1.87,1.67c1.64-14.64,7.75-20.06,17.28-20.95c9.53-0.89,15.6,9.37,15.6,9.37S608.8,192.99,604,193.13z"/>
		<path style="fill:#FFFFFF;" d="M630.16,213.06l-1.18,4.31c-0.34-1.12-0.8-2.55-1.4-4.15l1.23-6.35l-1.77,4.94
			c-0.88-2.2-1.99-4.61-3.35-6.88l1.66-4.34l-2.41,3.14c-0.39-0.6-0.8-1.19-1.23-1.76l0.96-2.74l-1.34,2.25
			c-0.3-0.37-0.6-0.73-0.91-1.08l1.19-3.66l-1.7,3.12c-0.89-0.92-1.84-1.73-2.86-2.4l1.83-4.45c0,0-1.19,1.78-2.65,3.96
			c-1.43-0.78-2.98-1.27-4.65-1.33c0,0,3.16-4.34,8.52-5.54c5.36-1.19,15.93,9.1,9.53,29.65c0,0-0.12-0.48-0.34-1.32L630.16,213.06z
			"/>
		<path style="fill:#FFFFFF;" d="M624.47,171.83l0.7,2.72c-0.29-0.01-0.62,0.02-0.99,0.07l-0.83-3.53l0.46,3.59
			c-0.59,0.12-1.27,0.36-2,0.74l-1.15-4.77l0.51,5.15c-0.25,0.16-0.5,0.34-0.77,0.53l-1.36-4.5l0.92,4.85
			c-1.09,0.91-2.25,2.18-3.44,3.95v-6.45l-1.37,8.71c-1.19,2.16-2.41,4.87-3.58,8.27c0,0,0.77-23.38,6.58-25.62
			c5.81-2.23,8.34,9.23,8.34,9.23s-0.27-0.12-0.76-0.18L624.47,171.83z"/>
		<path style="fill:#FFFFFF;" d="M614.57,197.21l-0.82,4.39l-1.37-4.39l-2.53,3.17l-0.67-3.17l-2.8,2.01c0,0,0.73-5.62,2.6-8.08
			C610.84,188.7,615.74,190.87,614.57,197.21z"/>
	</g>
</g>
<g>
	<g>
		<path style="fill:#407BFF;" d="M382.35,339.54c0,0-4.1-63.66-25.13-146.57l4.27-3.23c0,0,18.45,29.96,36.96,146.03L382.35,339.54z
			"/>
	</g>
	<g style="opacity:0.5;">
		<path style="fill:#FFFFFF;" d="M382.35,339.54c0,0-4.1-63.66-25.13-146.57l4.27-3.23c0,0,18.45,29.96,36.96,146.03L382.35,339.54z
			"/>
	</g>
	<g>
		<path style="fill:#407BFF;" d="M351.79,173.67c-9.9-5.51-23.17,5.36-23.98,20.89c0,0,1.55-1.12,4.19-2.37
			c0.45-3.93,0.91-7.4,0.91-7.4v6.99c0.81-0.36,1.69-0.72,2.66-1.05l0.38-3.79l0.56,3.47c1.24-0.4,2.59-0.74,4.01-1.02l0.98-11.04
			l1.69,10.66c1.35-0.13,2.76-0.19,4.21-0.12l0.55-7.51l0.55,7.58c1.18,0.1,2.38,0.29,3.6,0.56l0.49-11.18c0,0,0.41,6.23,0.87,11.51
			c3.11,0.87,6.31,2.35,9.51,4.71v-1.37C362.97,193.19,360.82,178.69,351.79,173.67z"/>
		<path style="fill:#407BFF;" d="M364.49,167.77c6.89-8.99,23.39-4.3,30.3,9.64c0,0-1.87-0.41-4.79-0.52
			c-1.98-3.42-3.78-6.44-3.78-6.44l2.78,6.41c-0.88-0.01-1.84,0.02-2.86,0.09l-1.86-3.33l0.87,3.41c-1.3,0.13-2.66,0.34-4.08,0.66
			l-5.29-9.75l2.69,10.46c-1.3,0.41-2.6,0.93-3.9,1.56l-3.48-6.67l2.5,7.17c-1.04,0.56-2.07,1.21-3.08,1.94l-4.9-10.06
			c0,0,2.1,5.88,3.78,10.9c-2.51,2.03-4.86,4.67-6.86,8.1l-0.55-1.26C361.99,190.13,358.2,175.98,364.49,167.77z"/>
		<path style="fill:#407BFF;" d="M373.17,187.28c-8.05-6.79-13.24,0-13.24,0c2.87,0.53,5.53,2.16,7.89,4.3l0.92-1.4v2.27
			c0.57,0.56,1.12,1.16,1.65,1.77l1.44-4.05l-0.35,5.36c0.77,0.97,1.48,1.96,2.16,2.95l0.48-3.94l0.31,5.15
			c0.71,1.12,1.36,2.22,1.93,3.26l0.3-7.19l0.77,9.22c1.41,2.76,2.18,4.71,2.18,4.71S381.22,194.08,373.17,187.28z"/>
		<path style="fill:#407BFF;" d="M354.11,206.09l1.62,0.78c0.14-1.21,0.31-2.48,0.52-3.78l-1.19-1.86l1.39,0.73
			c0.08-0.43,0.16-0.86,0.24-1.29l-1.62-3.69l2.13,1.37c0.85-3.49,2.03-6.6,3.67-8.16c0,0-16.85,6.76-5.76,24.65
			c0,0,0.1-2.97,0.52-6.88L354.11,206.09z"/>
		<path style="fill:#407BFF;" d="M369.98,189.66l2.38-5.4l-0.74,5.49c0.27,0.02,0.56,0.05,0.84,0.09l3.26-4.71l-0.51,5.19
			c1.17,0.27,2.4,0.61,3.69,1.06c1.3,0.46,2.59,1.01,3.87,1.61l1.41-4.67l-0.45,5.15c1.23,0.62,2.44,1.29,3.6,1.98l0.58-4.07
			l0.25,4.58c1.42,0.88,2.78,1.79,4.03,2.68l-0.63-7.26l1.64,7.98c1.28,0.94,2.44,1.85,3.42,2.66l-0.23-5.05l1.73,6.3
			c1.43,1.22,2.25,2.01,2.25,2.01c-1.97-17.59-9.3-24.09-20.75-25.17c-11.45-1.07-18.75,11.26-18.75,11.26
			S364.21,189.49,369.98,189.66z"/>
		<path style="fill:#407BFF;" d="M338.55,213.59l1.41,5.19c0.4-1.34,0.96-3.07,1.68-4.99l-1.48-7.63l2.13,5.94
			c1.06-2.64,2.4-5.54,4.02-8.26l-1.99-5.22l2.9,3.77c0.47-0.73,0.97-1.43,1.48-2.11l-1.16-3.3l1.62,2.7
			c0.36-0.45,0.72-0.88,1.09-1.3l-1.44-4.4l2.05,3.74c1.07-1.11,2.21-2.09,3.44-2.87l-2.19-5.35c0,0,1.43,2.14,3.18,4.76
			c1.71-0.94,3.57-1.52,5.58-1.59c0,0-3.8-5.22-10.23-6.65c-6.44-1.43-19.14,10.93-11.45,35.61c0,0,0.14-0.59,0.41-1.59
			L338.55,213.59z"/>
		<path style="fill:#407BFF;" d="M345.4,164.07l-0.84,3.26c0.35-0.01,0.75,0.02,1.19,0.09l0.99-4.24l-0.55,4.32
			c0.71,0.15,1.52,0.43,2.4,0.89l1.37-5.73l-0.6,6.18c0.3,0.19,0.6,0.4,0.91,0.64l1.63-5.4l-1.11,5.83c1.3,1.09,2.7,2.62,4.13,4.75
			v-7.75l1.65,10.46c1.44,2.6,2.89,5.86,4.3,9.93c0,0-0.93-28.08-7.9-30.77c-6.97-2.69-10.02,11.09-10.02,11.09s0.33-0.14,0.91-0.22
			L345.4,164.07z"/>
		<path style="fill:#407BFF;" d="M357.29,194.55l0.98,5.27l1.66-5.27l3.04,3.81l0.8-3.81l3.36,2.43c0,0-0.87-6.75-3.12-9.7
			C361.77,184.33,355.88,186.94,357.29,194.55z"/>
	</g>
	<g style="opacity:0.3;">
		<path style="fill:#FFFFFF;" d="M351.79,173.67c-9.9-5.51-23.17,5.36-23.98,20.89c0,0,1.55-1.12,4.19-2.37
			c0.45-3.93,0.91-7.4,0.91-7.4v6.99c0.81-0.36,1.69-0.72,2.66-1.05l0.38-3.79l0.56,3.47c1.24-0.4,2.59-0.74,4.01-1.02l0.98-11.04
			l1.69,10.66c1.35-0.13,2.76-0.19,4.21-0.12l0.55-7.51l0.55,7.58c1.18,0.1,2.38,0.29,3.6,0.56l0.49-11.18c0,0,0.41,6.23,0.87,11.51
			c3.11,0.87,6.31,2.35,9.51,4.71v-1.37C362.97,193.19,360.82,178.69,351.79,173.67z"/>
		<path style="fill:#FFFFFF;" d="M364.49,167.77c6.89-8.99,23.39-4.3,30.3,9.64c0,0-1.87-0.41-4.79-0.52
			c-1.98-3.42-3.78-6.44-3.78-6.44l2.78,6.41c-0.88-0.01-1.84,0.02-2.86,0.09l-1.86-3.33l0.87,3.41c-1.3,0.13-2.66,0.34-4.08,0.66
			l-5.29-9.75l2.69,10.46c-1.3,0.41-2.6,0.93-3.9,1.56l-3.48-6.67l2.5,7.17c-1.04,0.56-2.07,1.21-3.08,1.94l-4.9-10.06
			c0,0,2.1,5.88,3.78,10.9c-2.51,2.03-4.86,4.67-6.86,8.1l-0.55-1.26C361.99,190.13,358.2,175.98,364.49,167.77z"/>
		<path style="fill:#FFFFFF;" d="M373.17,187.28c-8.05-6.79-13.24,0-13.24,0c2.87,0.53,5.53,2.16,7.89,4.3l0.92-1.4v2.27
			c0.57,0.56,1.12,1.16,1.65,1.77l1.44-4.05l-0.35,5.36c0.77,0.97,1.48,1.96,2.16,2.95l0.48-3.94l0.31,5.15
			c0.71,1.12,1.36,2.22,1.93,3.26l0.3-7.19l0.77,9.22c1.41,2.76,2.18,4.71,2.18,4.71S381.22,194.08,373.17,187.28z"/>
		<path style="fill:#FFFFFF;" d="M354.11,206.09l1.62,0.78c0.14-1.21,0.31-2.48,0.52-3.78l-1.19-1.86l1.39,0.73
			c0.08-0.43,0.16-0.86,0.24-1.29l-1.62-3.69l2.13,1.37c0.85-3.49,2.03-6.6,3.67-8.16c0,0-16.85,6.76-5.76,24.65
			c0,0,0.1-2.97,0.52-6.88L354.11,206.09z"/>
		<path style="fill:#FFFFFF;" d="M369.98,189.66l2.38-5.4l-0.74,5.49c0.27,0.02,0.56,0.05,0.84,0.09l3.26-4.71l-0.51,5.19
			c1.17,0.27,2.4,0.61,3.69,1.06c1.3,0.46,2.59,1.01,3.87,1.61l1.41-4.67l-0.45,5.15c1.23,0.62,2.44,1.29,3.6,1.98l0.58-4.07
			l0.25,4.58c1.42,0.88,2.78,1.79,4.03,2.68l-0.63-7.26l1.64,7.98c1.28,0.94,2.44,1.85,3.42,2.66l-0.23-5.05l1.73,6.3
			c1.43,1.22,2.25,2.01,2.25,2.01c-1.97-17.59-9.3-24.09-20.75-25.17c-11.45-1.07-18.75,11.26-18.75,11.26
			S364.21,189.49,369.98,189.66z"/>
		<path style="fill:#FFFFFF;" d="M338.55,213.59l1.41,5.19c0.4-1.34,0.96-3.07,1.68-4.99l-1.48-7.63l2.13,5.94
			c1.06-2.64,2.4-5.54,4.02-8.26l-1.99-5.22l2.9,3.77c0.47-0.73,0.97-1.43,1.48-2.11l-1.16-3.3l1.62,2.7
			c0.36-0.45,0.72-0.88,1.09-1.3l-1.44-4.4l2.05,3.74c1.07-1.11,2.21-2.09,3.44-2.87l-2.19-5.35c0,0,1.43,2.14,3.18,4.76
			c1.71-0.94,3.57-1.52,5.58-1.59c0,0-3.8-5.22-10.23-6.65c-6.44-1.43-19.14,10.93-11.45,35.61c0,0,0.14-0.59,0.41-1.59
			L338.55,213.59z"/>
		<path style="fill:#FFFFFF;" d="M345.4,164.07l-0.84,3.26c0.35-0.01,0.75,0.02,1.19,0.09l0.99-4.24l-0.55,4.32
			c0.71,0.15,1.52,0.43,2.4,0.89l1.37-5.73l-0.6,6.18c0.3,0.19,0.6,0.4,0.91,0.64l1.63-5.4l-1.11,5.83c1.3,1.09,2.7,2.62,4.13,4.75
			v-7.75l1.65,10.46c1.44,2.6,2.89,5.86,4.3,9.93c0,0-0.93-28.08-7.9-30.77c-6.97-2.69-10.02,11.09-10.02,11.09s0.33-0.14,0.91-0.22
			L345.4,164.07z"/>
		<path style="fill:#FFFFFF;" d="M357.29,194.55l0.98,5.27l1.66-5.27l3.04,3.81l0.8-3.81l3.36,2.43c0,0-0.87-6.75-3.12-9.7
			C361.77,184.33,355.88,186.94,357.29,194.55z"/>
	</g>
</g>
<g>
	<g>
		<g>
			<path style="fill:#407BFF;" d="M396.97,330.09c0,0-12.64-90.33,17.24-183.54l-4.6-3.58c0,0-34.83,70.44-30.37,189.58
				L396.97,330.09z"/>
		</g>
		<g style="opacity:0.6;enable-background:new    ;">
			<path style="fill:#FFFFFF;" d="M396.97,330.09c0,0-12.64-90.33,17.24-183.54l-4.6-3.58c0,0-34.83,70.44-30.37,189.58
				L396.97,330.09z"/>
		</g>
	</g>
	<g>
		<path style="fill:#407BFF;" d="M422.33,122.09c10.82-7.02,26.74,4.31,28.85,21.91c0,0-1.86-1.16-4.94-2.37
			c-0.81-4.43-1.6-8.35-1.6-8.35l0.54,7.94c-0.95-0.34-1.98-0.68-3.1-0.99l-0.73-4.28l-0.37,3.99c-1.44-0.35-2.99-0.65-4.64-0.84
			l-1.95-12.48l-1.1,12.25c-1.55-0.05-3.15,0-4.79,0.19l-1.19-8.49l-0.05,8.65c-1.33,0.2-2.69,0.51-4.05,0.91l-1.41-12.66
			c0,0,0.01,7.11-0.1,13.15c-3.47,1.22-7,3.16-10.45,6.08l-0.1-1.56C411.12,145.12,412.45,128.49,422.33,122.09z"/>
		<path style="fill:#407BFF;" d="M407.45,116.36c-8.52-9.68-26.91-3.09-33.7,13.28c0,0,2.1-0.61,5.4-0.95c1.98-4.04,3.8-7.6,3.8-7.6
			l-2.66,7.5c1.01-0.08,2.09-0.12,3.26-0.12l1.86-3.92l-0.72,3.94c1.48,0.05,3.06,0.19,4.69,0.45l5.26-11.48l-2.25,12.09
			c1.5,0.37,3.03,0.85,4.56,1.48l3.44-7.85l-2.29,8.34c1.23,0.55,2.44,1.22,3.66,1.98l4.8-11.81c0,0-1.94,6.85-3.46,12.68
			c3.01,2.12,5.88,4.94,8.41,8.68l0.52-1.47C412,141.58,415.23,125.2,407.45,116.36z"/>
		<path style="fill:#407BFF;" d="M399.08,139.2c8.63-8.34,15.05-1.02,15.05-1.02c-3.23,0.82-6.12,2.87-8.64,5.49l-1.16-1.52
			l0.17,2.59c-0.6,0.69-1.18,1.4-1.73,2.14l-1.94-4.48l0.81,6.06c-0.8,1.16-1.54,2.34-2.23,3.52l-0.84-4.44l0.04,5.89
			c-0.72,1.33-1.37,2.62-1.94,3.85l-0.9-8.15l-0.17,10.53c-1.39,3.24-2.12,5.52-2.12,5.52S390.45,147.54,399.08,139.2z"/>
		<path style="fill:#407BFF;" d="M422.18,159.11l-1.78,1.02c-0.25-1.37-0.55-2.8-0.88-4.26l1.22-2.2l-1.52,0.93
			c-0.12-0.48-0.24-0.97-0.37-1.44l1.57-4.32l-2.32,1.71c-1.23-3.9-2.81-7.34-4.8-8.99c0,0,19.67,6.39,8.43,27.57
			c0,0-0.34-3.37-1.11-7.78L422.18,159.11z"/>
		<path style="fill:#407BFF;" d="M402.89,141.65l-3.12-5.95l1.27,6.19c-0.31,0.05-0.63,0.11-0.95,0.17l-4.06-5.1l0.98,5.86
			c-1.31,0.39-2.68,0.87-4.11,1.49c-1.44,0.62-2.87,1.34-4.26,2.12l-1.97-5.2l0.9,5.82c-1.36,0.8-2.67,1.66-3.94,2.53l-0.97-4.58
			l0.07,5.22c-1.55,1.11-3.02,2.25-4.37,3.36l0.16-8.29l-1.25,9.2c-1.38,1.17-2.62,2.29-3.69,3.28l-0.12-5.76l-1.49,7.29
			c-1.52,1.5-2.4,2.46-2.4,2.46c0.89-20.14,8.72-28.1,21.66-30.2c12.93-2.1,22.17,11.36,22.17,11.36S409.42,141.02,402.89,141.65z"
			/>
		<path style="fill:#407BFF;" d="M440.44,166.45l-1.21,6c-0.56-1.49-1.33-3.41-2.29-5.55l1.1-8.78l-1.97,6.92
			c-1.41-2.92-3.15-6.11-5.2-9.08l1.87-6.08l-3.01,4.51c-0.59-0.79-1.2-1.55-1.84-2.29l1.06-3.83l-1.62,3.19
			c-0.44-0.48-0.89-0.95-1.34-1.39l1.3-5.11l-2.04,4.41c-1.3-1.18-2.67-2.2-4.12-3.01l2.09-6.25c0,0-1.46,2.54-3.25,5.65
			c-2.02-0.94-4.18-1.45-6.47-1.38c0,0,3.91-6.22,11.12-8.34c7.21-2.12,22.59,10.96,15.74,39.6c0,0-0.2-0.66-0.59-1.77
			L440.44,166.45z"/>
		<path style="fill:#407BFF;" d="M428.86,110.68l1.21,3.65c-0.4,0.02-0.85,0.08-1.34,0.19l-1.46-4.74l0.96,4.87
			c-0.8,0.23-1.69,0.6-2.66,1.19l-2.01-6.41l1.16,6.98c-0.33,0.23-0.66,0.5-0.99,0.8l-2.26-6.01l1.7,6.53
			c-1.4,1.34-2.87,3.18-4.33,5.71l-0.59-8.81l-1.07,12.01c-1.44,3.06-2.84,6.88-4.12,11.62c0,0-1.09-32,6.63-35.58
			s12.24,11.84,12.24,11.84s-0.38-0.13-1.05-0.18L428.86,110.68z"/>
		<path style="fill:#407BFF;" d="M417.69,146.25l-0.72,6.07l-2.29-5.87l-3.16,4.57l-1.21-4.27l-3.62,3.01c0,0,0.48-7.74,2.8-11.26
			C411.81,134.96,418.7,137.49,417.69,146.25z"/>
	</g>
	<g style="opacity:0.4;">
		<path style="fill:#FFFFFF;" d="M422.33,122.09c10.82-7.02,26.74,4.31,28.85,21.91c0,0-1.86-1.16-4.94-2.37
			c-0.81-4.43-1.6-8.35-1.6-8.35l0.54,7.94c-0.95-0.34-1.98-0.68-3.1-0.99l-0.73-4.28l-0.37,3.99c-1.44-0.35-2.99-0.65-4.64-0.84
			l-1.95-12.48l-1.1,12.25c-1.55-0.05-3.15,0-4.79,0.19l-1.19-8.49l-0.05,8.65c-1.33,0.2-2.69,0.51-4.05,0.91l-1.41-12.66
			c0,0,0.01,7.11-0.1,13.15c-3.47,1.22-7,3.16-10.45,6.08l-0.1-1.56C411.12,145.12,412.45,128.49,422.33,122.09z"/>
		<path style="fill:#FFFFFF;" d="M407.45,116.36c-8.52-9.68-26.91-3.09-33.7,13.28c0,0,2.1-0.61,5.4-0.95c1.98-4.04,3.8-7.6,3.8-7.6
			l-2.66,7.5c1.01-0.08,2.09-0.12,3.26-0.12l1.86-3.92l-0.72,3.94c1.48,0.05,3.06,0.19,4.69,0.45l5.26-11.48l-2.25,12.09
			c1.5,0.37,3.03,0.85,4.56,1.48l3.44-7.85l-2.29,8.34c1.23,0.55,2.44,1.22,3.66,1.98l4.8-11.81c0,0-1.94,6.85-3.46,12.68
			c3.01,2.12,5.88,4.94,8.41,8.68l0.52-1.47C412,141.58,415.23,125.2,407.45,116.36z"/>
		<path style="fill:#FFFFFF;" d="M399.08,139.2c8.63-8.34,15.05-1.02,15.05-1.02c-3.23,0.82-6.12,2.87-8.64,5.49l-1.16-1.52
			l0.17,2.59c-0.6,0.69-1.18,1.4-1.73,2.14l-1.94-4.48l0.81,6.06c-0.8,1.16-1.54,2.34-2.23,3.52l-0.84-4.44l0.04,5.89
			c-0.72,1.33-1.37,2.62-1.94,3.85l-0.9-8.15l-0.17,10.53c-1.39,3.24-2.12,5.52-2.12,5.52S390.45,147.54,399.08,139.2z"/>
		<path style="fill:#FFFFFF;" d="M422.18,159.11l-1.78,1.02c-0.25-1.37-0.55-2.8-0.88-4.26l1.22-2.2l-1.52,0.93
			c-0.12-0.48-0.24-0.97-0.37-1.44l1.57-4.32l-2.32,1.71c-1.23-3.9-2.81-7.34-4.8-8.99c0,0,19.67,6.39,8.43,27.57
			c0,0-0.34-3.37-1.11-7.78L422.18,159.11z"/>
		<path style="fill:#FFFFFF;" d="M402.89,141.65l-3.12-5.95l1.27,6.19c-0.31,0.05-0.63,0.11-0.95,0.17l-4.06-5.1l0.98,5.86
			c-1.31,0.39-2.68,0.87-4.11,1.49c-1.44,0.62-2.87,1.34-4.26,2.12l-1.97-5.2l0.9,5.82c-1.36,0.8-2.67,1.66-3.94,2.53l-0.97-4.58
			l0.07,5.22c-1.55,1.11-3.02,2.25-4.37,3.36l0.16-8.29l-1.25,9.2c-1.38,1.17-2.62,2.29-3.69,3.28l-0.12-5.76l-1.49,7.29
			c-1.52,1.5-2.4,2.46-2.4,2.46c0.89-20.14,8.72-28.1,21.66-30.2c12.93-2.1,22.17,11.36,22.17,11.36S409.42,141.02,402.89,141.65z"
			/>
		<path style="fill:#FFFFFF;" d="M440.44,166.45l-1.21,6c-0.56-1.49-1.33-3.41-2.29-5.55l1.1-8.78l-1.97,6.92
			c-1.41-2.92-3.15-6.11-5.2-9.08l1.87-6.08l-3.01,4.51c-0.59-0.79-1.2-1.55-1.84-2.29l1.06-3.83l-1.62,3.19
			c-0.44-0.48-0.89-0.95-1.34-1.39l1.3-5.11l-2.04,4.41c-1.3-1.18-2.67-2.2-4.12-3.01l2.09-6.25c0,0-1.46,2.54-3.25,5.65
			c-2.02-0.94-4.18-1.45-6.47-1.38c0,0,3.91-6.22,11.12-8.34c7.21-2.12,22.59,10.96,15.74,39.6c0,0-0.2-0.66-0.59-1.77
			L440.44,166.45z"/>
		<path style="fill:#FFFFFF;" d="M428.86,110.68l1.21,3.65c-0.4,0.02-0.85,0.08-1.34,0.19l-1.46-4.74l0.96,4.87
			c-0.8,0.23-1.69,0.6-2.66,1.19l-2.01-6.41l1.16,6.98c-0.33,0.23-0.66,0.5-0.99,0.8l-2.26-6.01l1.7,6.53
			c-1.4,1.34-2.87,3.18-4.33,5.71l-0.59-8.81l-1.07,12.01c-1.44,3.06-2.84,6.88-4.12,11.62c0,0-1.09-32,6.63-35.58
			s12.24,11.84,12.24,11.84s-0.38-0.13-1.05-0.18L428.86,110.68z"/>
		<path style="fill:#FFFFFF;" d="M417.69,146.25l-0.72,6.07l-2.29-5.87l-3.16,4.57l-1.21-4.27l-3.62,3.01c0,0,0.48-7.74,2.8-11.26
			C411.81,134.96,418.7,137.49,417.69,146.25z"/>
	</g>
</g>
<g id="Background_Complete_1_">
	<g>
		
			<ellipse transform="matrix(0.516 -0.8566 0.8566 0.516 437.0738 1115.5278)" style="fill:#FAFAFA;" cx="1205.73" cy="170.97" rx="32.45" ry="32.45"/>
		<path style="fill:#F5F5F5;" d="M1263.66,164.58c0-2.92-2.37-5.29-5.29-5.29c-0.53,0-1.04,0.08-1.52,0.23
			c0.08-0.53,0.12-1.07,0.12-1.62c0-6.18-5.01-11.19-11.19-11.19c-0.7,0-1.39,0.07-2.06,0.2c-1.72-2.81-4.81-4.7-8.36-4.7
			c-5.36,0-9.71,4.3-9.79,9.65c-0.05,0-0.11-0.01-0.16-0.01c-4.98,0-9.01,4.04-9.01,9.01c0,4.98,4.04,9.01,9.01,9.01h33.11
			l-0.01-0.01C1261.38,169.77,1263.66,167.45,1263.66,164.58z"/>
		<path style="fill:#F5F5F5;" d="M1193.11,198.36c0-2.92-2.37-5.29-5.29-5.29c-0.53,0-1.04,0.08-1.52,0.23
			c0.08-0.53,0.12-1.07,0.12-1.62c0-6.18-5.01-11.19-11.19-11.19c-0.7,0-1.39,0.07-2.06,0.2c-1.72-2.81-4.81-4.7-8.36-4.7
			c-5.36,0-9.71,4.3-9.79,9.65c-0.05,0-0.11-0.01-0.16-0.01c-4.98,0-9.01,4.04-9.01,9.01c0,4.98,4.04,9.01,9.01,9.01h33.11
			l-0.01-0.01C1190.82,203.56,1193.11,201.22,1193.11,198.36z"/>
		<path style="fill:#F5F5F5;" d="M1080.42,227.38c0-2.92-2.37-5.29-5.29-5.29c-0.53,0-1.04,0.08-1.52,0.23
			c0.08-0.53,0.12-1.07,0.12-1.62c0-6.18-5.01-11.19-11.19-11.19c-0.7,0-1.39,0.07-2.06,0.2c-1.72-2.81-4.81-4.7-8.36-4.7
			c-5.36,0-9.71,4.3-9.79,9.65c-0.05,0-0.11-0.01-0.16-0.01c-4.98,0-9.01,4.04-9.01,9.01c0,4.98,4.04,9.01,9.01,9.01h33.11
			l-0.01-0.01C1078.13,232.58,1080.42,230.25,1080.42,227.38z"/>
		<path style="fill:#F5F5F5;" d="M1260.6,228.89c0-1.77-1.43-3.19-3.19-3.19c-0.32,0-0.62,0.05-0.91,0.13
			c0.05-0.32,0.07-0.65,0.07-0.98c0-3.73-3.03-6.76-6.76-6.76c-0.43,0-0.84,0.04-1.25,0.12c-1.04-1.7-2.91-2.84-5.05-2.84
			c-3.24,0-5.87,2.6-5.91,5.83c-0.03,0-0.06-0.01-0.1-0.01c-3.01,0-5.45,2.44-5.45,5.45c0,3.01,2.44,5.45,5.45,5.45h20.01
			l-0.01-0.01C1259.22,232.03,1260.6,230.62,1260.6,228.89z"/>
		<path style="fill:#EBEBEB;" d="M1131.08,133.22c0-1.77-1.43-3.19-3.19-3.19c-0.32,0-0.62,0.05-0.91,0.13
			c0.05-0.32,0.07-0.65,0.07-0.98c0-3.73-3.03-6.76-6.76-6.76c-0.43,0-0.84,0.04-1.25,0.12c-1.04-1.7-2.91-2.84-5.05-2.84
			c-3.24,0-5.87,2.6-5.91,5.83c-0.03,0-0.06-0.01-0.1-0.01c-3.01,0-5.45,2.44-5.45,5.45c0,3.01,2.44,5.45,5.45,5.45h20.01
			l-0.01-0.01C1129.7,136.37,1131.08,134.96,1131.08,133.22z"/>
		<path style="fill:#EBEBEB;" d="M1018.3,134.98c0-1.77-1.43-3.19-3.19-3.19c-0.32,0-0.62,0.05-0.91,0.13
			c0.05-0.32,0.07-0.65,0.07-0.98c0-3.73-3.03-6.76-6.76-6.76c-0.43,0-0.84,0.04-1.25,0.12c-1.04-1.7-2.91-2.84-5.05-2.84
			c-3.24,0-5.87,2.6-5.91,5.83c-0.03,0-0.06-0.01-0.1-0.01c-3.01,0-5.45,2.44-5.45,5.45c0,3.01,2.44,5.45,5.45,5.45h20.01
			l-0.01-0.01C1016.91,138.12,1018.3,136.72,1018.3,134.98z"/>
		<path style="fill:#F0F0F0;" d="M1275.81,342.71c-8.58-10.76-82.44-102.99-92.73-103.01c-10.93-0.02-31.72,25.51-31.72,25.51
			s-36.18-44.84-51.69-43.63c-14.67,1.15-109.73,109.46-119.93,121.13H1275.81z"/>
	</g>
</g>
<g>
	<g>
		<g>
			<path style="fill:#407BFF;" d="M1235.42,334.24c0,0-4.77-66.48,21.59-132.98l-3.18-2.84c0,0-28.86,49.64-31.47,136.73
				L1235.42,334.24z"/>
		</g>
		<g style="opacity:0.5;enable-background:new    ;">
			<path style="fill:#FFFFFF;" d="M1235.42,334.24c0,0-4.77-66.48,21.59-132.98l-3.18-2.84c0,0-28.86,49.64-31.47,136.73
				L1235.42,334.24z"/>
		</g>
	</g>
	<g>
		<path style="fill:#407BFF;" d="M1264.14,183.82c8.24-4.58,19.29,4.46,19.95,17.39c0,0-1.3-0.94-3.48-1.98
			c-0.37-3.26-0.76-6.16-0.76-6.16v5.82c-0.67-0.3-1.41-0.59-2.21-0.87l-0.32-3.16l-0.47,2.89c-1.03-0.33-2.15-0.62-3.33-0.84
			l-0.81-9.19l-1.41,8.87c-1.12-0.11-2.3-0.16-3.5-0.09l-0.45-6.25l-0.46,6.3c-0.98,0.09-1.98,0.24-3,0.47l-0.41-9.3
			c0,0-0.34,5.19-0.72,9.58c-2.59,0.72-5.26,1.96-7.92,3.92v-1.14C1254.83,200.07,1256.62,188,1264.14,183.82z"/>
		<path style="fill:#407BFF;" d="M1253.57,178.91c-5.73-7.48-19.47-3.58-25.23,8.02c0,0,1.56-0.34,3.98-0.43
			c1.65-2.85,3.15-5.36,3.15-5.36l-2.31,5.34c0.73-0.01,1.53,0.02,2.38,0.08l1.55-2.76l-0.72,2.83c1.08,0.11,2.22,0.29,3.4,0.55
			l4.4-8.11l-2.23,8.7c1.08,0.34,2.16,0.77,3.25,1.3l2.9-5.55l-2.09,5.97c0.87,0.47,1.73,1.01,2.56,1.62l4.08-8.37
			c0,0-1.75,4.9-3.15,9.08c2.09,1.69,4.05,3.89,5.71,6.75l0.45-1.05C1255.65,197.52,1258.8,185.75,1253.57,178.91z"/>
		<path style="fill:#407BFF;" d="M1246.34,195.16c6.7-5.66,11.02,0,11.02,0c-2.4,0.44-4.6,1.8-6.57,3.58l-0.77-1.16v1.89
			c-0.48,0.47-0.93,0.96-1.37,1.48l-1.19-3.37l0.29,4.46c-0.64,0.8-1.23,1.63-1.8,2.46l-0.4-3.28l-0.27,4.3
			c-0.59,0.93-1.13,1.84-1.61,2.71l-0.25-5.98l-0.64,7.67c-1.17,2.3-1.81,3.92-1.81,3.92S1239.64,200.81,1246.34,195.16z"/>
		<path style="fill:#407BFF;" d="M1262.21,210.81l-1.35,0.65c-0.12-1.01-0.26-2.07-0.43-3.15l1-1.55l-1.16,0.6
			c-0.06-0.36-0.13-0.72-0.2-1.07l1.35-3.07l-1.78,1.13c-0.7-2.91-1.69-5.49-3.05-6.79c0,0,14.03,5.62,4.8,20.52
			c0,0-0.09-2.47-0.43-5.72L1262.21,210.81z"/>
		<path style="fill:#407BFF;" d="M1249,197.13l-1.98-4.49l0.62,4.57c-0.23,0.02-0.47,0.05-0.7,0.08l-2.71-3.92l0.42,4.32
			c-0.98,0.22-2,0.51-3.07,0.88c-1.09,0.38-2.16,0.84-3.22,1.34l-1.18-3.89l0.37,4.29c-1.03,0.52-2.03,1.08-3,1.66l-0.48-3.39
			l-0.21,3.8c-1.19,0.73-2.31,1.49-3.35,2.23l0.52-6.04l-1.37,6.65c-1.07,0.79-2.03,1.54-2.85,2.21l0.2-4.2l-1.44,5.25
			c-1.19,1.02-1.87,1.67-1.87,1.67c1.64-14.64,7.75-20.06,17.28-20.95c9.53-0.89,15.6,9.37,15.6,9.37S1253.8,196.99,1249,197.13z"/>
		<path style="fill:#407BFF;" d="M1275.16,217.06l-1.18,4.31c-0.34-1.12-0.8-2.55-1.4-4.15l1.23-6.35l-1.77,4.94
			c-0.88-2.2-1.99-4.61-3.35-6.88l1.66-4.34l-2.41,3.14c-0.39-0.6-0.8-1.19-1.23-1.76l0.96-2.74l-1.34,2.25
			c-0.3-0.37-0.6-0.73-0.91-1.08l1.19-3.66l-1.7,3.12c-0.89-0.92-1.84-1.73-2.86-2.4l1.83-4.45c0,0-1.19,1.78-2.65,3.96
			c-1.43-0.78-2.98-1.27-4.65-1.33c0,0,3.16-4.34,8.52-5.54c5.36-1.19,15.93,9.1,9.53,29.65c0,0-0.12-0.48-0.34-1.32L1275.16,217.06
			z"/>
		<path style="fill:#407BFF;" d="M1269.47,175.83l0.7,2.72c-0.29-0.01-0.62,0.02-0.99,0.07l-0.83-3.53l0.46,3.59
			c-0.59,0.12-1.27,0.36-2,0.74l-1.15-4.77l0.51,5.15c-0.25,0.16-0.5,0.34-0.77,0.53l-1.36-4.5l0.92,4.85
			c-1.09,0.91-2.25,2.18-3.44,3.95v-6.45l-1.37,8.71c-1.19,2.16-2.41,4.87-3.58,8.27c0,0,0.77-23.38,6.58-25.62
			c5.81-2.23,8.34,9.23,8.34,9.23s-0.27-0.12-0.76-0.18L1269.47,175.83z"/>
		<path style="fill:#407BFF;" d="M1259.57,201.21l-0.82,4.39l-1.37-4.39l-2.53,3.17l-0.67-3.17l-2.8,2.01c0,0,0.73-5.62,2.6-8.08
			C1255.84,192.7,1260.74,194.87,1259.57,201.21z"/>
	</g>
	<g style="opacity:0.3;">
		<path style="fill:#FFFFFF;" d="M1264.14,183.82c8.24-4.58,19.29,4.46,19.95,17.39c0,0-1.3-0.94-3.48-1.98
			c-0.37-3.26-0.76-6.16-0.76-6.16v5.82c-0.67-0.3-1.41-0.59-2.21-0.87l-0.32-3.16l-0.47,2.89c-1.03-0.33-2.15-0.62-3.33-0.84
			l-0.81-9.19l-1.41,8.87c-1.12-0.11-2.3-0.16-3.5-0.09l-0.45-6.25l-0.46,6.3c-0.98,0.09-1.98,0.24-3,0.47l-0.41-9.3
			c0,0-0.34,5.19-0.72,9.58c-2.59,0.72-5.26,1.96-7.92,3.92v-1.14C1254.83,200.07,1256.62,188,1264.14,183.82z"/>
		<path style="fill:#FFFFFF;" d="M1253.57,178.91c-5.73-7.48-19.47-3.58-25.23,8.02c0,0,1.56-0.34,3.98-0.43
			c1.65-2.85,3.15-5.36,3.15-5.36l-2.31,5.34c0.73-0.01,1.53,0.02,2.38,0.08l1.55-2.76l-0.72,2.83c1.08,0.11,2.22,0.29,3.4,0.55
			l4.4-8.11l-2.23,8.7c1.08,0.34,2.16,0.77,3.25,1.3l2.9-5.55l-2.09,5.97c0.87,0.47,1.73,1.01,2.56,1.62l4.08-8.37
			c0,0-1.75,4.9-3.15,9.08c2.09,1.69,4.05,3.89,5.71,6.75l0.45-1.05C1255.65,197.52,1258.8,185.75,1253.57,178.91z"/>
		<path style="fill:#FFFFFF;" d="M1246.34,195.16c6.7-5.66,11.02,0,11.02,0c-2.4,0.44-4.6,1.8-6.57,3.58l-0.77-1.16v1.89
			c-0.48,0.47-0.93,0.96-1.37,1.48l-1.19-3.37l0.29,4.46c-0.64,0.8-1.23,1.63-1.8,2.46l-0.4-3.28l-0.27,4.3
			c-0.59,0.93-1.13,1.84-1.61,2.71l-0.25-5.98l-0.64,7.67c-1.17,2.3-1.81,3.92-1.81,3.92S1239.64,200.81,1246.34,195.16z"/>
		<path style="fill:#FFFFFF;" d="M1262.21,210.81l-1.35,0.65c-0.12-1.01-0.26-2.07-0.43-3.15l1-1.55l-1.16,0.6
			c-0.06-0.36-0.13-0.72-0.2-1.07l1.35-3.07l-1.78,1.13c-0.7-2.91-1.69-5.49-3.05-6.79c0,0,14.03,5.62,4.8,20.52
			c0,0-0.09-2.47-0.43-5.72L1262.21,210.81z"/>
		<path style="fill:#FFFFFF;" d="M1249,197.13l-1.98-4.49l0.62,4.57c-0.23,0.02-0.47,0.05-0.7,0.08l-2.71-3.92l0.42,4.32
			c-0.98,0.22-2,0.51-3.07,0.88c-1.09,0.38-2.16,0.84-3.22,1.34l-1.18-3.89l0.37,4.29c-1.03,0.52-2.03,1.08-3,1.66l-0.48-3.39
			l-0.21,3.8c-1.19,0.73-2.31,1.49-3.35,2.23l0.52-6.04l-1.37,6.65c-1.07,0.79-2.03,1.54-2.85,2.21l0.2-4.2l-1.44,5.25
			c-1.19,1.02-1.87,1.67-1.87,1.67c1.64-14.64,7.75-20.06,17.28-20.95c9.53-0.89,15.6,9.37,15.6,9.37S1253.8,196.99,1249,197.13z"/>
		<path style="fill:#FFFFFF;" d="M1275.16,217.06l-1.18,4.31c-0.34-1.12-0.8-2.55-1.4-4.15l1.23-6.35l-1.77,4.94
			c-0.88-2.2-1.99-4.61-3.35-6.88l1.66-4.34l-2.41,3.14c-0.39-0.6-0.8-1.19-1.23-1.76l0.96-2.74l-1.34,2.25
			c-0.3-0.37-0.6-0.73-0.91-1.08l1.19-3.66l-1.7,3.12c-0.89-0.92-1.84-1.73-2.86-2.4l1.83-4.45c0,0-1.19,1.78-2.65,3.96
			c-1.43-0.78-2.98-1.27-4.65-1.33c0,0,3.16-4.34,8.52-5.54c5.36-1.19,15.93,9.1,9.53,29.65c0,0-0.12-0.48-0.34-1.32L1275.16,217.06
			z"/>
		<path style="fill:#FFFFFF;" d="M1269.47,175.83l0.7,2.72c-0.29-0.01-0.62,0.02-0.99,0.07l-0.83-3.53l0.46,3.59
			c-0.59,0.12-1.27,0.36-2,0.74l-1.15-4.77l0.51,5.15c-0.25,0.16-0.5,0.34-0.77,0.53l-1.36-4.5l0.92,4.85
			c-1.09,0.91-2.25,2.18-3.44,3.95v-6.45l-1.37,8.71c-1.19,2.16-2.41,4.87-3.58,8.27c0,0,0.77-23.38,6.58-25.62
			c5.81-2.23,8.34,9.23,8.34,9.23s-0.27-0.12-0.76-0.18L1269.47,175.83z"/>
		<path style="fill:#FFFFFF;" d="M1259.57,201.21l-0.82,4.39l-1.37-4.39l-2.53,3.17l-0.67-3.17l-2.8,2.01c0,0,0.73-5.62,2.6-8.08
			C1255.84,192.7,1260.74,194.87,1259.57,201.21z"/>
	</g>
</g>
<g>
	<g>
		<path style="fill:#407BFF;" d="M1027.35,343.54c0,0-4.1-63.66-25.13-146.57l4.27-3.23c0,0,18.45,29.96,36.96,146.03
			L1027.35,343.54z"/>
	</g>
	<g style="opacity:0.5;">
		<path style="fill:#FFFFFF;" d="M1027.35,343.54c0,0-4.1-63.66-25.13-146.57l4.27-3.23c0,0,18.45,29.96,36.96,146.03
			L1027.35,343.54z"/>
	</g>
	<g>
		<path style="fill:#407BFF;" d="M996.79,177.67c-9.9-5.51-23.17,5.36-23.98,20.89c0,0,1.55-1.12,4.19-2.37
			c0.45-3.93,0.91-7.4,0.91-7.4v6.99c0.81-0.36,1.69-0.72,2.66-1.05l0.38-3.79l0.56,3.47c1.24-0.4,2.59-0.74,4.01-1.02l0.98-11.04
			l1.69,10.66c1.35-0.13,2.76-0.19,4.21-0.12l0.55-7.51l0.55,7.58c1.18,0.1,2.38,0.29,3.6,0.56l0.49-11.18c0,0,0.41,6.23,0.87,11.51
			c3.11,0.87,6.31,2.35,9.51,4.71v-1.37C1007.97,197.19,1005.82,182.69,996.79,177.67z"/>
		<path style="fill:#407BFF;" d="M1009.49,171.77c6.89-8.99,23.39-4.3,30.3,9.64c0,0-1.87-0.41-4.79-0.52
			c-1.98-3.42-3.78-6.44-3.78-6.44l2.78,6.41c-0.88-0.01-1.84,0.02-2.86,0.09l-1.86-3.33l0.87,3.41c-1.3,0.13-2.66,0.34-4.08,0.66
			l-5.29-9.75l2.69,10.46c-1.3,0.41-2.6,0.93-3.9,1.56l-3.48-6.67l2.5,7.17c-1.04,0.56-2.07,1.21-3.08,1.94l-4.9-10.06
			c0,0,2.1,5.88,3.78,10.9c-2.51,2.03-4.86,4.67-6.86,8.1l-0.55-1.26C1006.99,194.13,1003.2,179.98,1009.49,171.77z"/>
		<path style="fill:#407BFF;" d="M1018.17,191.28c-8.05-6.79-13.24,0-13.24,0c2.87,0.53,5.53,2.16,7.89,4.3l0.92-1.4v2.27
			c0.57,0.56,1.12,1.16,1.65,1.77l1.44-4.05l-0.35,5.36c0.77,0.97,1.48,1.96,2.16,2.95l0.48-3.94l0.31,5.15
			c0.71,1.12,1.36,2.22,1.93,3.26l0.3-7.19l0.77,9.22c1.41,2.76,2.18,4.71,2.18,4.71S1026.22,198.08,1018.17,191.28z"/>
		<path style="fill:#407BFF;" d="M999.11,210.09l1.62,0.78c0.14-1.21,0.31-2.48,0.52-3.78l-1.19-1.86l1.39,0.73
			c0.08-0.43,0.16-0.86,0.24-1.29l-1.62-3.69l2.13,1.37c0.85-3.49,2.03-6.6,3.67-8.16c0,0-16.85,6.76-5.76,24.65
			c0,0,0.1-2.97,0.52-6.88L999.11,210.09z"/>
		<path style="fill:#407BFF;" d="M1014.98,193.66l2.38-5.4l-0.74,5.49c0.27,0.02,0.56,0.05,0.84,0.09l3.26-4.71l-0.51,5.19
			c1.17,0.27,2.4,0.61,3.69,1.06c1.3,0.46,2.59,1.01,3.87,1.61l1.41-4.67l-0.45,5.15c1.23,0.62,2.44,1.29,3.6,1.98l0.58-4.07
			l0.25,4.58c1.42,0.88,2.78,1.79,4.03,2.68l-0.63-7.26l1.64,7.98c1.28,0.94,2.44,1.85,3.42,2.66l-0.23-5.05l1.73,6.3
			c1.43,1.22,2.25,2.01,2.25,2.01c-1.97-17.59-9.3-24.09-20.75-25.17c-11.45-1.07-18.75,11.26-18.75,11.26
			S1009.21,193.49,1014.98,193.66z"/>
		<path style="fill:#407BFF;" d="M983.55,217.59l1.41,5.19c0.4-1.34,0.96-3.07,1.68-4.99l-1.48-7.63l2.13,5.94
			c1.06-2.64,2.4-5.54,4.02-8.26l-1.99-5.22l2.9,3.77c0.47-0.73,0.97-1.43,1.48-2.11l-1.16-3.3l1.62,2.7
			c0.36-0.45,0.72-0.88,1.09-1.3l-1.44-4.4l2.05,3.74c1.07-1.11,2.21-2.09,3.44-2.87l-2.19-5.35c0,0,1.43,2.14,3.18,4.76
			c1.71-0.94,3.57-1.52,5.58-1.59c0,0-3.8-5.22-10.23-6.65c-6.44-1.43-19.14,10.93-11.45,35.61c0,0,0.14-0.59,0.41-1.59
			L983.55,217.59z"/>
		<path style="fill:#407BFF;" d="M990.4,168.07l-0.84,3.26c0.35-0.01,0.75,0.02,1.19,0.09l0.99-4.24l-0.55,4.32
			c0.71,0.15,1.52,0.43,2.4,0.89l1.37-5.73l-0.6,6.18c0.3,0.19,0.6,0.4,0.91,0.64l1.63-5.4l-1.11,5.83c1.3,1.09,2.7,2.62,4.13,4.75
			v-7.75l1.65,10.46c1.44,2.6,2.89,5.86,4.3,9.93c0,0-0.93-28.08-7.9-30.77c-6.97-2.69-10.02,11.09-10.02,11.09s0.33-0.14,0.91-0.22
			L990.4,168.07z"/>
		<path style="fill:#407BFF;" d="M1002.29,198.55l0.98,5.27l1.66-5.27l3.04,3.81l0.8-3.81l3.36,2.43c0,0-0.87-6.75-3.12-9.7
			C1006.77,188.33,1000.88,190.94,1002.29,198.55z"/>
	</g>
	<g style="opacity:0.3;">
		<path style="fill:#FFFFFF;" d="M996.79,177.67c-9.9-5.51-23.17,5.36-23.98,20.89c0,0,1.55-1.12,4.19-2.37
			c0.45-3.93,0.91-7.4,0.91-7.4v6.99c0.81-0.36,1.69-0.72,2.66-1.05l0.38-3.79l0.56,3.47c1.24-0.4,2.59-0.74,4.01-1.02l0.98-11.04
			l1.69,10.66c1.35-0.13,2.76-0.19,4.21-0.12l0.55-7.51l0.55,7.58c1.18,0.1,2.38,0.29,3.6,0.56l0.49-11.18c0,0,0.41,6.23,0.87,11.51
			c3.11,0.87,6.31,2.35,9.51,4.71v-1.37C1007.97,197.19,1005.82,182.69,996.79,177.67z"/>
		<path style="fill:#FFFFFF;" d="M1009.49,171.77c6.89-8.99,23.39-4.3,30.3,9.64c0,0-1.87-0.41-4.79-0.52
			c-1.98-3.42-3.78-6.44-3.78-6.44l2.78,6.41c-0.88-0.01-1.84,0.02-2.86,0.09l-1.86-3.33l0.87,3.41c-1.3,0.13-2.66,0.34-4.08,0.66
			l-5.29-9.75l2.69,10.46c-1.3,0.41-2.6,0.93-3.9,1.56l-3.48-6.67l2.5,7.17c-1.04,0.56-2.07,1.21-3.08,1.94l-4.9-10.06
			c0,0,2.1,5.88,3.78,10.9c-2.51,2.03-4.86,4.67-6.86,8.1l-0.55-1.26C1006.99,194.13,1003.2,179.98,1009.49,171.77z"/>
		<path style="fill:#FFFFFF;" d="M1018.17,191.28c-8.05-6.79-13.24,0-13.24,0c2.87,0.53,5.53,2.16,7.89,4.3l0.92-1.4v2.27
			c0.57,0.56,1.12,1.16,1.65,1.77l1.44-4.05l-0.35,5.36c0.77,0.97,1.48,1.96,2.16,2.95l0.48-3.94l0.31,5.15
			c0.71,1.12,1.36,2.22,1.93,3.26l0.3-7.19l0.77,9.22c1.41,2.76,2.18,4.71,2.18,4.71S1026.22,198.08,1018.17,191.28z"/>
		<path style="fill:#FFFFFF;" d="M999.11,210.09l1.62,0.78c0.14-1.21,0.31-2.48,0.52-3.78l-1.19-1.86l1.39,0.73
			c0.08-0.43,0.16-0.86,0.24-1.29l-1.62-3.69l2.13,1.37c0.85-3.49,2.03-6.6,3.67-8.16c0,0-16.85,6.76-5.76,24.65
			c0,0,0.1-2.97,0.52-6.88L999.11,210.09z"/>
		<path style="fill:#FFFFFF;" d="M1014.98,193.66l2.38-5.4l-0.74,5.49c0.27,0.02,0.56,0.05,0.84,0.09l3.26-4.71l-0.51,5.19
			c1.17,0.27,2.4,0.61,3.69,1.06c1.3,0.46,2.59,1.01,3.87,1.61l1.41-4.67l-0.45,5.15c1.23,0.62,2.44,1.29,3.6,1.98l0.58-4.07
			l0.25,4.58c1.42,0.88,2.78,1.79,4.03,2.68l-0.63-7.26l1.64,7.98c1.28,0.94,2.44,1.85,3.42,2.66l-0.23-5.05l1.73,6.3
			c1.43,1.22,2.25,2.01,2.25,2.01c-1.97-17.59-9.3-24.09-20.75-25.17c-11.45-1.07-18.75,11.26-18.75,11.26
			S1009.21,193.49,1014.98,193.66z"/>
		<path style="fill:#FFFFFF;" d="M983.55,217.59l1.41,5.19c0.4-1.34,0.96-3.07,1.68-4.99l-1.48-7.63l2.13,5.94
			c1.06-2.64,2.4-5.54,4.02-8.26l-1.99-5.22l2.9,3.77c0.47-0.73,0.97-1.43,1.48-2.11l-1.16-3.3l1.62,2.7
			c0.36-0.45,0.72-0.88,1.09-1.3l-1.44-4.4l2.05,3.74c1.07-1.11,2.21-2.09,3.44-2.87l-2.19-5.35c0,0,1.43,2.14,3.18,4.76
			c1.71-0.94,3.57-1.52,5.58-1.59c0,0-3.8-5.22-10.23-6.65c-6.44-1.43-19.14,10.93-11.45,35.61c0,0,0.14-0.59,0.41-1.59
			L983.55,217.59z"/>
		<path style="fill:#FFFFFF;" d="M990.4,168.07l-0.84,3.26c0.35-0.01,0.75,0.02,1.19,0.09l0.99-4.24l-0.55,4.32
			c0.71,0.15,1.52,0.43,2.4,0.89l1.37-5.73l-0.6,6.18c0.3,0.19,0.6,0.4,0.91,0.64l1.63-5.4l-1.11,5.83c1.3,1.09,2.7,2.62,4.13,4.75
			v-7.75l1.65,10.46c1.44,2.6,2.89,5.86,4.3,9.93c0,0-0.93-28.08-7.9-30.77c-6.97-2.69-10.02,11.09-10.02,11.09s0.33-0.14,0.91-0.22
			L990.4,168.07z"/>
		<path style="fill:#FFFFFF;" d="M1002.29,198.55l0.98,5.27l1.66-5.27l3.04,3.81l0.8-3.81l3.36,2.43c0,0-0.87-6.75-3.12-9.7
			C1006.77,188.33,1000.88,190.94,1002.29,198.55z"/>
	</g>
</g>
<g>
	<g>
		<g>
			<path style="fill:#407BFF;" d="M1041.97,334.09c0,0-12.64-90.33,17.24-183.54l-4.6-3.58c0,0-34.83,70.44-30.37,189.58
				L1041.97,334.09z"/>
		</g>
		<g style="opacity:0.6;enable-background:new    ;">
			<path style="fill:#FFFFFF;" d="M1041.97,334.09c0,0-12.64-90.33,17.24-183.54l-4.6-3.58c0,0-34.83,70.44-30.37,189.58
				L1041.97,334.09z"/>
		</g>
	</g>
	<g>
		<path style="fill:#407BFF;" d="M1067.33,126.09c10.82-7.02,26.74,4.31,28.85,21.91c0,0-1.86-1.16-4.94-2.37
			c-0.81-4.43-1.6-8.35-1.6-8.35l0.54,7.94c-0.95-0.34-1.98-0.68-3.1-0.99l-0.73-4.28l-0.37,3.99c-1.44-0.35-2.99-0.65-4.64-0.84
			l-1.95-12.48l-1.1,12.25c-1.55-0.05-3.15,0-4.79,0.19l-1.19-8.49l-0.05,8.65c-1.33,0.2-2.69,0.51-4.05,0.91l-1.41-12.66
			c0,0,0.01,7.11-0.1,13.15c-3.47,1.22-7,3.16-10.45,6.08l-0.1-1.56C1056.12,149.12,1057.45,132.49,1067.33,126.09z"/>
		<path style="fill:#407BFF;" d="M1052.45,120.36c-8.52-9.68-26.91-3.09-33.7,13.28c0,0,2.1-0.61,5.4-0.95
			c1.98-4.04,3.8-7.6,3.8-7.6l-2.66,7.5c1.01-0.08,2.09-0.12,3.26-0.12l1.86-3.92l-0.72,3.94c1.48,0.05,3.06,0.19,4.69,0.45
			l5.26-11.48l-2.25,12.09c1.5,0.37,3.03,0.85,4.56,1.48l3.44-7.85l-2.29,8.34c1.23,0.55,2.44,1.22,3.66,1.98l4.8-11.81
			c0,0-1.94,6.85-3.46,12.68c3.01,2.12,5.88,4.94,8.41,8.68l0.52-1.47C1057,145.58,1060.23,129.2,1052.45,120.36z"/>
		<path style="fill:#407BFF;" d="M1044.08,143.2c8.63-8.34,15.05-1.02,15.05-1.02c-3.23,0.82-6.12,2.87-8.64,5.49l-1.16-1.52
			l0.17,2.59c-0.6,0.69-1.18,1.4-1.73,2.14l-1.94-4.48l0.81,6.06c-0.8,1.16-1.54,2.34-2.23,3.52l-0.84-4.44l0.04,5.89
			c-0.72,1.33-1.37,2.62-1.94,3.85l-0.9-8.15l-0.17,10.53c-1.39,3.24-2.12,5.52-2.12,5.52S1035.45,151.54,1044.08,143.2z"/>
		<path style="fill:#407BFF;" d="M1067.18,163.11l-1.78,1.02c-0.25-1.37-0.55-2.8-0.88-4.26l1.22-2.2l-1.52,0.93
			c-0.12-0.48-0.24-0.97-0.37-1.44l1.57-4.32l-2.32,1.71c-1.23-3.9-2.81-7.34-4.8-8.99c0,0,19.67,6.39,8.43,27.57
			c0,0-0.34-3.37-1.11-7.78L1067.18,163.11z"/>
		<path style="fill:#407BFF;" d="M1047.89,145.65l-3.12-5.95l1.27,6.19c-0.31,0.05-0.63,0.11-0.95,0.17l-4.06-5.1l0.98,5.86
			c-1.31,0.39-2.68,0.87-4.11,1.49c-1.44,0.62-2.87,1.34-4.26,2.12l-1.97-5.2l0.9,5.82c-1.36,0.8-2.67,1.66-3.94,2.53l-0.97-4.58
			l0.07,5.22c-1.55,1.11-3.02,2.25-4.37,3.36l0.16-8.29l-1.25,9.2c-1.38,1.17-2.62,2.29-3.69,3.28l-0.12-5.76l-1.49,7.29
			c-1.52,1.5-2.4,2.46-2.4,2.46c0.89-20.14,8.72-28.1,21.66-30.2c12.93-2.1,22.17,11.36,22.17,11.36S1054.42,145.02,1047.89,145.65z
			"/>
		<path style="fill:#407BFF;" d="M1085.44,170.45l-1.21,6c-0.56-1.49-1.33-3.41-2.29-5.55l1.1-8.78l-1.97,6.92
			c-1.41-2.92-3.15-6.11-5.2-9.08l1.87-6.08l-3.01,4.51c-0.59-0.79-1.2-1.55-1.84-2.29l1.06-3.83l-1.62,3.19
			c-0.44-0.48-0.89-0.95-1.34-1.39l1.3-5.11l-2.04,4.41c-1.3-1.18-2.67-2.2-4.12-3.01l2.09-6.25c0,0-1.46,2.54-3.25,5.65
			c-2.02-0.94-4.18-1.45-6.47-1.38c0,0,3.91-6.22,11.12-8.34c7.21-2.12,22.59,10.96,15.74,39.6c0,0-0.2-0.66-0.59-1.77
			L1085.44,170.45z"/>
		<path style="fill:#407BFF;" d="M1073.86,114.68l1.21,3.65c-0.4,0.02-0.85,0.08-1.34,0.19l-1.46-4.74l0.96,4.87
			c-0.8,0.23-1.69,0.6-2.66,1.19l-2.01-6.41l1.16,6.98c-0.33,0.23-0.66,0.5-0.99,0.8l-2.26-6.01l1.7,6.53
			c-1.4,1.34-2.87,3.18-4.33,5.71l-0.59-8.81l-1.07,12.01c-1.44,3.06-2.84,6.88-4.12,11.62c0,0-1.09-32,6.63-35.58
			c7.72-3.58,12.24,11.84,12.24,11.84s-0.38-0.13-1.05-0.18L1073.86,114.68z"/>
		<path style="fill:#407BFF;" d="M1062.69,150.25l-0.72,6.07l-2.29-5.87l-3.16,4.57l-1.21-4.27l-3.62,3.01c0,0,0.48-7.74,2.8-11.26
			C1056.81,138.96,1063.7,141.49,1062.69,150.25z"/>
	</g>
	<g style="opacity:0.4;">
		<path style="fill:#FFFFFF;" d="M1067.33,126.09c10.82-7.02,26.74,4.31,28.85,21.91c0,0-1.86-1.16-4.94-2.37
			c-0.81-4.43-1.6-8.35-1.6-8.35l0.54,7.94c-0.95-0.34-1.98-0.68-3.1-0.99l-0.73-4.28l-0.37,3.99c-1.44-0.35-2.99-0.65-4.64-0.84
			l-1.95-12.48l-1.1,12.25c-1.55-0.05-3.15,0-4.79,0.19l-1.19-8.49l-0.05,8.65c-1.33,0.2-2.69,0.51-4.05,0.91l-1.41-12.66
			c0,0,0.01,7.11-0.1,13.15c-3.47,1.22-7,3.16-10.45,6.08l-0.1-1.56C1056.12,149.12,1057.45,132.49,1067.33,126.09z"/>
		<path style="fill:#FFFFFF;" d="M1052.45,120.36c-8.52-9.68-26.91-3.09-33.7,13.28c0,0,2.1-0.61,5.4-0.95
			c1.98-4.04,3.8-7.6,3.8-7.6l-2.66,7.5c1.01-0.08,2.09-0.12,3.26-0.12l1.86-3.92l-0.72,3.94c1.48,0.05,3.06,0.19,4.69,0.45
			l5.26-11.48l-2.25,12.09c1.5,0.37,3.03,0.85,4.56,1.48l3.44-7.85l-2.29,8.34c1.23,0.55,2.44,1.22,3.66,1.98l4.8-11.81
			c0,0-1.94,6.85-3.46,12.68c3.01,2.12,5.88,4.94,8.41,8.68l0.52-1.47C1057,145.58,1060.23,129.2,1052.45,120.36z"/>
		<path style="fill:#FFFFFF;" d="M1044.08,143.2c8.63-8.34,15.05-1.02,15.05-1.02c-3.23,0.82-6.12,2.87-8.64,5.49l-1.16-1.52
			l0.17,2.59c-0.6,0.69-1.18,1.4-1.73,2.14l-1.94-4.48l0.81,6.06c-0.8,1.16-1.54,2.34-2.23,3.52l-0.84-4.44l0.04,5.89
			c-0.72,1.33-1.37,2.62-1.94,3.85l-0.9-8.15l-0.17,10.53c-1.39,3.24-2.12,5.52-2.12,5.52S1035.45,151.54,1044.08,143.2z"/>
		<path style="fill:#FFFFFF;" d="M1067.18,163.11l-1.78,1.02c-0.25-1.37-0.55-2.8-0.88-4.26l1.22-2.2l-1.52,0.93
			c-0.12-0.48-0.24-0.97-0.37-1.44l1.57-4.32l-2.32,1.71c-1.23-3.9-2.81-7.34-4.8-8.99c0,0,19.67,6.39,8.43,27.57
			c0,0-0.34-3.37-1.11-7.78L1067.18,163.11z"/>
		<path style="fill:#FFFFFF;" d="M1047.89,145.65l-3.12-5.95l1.27,6.19c-0.31,0.05-0.63,0.11-0.95,0.17l-4.06-5.1l0.98,5.86
			c-1.31,0.39-2.68,0.87-4.11,1.49c-1.44,0.62-2.87,1.34-4.26,2.12l-1.97-5.2l0.9,5.82c-1.36,0.8-2.67,1.66-3.94,2.53l-0.97-4.58
			l0.07,5.22c-1.55,1.11-3.02,2.25-4.37,3.36l0.16-8.29l-1.25,9.2c-1.38,1.17-2.62,2.29-3.69,3.28l-0.12-5.76l-1.49,7.29
			c-1.52,1.5-2.4,2.46-2.4,2.46c0.89-20.14,8.72-28.1,21.66-30.2c12.93-2.1,22.17,11.36,22.17,11.36S1054.42,145.02,1047.89,145.65z
			"/>
		<path style="fill:#FFFFFF;" d="M1085.44,170.45l-1.21,6c-0.56-1.49-1.33-3.41-2.29-5.55l1.1-8.78l-1.97,6.92
			c-1.41-2.92-3.15-6.11-5.2-9.08l1.87-6.08l-3.01,4.51c-0.59-0.79-1.2-1.55-1.84-2.29l1.06-3.83l-1.62,3.19
			c-0.44-0.48-0.89-0.95-1.34-1.39l1.3-5.11l-2.04,4.41c-1.3-1.18-2.67-2.2-4.12-3.01l2.09-6.25c0,0-1.46,2.54-3.25,5.65
			c-2.02-0.94-4.18-1.45-6.47-1.38c0,0,3.91-6.22,11.12-8.34c7.21-2.12,22.59,10.96,15.74,39.6c0,0-0.2-0.66-0.59-1.77
			L1085.44,170.45z"/>
		<path style="fill:#FFFFFF;" d="M1073.86,114.68l1.21,3.65c-0.4,0.02-0.85,0.08-1.34,0.19l-1.46-4.74l0.96,4.87
			c-0.8,0.23-1.69,0.6-2.66,1.19l-2.01-6.41l1.16,6.98c-0.33,0.23-0.66,0.5-0.99,0.8l-2.26-6.01l1.7,6.53
			c-1.4,1.34-2.87,3.18-4.33,5.71l-0.59-8.81l-1.07,12.01c-1.44,3.06-2.84,6.88-4.12,11.62c0,0-1.09-32,6.63-35.58
			c7.72-3.58,12.24,11.84,12.24,11.84s-0.38-0.13-1.05-0.18L1073.86,114.68z"/>
		<path style="fill:#FFFFFF;" d="M1062.69,150.25l-0.72,6.07l-2.29-5.87l-3.16,4.57l-1.21-4.27l-3.62,3.01c0,0,0.48-7.74,2.8-11.26
			C1056.81,138.96,1063.7,141.49,1062.69,150.25z"/>
	</g>
</g>
<g>
	
		<ellipse transform="matrix(0.516 -0.8566 0.8566 0.516 732.7704 1638.887)" style="fill:#FAFAFA;" cx="1816.73" cy="170.97" rx="32.45" ry="32.45"/>
	<path style="fill:#F5F5F5;" d="M1874.66,164.58c0-2.92-2.37-5.29-5.29-5.29c-0.53,0-1.04,0.08-1.52,0.23
		c0.08-0.53,0.12-1.07,0.12-1.62c0-6.18-5.01-11.19-11.19-11.19c-0.7,0-1.39,0.07-2.06,0.2c-1.72-2.81-4.81-4.7-8.36-4.7
		c-5.36,0-9.71,4.3-9.79,9.65c-0.05,0-0.11-0.01-0.16-0.01c-4.98,0-9.01,4.04-9.01,9.01c0,4.98,4.04,9.01,9.01,9.01h33.11
		l-0.01-0.01C1872.38,169.77,1874.66,167.45,1874.66,164.58z"/>
	<path style="fill:#F5F5F5;" d="M1804.11,198.36c0-2.92-2.37-5.29-5.29-5.29c-0.53,0-1.04,0.08-1.52,0.23
		c0.08-0.53,0.12-1.07,0.12-1.62c0-6.18-5.01-11.19-11.19-11.19c-0.7,0-1.39,0.07-2.06,0.2c-1.72-2.81-4.81-4.7-8.36-4.7
		c-5.36,0-9.71,4.3-9.79,9.65c-0.05,0-0.11-0.01-0.16-0.01c-4.98,0-9.01,4.04-9.01,9.01c0,4.98,4.04,9.01,9.01,9.01h33.11
		l-0.01-0.01C1801.82,203.56,1804.11,201.22,1804.11,198.36z"/>
	<path style="fill:#F5F5F5;" d="M1691.42,227.38c0-2.92-2.37-5.29-5.29-5.29c-0.53,0-1.04,0.08-1.52,0.23
		c0.08-0.53,0.12-1.07,0.12-1.62c0-6.18-5.01-11.19-11.19-11.19c-0.7,0-1.39,0.07-2.06,0.2c-1.72-2.81-4.81-4.7-8.36-4.7
		c-5.36,0-9.71,4.3-9.79,9.65c-0.05,0-0.11-0.01-0.16-0.01c-4.98,0-9.01,4.04-9.01,9.01c0,4.98,4.04,9.01,9.01,9.01h33.11
		l-0.01-0.01C1689.13,232.58,1691.42,230.25,1691.42,227.38z"/>
	<path style="fill:#F5F5F5;" d="M1871.6,228.89c0-1.77-1.43-3.19-3.19-3.19c-0.32,0-0.62,0.05-0.91,0.13
		c0.05-0.32,0.07-0.65,0.07-0.98c0-3.73-3.03-6.76-6.76-6.76c-0.43,0-0.84,0.04-1.25,0.12c-1.04-1.7-2.91-2.84-5.05-2.84
		c-3.24,0-5.87,2.6-5.91,5.83c-0.03,0-0.06-0.01-0.1-0.01c-3.01,0-5.45,2.44-5.45,5.45c0,3.01,2.44,5.45,5.45,5.45h20.01l-0.01-0.01
		C1870.22,232.03,1871.6,230.62,1871.6,228.89z"/>
	<path style="fill:#EBEBEB;" d="M1742.08,133.22c0-1.77-1.43-3.19-3.19-3.19c-0.32,0-0.62,0.05-0.91,0.13
		c0.05-0.32,0.07-0.65,0.07-0.98c0-3.73-3.03-6.76-6.76-6.76c-0.43,0-0.84,0.04-1.25,0.12c-1.04-1.7-2.91-2.84-5.05-2.84
		c-3.24,0-5.87,2.6-5.91,5.83c-0.03,0-0.06-0.01-0.1-0.01c-3.01,0-5.45,2.44-5.45,5.45c0,3.01,2.44,5.45,5.45,5.45h20.01l-0.01-0.01
		C1740.7,136.37,1742.08,134.96,1742.08,133.22z"/>
	<path style="fill:#EBEBEB;" d="M1629.3,134.98c0-1.77-1.43-3.19-3.19-3.19c-0.32,0-0.62,0.05-0.91,0.13
		c0.05-0.32,0.07-0.65,0.07-0.98c0-3.73-3.03-6.76-6.76-6.76c-0.43,0-0.84,0.04-1.25,0.12c-1.04-1.7-2.91-2.84-5.05-2.84
		c-3.24,0-5.87,2.6-5.91,5.83c-0.03,0-0.06-0.01-0.1-0.01c-3.01,0-5.45,2.44-5.45,5.45c0,3.01,2.44,5.45,5.45,5.45h20.01l-0.01-0.01
		C1627.91,138.12,1629.3,136.72,1629.3,134.98z"/>
	<path style="fill:#F0F0F0;" d="M1886.81,342.71c-8.58-10.76-82.44-102.99-92.73-103.01c-10.93-0.02-31.72,25.51-31.72,25.51
		s-36.18-44.84-51.69-43.63c-14.67,1.15-109.73,109.46-119.93,121.13H1886.81z"/>
</g>
<g>
	<g>
		<g>
			<path style="fill:#407BFF;" d="M1846.42,334.24c0,0-4.77-66.48,21.59-132.98l-3.18-2.84c0,0-28.86,49.64-31.47,136.73
				L1846.42,334.24z"/>
		</g>
		<g style="opacity:0.5;enable-background:new    ;">
			<path style="fill:#FFFFFF;" d="M1846.42,334.24c0,0-4.77-66.48,21.59-132.98l-3.18-2.84c0,0-28.86,49.64-31.47,136.73
				L1846.42,334.24z"/>
		</g>
	</g>
	<g>
		<path style="fill:#407BFF;" d="M1875.14,183.82c8.24-4.58,19.29,4.46,19.95,17.39c0,0-1.3-0.94-3.48-1.98
			c-0.37-3.26-0.76-6.16-0.76-6.16v5.82c-0.67-0.3-1.41-0.59-2.21-0.87l-0.32-3.16l-0.47,2.89c-1.03-0.33-2.15-0.62-3.33-0.84
			l-0.81-9.19l-1.41,8.87c-1.12-0.11-2.3-0.16-3.5-0.09l-0.45-6.25l-0.46,6.3c-0.98,0.09-1.98,0.24-3,0.47l-0.41-9.3
			c0,0-0.34,5.19-0.72,9.58c-2.59,0.72-5.26,1.96-7.92,3.92v-1.14C1865.83,200.07,1867.62,188,1875.14,183.82z"/>
		<path style="fill:#407BFF;" d="M1864.57,178.91c-5.73-7.48-19.47-3.58-25.23,8.02c0,0,1.56-0.34,3.98-0.43
			c1.65-2.85,3.15-5.36,3.15-5.36l-2.31,5.34c0.73-0.01,1.53,0.02,2.38,0.08l1.55-2.76l-0.72,2.83c1.08,0.11,2.22,0.29,3.4,0.55
			l4.4-8.11l-2.23,8.7c1.08,0.34,2.16,0.77,3.25,1.3l2.9-5.55l-2.09,5.97c0.87,0.47,1.73,1.01,2.56,1.62l4.08-8.37
			c0,0-1.75,4.9-3.15,9.08c2.09,1.69,4.05,3.89,5.71,6.75l0.45-1.05C1866.65,197.52,1869.8,185.75,1864.57,178.91z"/>
		<path style="fill:#407BFF;" d="M1857.34,195.16c6.7-5.66,11.02,0,11.02,0c-2.4,0.44-4.6,1.8-6.57,3.58l-0.77-1.16v1.89
			c-0.48,0.47-0.93,0.96-1.37,1.48l-1.19-3.37l0.29,4.46c-0.64,0.8-1.23,1.63-1.8,2.46l-0.4-3.28l-0.27,4.3
			c-0.59,0.93-1.13,1.84-1.61,2.71l-0.25-5.98l-0.64,7.67c-1.17,2.3-1.81,3.92-1.81,3.92S1850.64,200.81,1857.34,195.16z"/>
		<path style="fill:#407BFF;" d="M1873.21,210.81l-1.35,0.65c-0.12-1.01-0.26-2.07-0.43-3.15l1-1.55l-1.16,0.6
			c-0.06-0.36-0.13-0.72-0.2-1.07l1.35-3.07l-1.78,1.13c-0.7-2.91-1.69-5.49-3.05-6.79c0,0,14.03,5.62,4.8,20.52
			c0,0-0.09-2.47-0.43-5.72L1873.21,210.81z"/>
		<path style="fill:#407BFF;" d="M1860,197.13l-1.98-4.49l0.62,4.57c-0.23,0.02-0.47,0.05-0.7,0.08l-2.71-3.92l0.42,4.32
			c-0.98,0.22-2,0.51-3.07,0.88c-1.09,0.38-2.16,0.84-3.22,1.34l-1.18-3.89l0.37,4.29c-1.03,0.52-2.03,1.08-3,1.66l-0.48-3.39
			l-0.21,3.8c-1.19,0.73-2.31,1.49-3.35,2.23l0.52-6.04l-1.37,6.65c-1.07,0.79-2.03,1.54-2.85,2.21l0.2-4.2l-1.44,5.25
			c-1.19,1.02-1.87,1.67-1.87,1.67c1.64-14.64,7.75-20.06,17.28-20.95c9.53-0.89,15.6,9.37,15.6,9.37S1864.8,196.99,1860,197.13z"/>
		<path style="fill:#407BFF;" d="M1886.16,217.06l-1.18,4.31c-0.34-1.12-0.8-2.55-1.4-4.15l1.23-6.35l-1.77,4.94
			c-0.88-2.2-1.99-4.61-3.35-6.88l1.66-4.34l-2.41,3.14c-0.39-0.6-0.8-1.19-1.23-1.76l0.96-2.74l-1.34,2.25
			c-0.3-0.37-0.6-0.73-0.91-1.08l1.19-3.66l-1.7,3.12c-0.89-0.92-1.84-1.73-2.86-2.4l1.83-4.45c0,0-1.19,1.78-2.65,3.96
			c-1.43-0.78-2.98-1.27-4.65-1.33c0,0,3.16-4.34,8.52-5.54c5.36-1.19,15.93,9.1,9.53,29.65c0,0-0.12-0.48-0.34-1.32L1886.16,217.06
			z"/>
		<path style="fill:#407BFF;" d="M1880.47,175.83l0.7,2.72c-0.29-0.01-0.62,0.02-0.99,0.07l-0.83-3.53l0.46,3.59
			c-0.59,0.12-1.27,0.36-2,0.74l-1.15-4.77l0.51,5.15c-0.25,0.16-0.5,0.34-0.77,0.53l-1.36-4.5l0.92,4.85
			c-1.09,0.91-2.25,2.18-3.44,3.95v-6.45l-1.37,8.71c-1.19,2.16-2.41,4.87-3.58,8.27c0,0,0.77-23.38,6.58-25.62
			c5.81-2.23,8.34,9.23,8.34,9.23s-0.27-0.12-0.76-0.18L1880.47,175.83z"/>
		<path style="fill:#407BFF;" d="M1870.57,201.21l-0.82,4.39l-1.37-4.39l-2.53,3.17l-0.67-3.17l-2.8,2.01c0,0,0.73-5.62,2.6-8.08
			C1866.84,192.7,1871.74,194.87,1870.57,201.21z"/>
	</g>
	<g style="opacity:0.3;">
		<path style="fill:#FFFFFF;" d="M1875.14,183.82c8.24-4.58,19.29,4.46,19.95,17.39c0,0-1.3-0.94-3.48-1.98
			c-0.37-3.26-0.76-6.16-0.76-6.16v5.82c-0.67-0.3-1.41-0.59-2.21-0.87l-0.32-3.16l-0.47,2.89c-1.03-0.33-2.15-0.62-3.33-0.84
			l-0.81-9.19l-1.41,8.87c-1.12-0.11-2.3-0.16-3.5-0.09l-0.45-6.25l-0.46,6.3c-0.98,0.09-1.98,0.24-3,0.47l-0.41-9.3
			c0,0-0.34,5.19-0.72,9.58c-2.59,0.72-5.26,1.96-7.92,3.92v-1.14C1865.83,200.07,1867.62,188,1875.14,183.82z"/>
		<path style="fill:#FFFFFF;" d="M1864.57,178.91c-5.73-7.48-19.47-3.58-25.23,8.02c0,0,1.56-0.34,3.98-0.43
			c1.65-2.85,3.15-5.36,3.15-5.36l-2.31,5.34c0.73-0.01,1.53,0.02,2.38,0.08l1.55-2.76l-0.72,2.83c1.08,0.11,2.22,0.29,3.4,0.55
			l4.4-8.11l-2.23,8.7c1.08,0.34,2.16,0.77,3.25,1.3l2.9-5.55l-2.09,5.97c0.87,0.47,1.73,1.01,2.56,1.62l4.08-8.37
			c0,0-1.75,4.9-3.15,9.08c2.09,1.69,4.05,3.89,5.71,6.75l0.45-1.05C1866.65,197.52,1869.8,185.75,1864.57,178.91z"/>
		<path style="fill:#FFFFFF;" d="M1857.34,195.16c6.7-5.66,11.02,0,11.02,0c-2.4,0.44-4.6,1.8-6.57,3.58l-0.77-1.16v1.89
			c-0.48,0.47-0.93,0.96-1.37,1.48l-1.19-3.37l0.29,4.46c-0.64,0.8-1.23,1.63-1.8,2.46l-0.4-3.28l-0.27,4.3
			c-0.59,0.93-1.13,1.84-1.61,2.71l-0.25-5.98l-0.64,7.67c-1.17,2.3-1.81,3.92-1.81,3.92S1850.64,200.81,1857.34,195.16z"/>
		<path style="fill:#FFFFFF;" d="M1873.21,210.81l-1.35,0.65c-0.12-1.01-0.26-2.07-0.43-3.15l1-1.55l-1.16,0.6
			c-0.06-0.36-0.13-0.72-0.2-1.07l1.35-3.07l-1.78,1.13c-0.7-2.91-1.69-5.49-3.05-6.79c0,0,14.03,5.62,4.8,20.52
			c0,0-0.09-2.47-0.43-5.72L1873.21,210.81z"/>
		<path style="fill:#FFFFFF;" d="M1860,197.13l-1.98-4.49l0.62,4.57c-0.23,0.02-0.47,0.05-0.7,0.08l-2.71-3.92l0.42,4.32
			c-0.98,0.22-2,0.51-3.07,0.88c-1.09,0.38-2.16,0.84-3.22,1.34l-1.18-3.89l0.37,4.29c-1.03,0.52-2.03,1.08-3,1.66l-0.48-3.39
			l-0.21,3.8c-1.19,0.73-2.31,1.49-3.35,2.23l0.52-6.04l-1.37,6.65c-1.07,0.79-2.03,1.54-2.85,2.21l0.2-4.2l-1.44,5.25
			c-1.19,1.02-1.87,1.67-1.87,1.67c1.64-14.64,7.75-20.06,17.28-20.95c9.53-0.89,15.6,9.37,15.6,9.37S1864.8,196.99,1860,197.13z"/>
		<path style="fill:#FFFFFF;" d="M1886.16,217.06l-1.18,4.31c-0.34-1.12-0.8-2.55-1.4-4.15l1.23-6.35l-1.77,4.94
			c-0.88-2.2-1.99-4.61-3.35-6.88l1.66-4.34l-2.41,3.14c-0.39-0.6-0.8-1.19-1.23-1.76l0.96-2.74l-1.34,2.25
			c-0.3-0.37-0.6-0.73-0.91-1.08l1.19-3.66l-1.7,3.12c-0.89-0.92-1.84-1.73-2.86-2.4l1.83-4.45c0,0-1.19,1.78-2.65,3.96
			c-1.43-0.78-2.98-1.27-4.65-1.33c0,0,3.16-4.34,8.52-5.54c5.36-1.19,15.93,9.1,9.53,29.65c0,0-0.12-0.48-0.34-1.32L1886.16,217.06
			z"/>
		<path style="fill:#FFFFFF;" d="M1880.47,175.83l0.7,2.72c-0.29-0.01-0.62,0.02-0.99,0.07l-0.83-3.53l0.46,3.59
			c-0.59,0.12-1.27,0.36-2,0.74l-1.15-4.77l0.51,5.15c-0.25,0.16-0.5,0.34-0.77,0.53l-1.36-4.5l0.92,4.85
			c-1.09,0.91-2.25,2.18-3.44,3.95v-6.45l-1.37,8.71c-1.19,2.16-2.41,4.87-3.58,8.27c0,0,0.77-23.38,6.58-25.62
			c5.81-2.23,8.34,9.23,8.34,9.23s-0.27-0.12-0.76-0.18L1880.47,175.83z"/>
		<path style="fill:#FFFFFF;" d="M1870.57,201.21l-0.82,4.39l-1.37-4.39l-2.53,3.17l-0.67-3.17l-2.8,2.01c0,0,0.73-5.62,2.6-8.08
			C1866.84,192.7,1871.74,194.87,1870.57,201.21z"/>
	</g>
</g>
<g>
	<g>
		<path style="fill:#407BFF;" d="M1638.35,343.54c0,0-4.1-63.66-25.13-146.57l4.27-3.23c0,0,18.45,29.96,36.96,146.03
			L1638.35,343.54z"/>
	</g>
	<g style="opacity:0.5;">
		<path style="fill:#FFFFFF;" d="M1638.35,343.54c0,0-4.1-63.66-25.13-146.57l4.27-3.23c0,0,18.45,29.96,36.96,146.03
			L1638.35,343.54z"/>
	</g>
	<g>
		<path style="fill:#407BFF;" d="M1607.79,177.67c-9.9-5.51-23.17,5.36-23.98,20.89c0,0,1.55-1.12,4.19-2.37
			c0.45-3.93,0.91-7.4,0.91-7.4v6.99c0.81-0.36,1.69-0.72,2.66-1.05l0.38-3.79l0.56,3.47c1.24-0.4,2.59-0.74,4.01-1.02l0.98-11.04
			l1.69,10.66c1.35-0.13,2.76-0.19,4.21-0.12l0.55-7.51l0.55,7.58c1.18,0.1,2.38,0.29,3.6,0.56l0.49-11.18c0,0,0.41,6.23,0.87,11.51
			c3.11,0.87,6.31,2.35,9.51,4.71v-1.37C1618.97,197.19,1616.82,182.69,1607.79,177.67z"/>
		<path style="fill:#407BFF;" d="M1620.49,171.77c6.89-8.99,23.39-4.3,30.3,9.64c0,0-1.87-0.41-4.79-0.52
			c-1.98-3.42-3.78-6.44-3.78-6.44l2.78,6.41c-0.88-0.01-1.84,0.02-2.86,0.09l-1.86-3.33l0.87,3.41c-1.3,0.13-2.66,0.34-4.08,0.66
			l-5.29-9.75l2.69,10.46c-1.3,0.41-2.6,0.93-3.9,1.56l-3.48-6.67l2.5,7.17c-1.04,0.56-2.07,1.21-3.08,1.94l-4.9-10.06
			c0,0,2.1,5.88,3.78,10.9c-2.51,2.03-4.86,4.67-6.86,8.1l-0.55-1.26C1617.99,194.13,1614.2,179.98,1620.49,171.77z"/>
		<path style="fill:#407BFF;" d="M1629.17,191.28c-8.05-6.79-13.24,0-13.24,0c2.87,0.53,5.53,2.16,7.89,4.3l0.92-1.4v2.27
			c0.57,0.56,1.12,1.16,1.65,1.77l1.44-4.05l-0.35,5.36c0.77,0.97,1.48,1.96,2.16,2.95l0.48-3.94l0.31,5.15
			c0.71,1.12,1.36,2.22,1.93,3.26l0.3-7.19l0.77,9.22c1.41,2.76,2.18,4.71,2.18,4.71S1637.22,198.08,1629.17,191.28z"/>
		<path style="fill:#407BFF;" d="M1610.11,210.09l1.62,0.78c0.14-1.21,0.31-2.48,0.52-3.78l-1.19-1.86l1.39,0.73
			c0.08-0.43,0.16-0.86,0.24-1.29l-1.62-3.69l2.13,1.37c0.85-3.49,2.03-6.6,3.67-8.16c0,0-16.85,6.76-5.76,24.65
			c0,0,0.1-2.97,0.52-6.88L1610.11,210.09z"/>
		<path style="fill:#407BFF;" d="M1625.98,193.66l2.38-5.4l-0.74,5.49c0.27,0.02,0.56,0.05,0.84,0.09l3.26-4.71l-0.51,5.19
			c1.17,0.27,2.4,0.61,3.69,1.06c1.3,0.46,2.59,1.01,3.87,1.61l1.41-4.67l-0.45,5.15c1.23,0.62,2.44,1.29,3.6,1.98l0.58-4.07
			l0.25,4.58c1.42,0.88,2.78,1.79,4.03,2.68l-0.63-7.26l1.64,7.98c1.28,0.94,2.44,1.85,3.42,2.66l-0.23-5.05l1.73,6.3
			c1.43,1.22,2.25,2.01,2.25,2.01c-1.97-17.59-9.3-24.09-20.75-25.17c-11.45-1.07-18.75,11.26-18.75,11.26
			S1620.21,193.49,1625.98,193.66z"/>
		<path style="fill:#407BFF;" d="M1594.55,217.59l1.41,5.19c0.4-1.34,0.96-3.07,1.68-4.99l-1.48-7.63l2.13,5.94
			c1.06-2.64,2.4-5.54,4.02-8.26l-1.99-5.22l2.9,3.77c0.47-0.73,0.97-1.43,1.48-2.11l-1.16-3.3l1.62,2.7
			c0.36-0.45,0.72-0.88,1.09-1.3l-1.44-4.4l2.05,3.74c1.07-1.11,2.21-2.09,3.44-2.87l-2.19-5.35c0,0,1.43,2.14,3.18,4.76
			c1.71-0.94,3.57-1.52,5.58-1.59c0,0-3.8-5.22-10.23-6.65c-6.44-1.43-19.14,10.93-11.45,35.61c0,0,0.14-0.59,0.41-1.59
			L1594.55,217.59z"/>
		<path style="fill:#407BFF;" d="M1601.4,168.07l-0.84,3.26c0.35-0.01,0.75,0.02,1.19,0.09l0.99-4.24l-0.55,4.32
			c0.71,0.15,1.52,0.43,2.4,0.89l1.37-5.73l-0.6,6.18c0.3,0.19,0.6,0.4,0.91,0.64l1.63-5.4l-1.11,5.83c1.3,1.09,2.7,2.62,4.13,4.75
			v-7.75l1.65,10.46c1.44,2.6,2.89,5.86,4.3,9.93c0,0-0.93-28.08-7.9-30.77c-6.97-2.69-10.02,11.09-10.02,11.09s0.33-0.14,0.91-0.22
			L1601.4,168.07z"/>
		<path style="fill:#407BFF;" d="M1613.29,198.55l0.98,5.27l1.66-5.27l3.04,3.81l0.8-3.81l3.36,2.43c0,0-0.87-6.75-3.12-9.7
			C1617.77,188.33,1611.88,190.94,1613.29,198.55z"/>
	</g>
	<g style="opacity:0.3;">
		<path style="fill:#FFFFFF;" d="M1607.79,177.67c-9.9-5.51-23.17,5.36-23.98,20.89c0,0,1.55-1.12,4.19-2.37
			c0.45-3.93,0.91-7.4,0.91-7.4v6.99c0.81-0.36,1.69-0.72,2.66-1.05l0.38-3.79l0.56,3.47c1.24-0.4,2.59-0.74,4.01-1.02l0.98-11.04
			l1.69,10.66c1.35-0.13,2.76-0.19,4.21-0.12l0.55-7.51l0.55,7.58c1.18,0.1,2.38,0.29,3.6,0.56l0.49-11.18c0,0,0.41,6.23,0.87,11.51
			c3.11,0.87,6.31,2.35,9.51,4.71v-1.37C1618.97,197.19,1616.82,182.69,1607.79,177.67z"/>
		<path style="fill:#FFFFFF;" d="M1620.49,171.77c6.89-8.99,23.39-4.3,30.3,9.64c0,0-1.87-0.41-4.79-0.52
			c-1.98-3.42-3.78-6.44-3.78-6.44l2.78,6.41c-0.88-0.01-1.84,0.02-2.86,0.09l-1.86-3.33l0.87,3.41c-1.3,0.13-2.66,0.34-4.08,0.66
			l-5.29-9.75l2.69,10.46c-1.3,0.41-2.6,0.93-3.9,1.56l-3.48-6.67l2.5,7.17c-1.04,0.56-2.07,1.21-3.08,1.94l-4.9-10.06
			c0,0,2.1,5.88,3.78,10.9c-2.51,2.03-4.86,4.67-6.86,8.1l-0.55-1.26C1617.99,194.13,1614.2,179.98,1620.49,171.77z"/>
		<path style="fill:#FFFFFF;" d="M1629.17,191.28c-8.05-6.79-13.24,0-13.24,0c2.87,0.53,5.53,2.16,7.89,4.3l0.92-1.4v2.27
			c0.57,0.56,1.12,1.16,1.65,1.77l1.44-4.05l-0.35,5.36c0.77,0.97,1.48,1.96,2.16,2.95l0.48-3.94l0.31,5.15
			c0.71,1.12,1.36,2.22,1.93,3.26l0.3-7.19l0.77,9.22c1.41,2.76,2.18,4.71,2.18,4.71S1637.22,198.08,1629.17,191.28z"/>
		<path style="fill:#FFFFFF;" d="M1610.11,210.09l1.62,0.78c0.14-1.21,0.31-2.48,0.52-3.78l-1.19-1.86l1.39,0.73
			c0.08-0.43,0.16-0.86,0.24-1.29l-1.62-3.69l2.13,1.37c0.85-3.49,2.03-6.6,3.67-8.16c0,0-16.85,6.76-5.76,24.65
			c0,0,0.1-2.97,0.52-6.88L1610.11,210.09z"/>
		<path style="fill:#FFFFFF;" d="M1625.98,193.66l2.38-5.4l-0.74,5.49c0.27,0.02,0.56,0.05,0.84,0.09l3.26-4.71l-0.51,5.19
			c1.17,0.27,2.4,0.61,3.69,1.06c1.3,0.46,2.59,1.01,3.87,1.61l1.41-4.67l-0.45,5.15c1.23,0.62,2.44,1.29,3.6,1.98l0.58-4.07
			l0.25,4.58c1.42,0.88,2.78,1.79,4.03,2.68l-0.63-7.26l1.64,7.98c1.28,0.94,2.44,1.85,3.42,2.66l-0.23-5.05l1.73,6.3
			c1.43,1.22,2.25,2.01,2.25,2.01c-1.97-17.59-9.3-24.09-20.75-25.17c-11.45-1.07-18.75,11.26-18.75,11.26
			S1620.21,193.49,1625.98,193.66z"/>
		<path style="fill:#FFFFFF;" d="M1594.55,217.59l1.41,5.19c0.4-1.34,0.96-3.07,1.68-4.99l-1.48-7.63l2.13,5.94
			c1.06-2.64,2.4-5.54,4.02-8.26l-1.99-5.22l2.9,3.77c0.47-0.73,0.97-1.43,1.48-2.11l-1.16-3.3l1.62,2.7
			c0.36-0.45,0.72-0.88,1.09-1.3l-1.44-4.4l2.05,3.74c1.07-1.11,2.21-2.09,3.44-2.87l-2.19-5.35c0,0,1.43,2.14,3.18,4.76
			c1.71-0.94,3.57-1.52,5.58-1.59c0,0-3.8-5.22-10.23-6.65c-6.44-1.43-19.14,10.93-11.45,35.61c0,0,0.14-0.59,0.41-1.59
			L1594.55,217.59z"/>
		<path style="fill:#FFFFFF;" d="M1601.4,168.07l-0.84,3.26c0.35-0.01,0.75,0.02,1.19,0.09l0.99-4.24l-0.55,4.32
			c0.71,0.15,1.52,0.43,2.4,0.89l1.37-5.73l-0.6,6.18c0.3,0.19,0.6,0.4,0.91,0.64l1.63-5.4l-1.11,5.83c1.3,1.09,2.7,2.62,4.13,4.75
			v-7.75l1.65,10.46c1.44,2.6,2.89,5.86,4.3,9.93c0,0-0.93-28.08-7.9-30.77c-6.97-2.69-10.02,11.09-10.02,11.09s0.33-0.14,0.91-0.22
			L1601.4,168.07z"/>
		<path style="fill:#FFFFFF;" d="M1613.29,198.55l0.98,5.27l1.66-5.27l3.04,3.81l0.8-3.81l3.36,2.43c0,0-0.87-6.75-3.12-9.7
			C1617.77,188.33,1611.88,190.94,1613.29,198.55z"/>
	</g>
</g>
<g>
	<g>
		<g>
			<path style="fill:#407BFF;" d="M1652.97,334.09c0,0-12.64-90.33,17.24-183.54l-4.6-3.58c0,0-34.83,70.44-30.37,189.58
				L1652.97,334.09z"/>
		</g>
		<g style="opacity:0.6;enable-background:new    ;">
			<path style="fill:#FFFFFF;" d="M1652.97,334.09c0,0-12.64-90.33,17.24-183.54l-4.6-3.58c0,0-34.83,70.44-30.37,189.58
				L1652.97,334.09z"/>
		</g>
	</g>
	<g>
		<path style="fill:#407BFF;" d="M1678.33,126.09c10.82-7.02,26.74,4.31,28.85,21.91c0,0-1.86-1.16-4.94-2.37
			c-0.81-4.43-1.6-8.35-1.6-8.35l0.54,7.94c-0.95-0.34-1.98-0.68-3.1-0.99l-0.73-4.28l-0.37,3.99c-1.44-0.35-2.99-0.65-4.64-0.84
			l-1.95-12.48l-1.1,12.25c-1.55-0.05-3.15,0-4.79,0.19l-1.19-8.49l-0.05,8.65c-1.33,0.2-2.69,0.51-4.05,0.91l-1.41-12.66
			c0,0,0.01,7.11-0.1,13.15c-3.47,1.22-7,3.16-10.45,6.08l-0.1-1.56C1667.12,149.12,1668.45,132.49,1678.33,126.09z"/>
		<path style="fill:#407BFF;" d="M1663.45,120.36c-8.52-9.68-26.91-3.09-33.7,13.28c0,0,2.1-0.61,5.4-0.95
			c1.98-4.04,3.8-7.6,3.8-7.6l-2.66,7.5c1.01-0.08,2.09-0.12,3.26-0.12l1.86-3.92l-0.72,3.94c1.48,0.05,3.06,0.19,4.69,0.45
			l5.26-11.48l-2.25,12.09c1.5,0.37,3.03,0.85,4.56,1.48l3.44-7.85l-2.29,8.34c1.23,0.55,2.44,1.22,3.66,1.98l4.8-11.81
			c0,0-1.94,6.85-3.46,12.68c3.01,2.12,5.88,4.94,8.41,8.68l0.52-1.47C1668,145.58,1671.23,129.2,1663.45,120.36z"/>
		<path style="fill:#407BFF;" d="M1655.08,143.2c8.63-8.34,15.05-1.02,15.05-1.02c-3.23,0.82-6.12,2.87-8.64,5.49l-1.16-1.52
			l0.17,2.59c-0.6,0.69-1.18,1.4-1.73,2.14l-1.94-4.48l0.81,6.06c-0.8,1.16-1.54,2.34-2.23,3.52l-0.84-4.44l0.04,5.89
			c-0.72,1.33-1.37,2.62-1.94,3.85l-0.9-8.15l-0.17,10.53c-1.39,3.24-2.12,5.52-2.12,5.52S1646.45,151.54,1655.08,143.2z"/>
		<path style="fill:#407BFF;" d="M1678.18,163.11l-1.78,1.02c-0.25-1.37-0.55-2.8-0.88-4.26l1.22-2.2l-1.52,0.93
			c-0.12-0.48-0.24-0.97-0.37-1.44l1.57-4.32l-2.32,1.71c-1.23-3.9-2.81-7.34-4.8-8.99c0,0,19.67,6.39,8.43,27.57
			c0,0-0.34-3.37-1.11-7.78L1678.18,163.11z"/>
		<path style="fill:#407BFF;" d="M1658.89,145.65l-3.12-5.95l1.27,6.19c-0.31,0.05-0.63,0.11-0.95,0.17l-4.06-5.1l0.98,5.86
			c-1.31,0.39-2.68,0.87-4.11,1.49c-1.44,0.62-2.87,1.34-4.26,2.12l-1.97-5.2l0.9,5.82c-1.36,0.8-2.67,1.66-3.94,2.53l-0.97-4.58
			l0.07,5.22c-1.55,1.11-3.02,2.25-4.37,3.36l0.16-8.29l-1.25,9.2c-1.38,1.17-2.62,2.29-3.69,3.28l-0.12-5.76l-1.49,7.29
			c-1.52,1.5-2.4,2.46-2.4,2.46c0.89-20.14,8.72-28.1,21.66-30.2c12.93-2.1,22.17,11.36,22.17,11.36S1665.42,145.02,1658.89,145.65z
			"/>
		<path style="fill:#407BFF;" d="M1696.44,170.45l-1.21,6c-0.56-1.49-1.33-3.41-2.29-5.55l1.1-8.78l-1.97,6.92
			c-1.41-2.92-3.15-6.11-5.2-9.08l1.87-6.08l-3.01,4.51c-0.59-0.79-1.2-1.55-1.84-2.29l1.06-3.83l-1.62,3.19
			c-0.44-0.48-0.89-0.95-1.34-1.39l1.3-5.11l-2.04,4.41c-1.3-1.18-2.67-2.2-4.12-3.01l2.09-6.25c0,0-1.46,2.54-3.25,5.65
			c-2.02-0.94-4.18-1.45-6.47-1.38c0,0,3.91-6.22,11.12-8.34c7.21-2.12,22.59,10.96,15.74,39.6c0,0-0.2-0.66-0.59-1.77
			L1696.44,170.45z"/>
		<path style="fill:#407BFF;" d="M1684.86,114.68l1.21,3.65c-0.4,0.02-0.85,0.08-1.34,0.19l-1.46-4.74l0.96,4.87
			c-0.8,0.23-1.69,0.6-2.66,1.19l-2.01-6.41l1.16,6.98c-0.33,0.23-0.66,0.5-0.99,0.8l-2.26-6.01l1.7,6.53
			c-1.4,1.34-2.87,3.18-4.33,5.71l-0.59-8.81l-1.07,12.01c-1.44,3.06-2.84,6.88-4.12,11.62c0,0-1.09-32,6.63-35.58
			c7.72-3.58,12.24,11.84,12.24,11.84s-0.38-0.13-1.05-0.18L1684.86,114.68z"/>
		<path style="fill:#407BFF;" d="M1673.69,150.25l-0.72,6.07l-2.29-5.87l-3.16,4.57l-1.21-4.27l-3.62,3.01c0,0,0.48-7.74,2.8-11.26
			C1667.81,138.96,1674.7,141.49,1673.69,150.25z"/>
	</g>
	<g style="opacity:0.4;">
		<path style="fill:#FFFFFF;" d="M1678.33,126.09c10.82-7.02,26.74,4.31,28.85,21.91c0,0-1.86-1.16-4.94-2.37
			c-0.81-4.43-1.6-8.35-1.6-8.35l0.54,7.94c-0.95-0.34-1.98-0.68-3.1-0.99l-0.73-4.28l-0.37,3.99c-1.44-0.35-2.99-0.65-4.64-0.84
			l-1.95-12.48l-1.1,12.25c-1.55-0.05-3.15,0-4.79,0.19l-1.19-8.49l-0.05,8.65c-1.33,0.2-2.69,0.51-4.05,0.91l-1.41-12.66
			c0,0,0.01,7.11-0.1,13.15c-3.47,1.22-7,3.16-10.45,6.08l-0.1-1.56C1667.12,149.12,1668.45,132.49,1678.33,126.09z"/>
		<path style="fill:#FFFFFF;" d="M1663.45,120.36c-8.52-9.68-26.91-3.09-33.7,13.28c0,0,2.1-0.61,5.4-0.95
			c1.98-4.04,3.8-7.6,3.8-7.6l-2.66,7.5c1.01-0.08,2.09-0.12,3.26-0.12l1.86-3.92l-0.72,3.94c1.48,0.05,3.06,0.19,4.69,0.45
			l5.26-11.48l-2.25,12.09c1.5,0.37,3.03,0.85,4.56,1.48l3.44-7.85l-2.29,8.34c1.23,0.55,2.44,1.22,3.66,1.98l4.8-11.81
			c0,0-1.94,6.85-3.46,12.68c3.01,2.12,5.88,4.94,8.41,8.68l0.52-1.47C1668,145.58,1671.23,129.2,1663.45,120.36z"/>
		<path style="fill:#FFFFFF;" d="M1655.08,143.2c8.63-8.34,15.05-1.02,15.05-1.02c-3.23,0.82-6.12,2.87-8.64,5.49l-1.16-1.52
			l0.17,2.59c-0.6,0.69-1.18,1.4-1.73,2.14l-1.94-4.48l0.81,6.06c-0.8,1.16-1.54,2.34-2.23,3.52l-0.84-4.44l0.04,5.89
			c-0.72,1.33-1.37,2.62-1.94,3.85l-0.9-8.15l-0.17,10.53c-1.39,3.24-2.12,5.52-2.12,5.52S1646.45,151.54,1655.08,143.2z"/>
		<path style="fill:#FFFFFF;" d="M1678.18,163.11l-1.78,1.02c-0.25-1.37-0.55-2.8-0.88-4.26l1.22-2.2l-1.52,0.93
			c-0.12-0.48-0.24-0.97-0.37-1.44l1.57-4.32l-2.32,1.71c-1.23-3.9-2.81-7.34-4.8-8.99c0,0,19.67,6.39,8.43,27.57
			c0,0-0.34-3.37-1.11-7.78L1678.18,163.11z"/>
		<path style="fill:#FFFFFF;" d="M1658.89,145.65l-3.12-5.95l1.27,6.19c-0.31,0.05-0.63,0.11-0.95,0.17l-4.06-5.1l0.98,5.86
			c-1.31,0.39-2.68,0.87-4.11,1.49c-1.44,0.62-2.87,1.34-4.26,2.12l-1.97-5.2l0.9,5.82c-1.36,0.8-2.67,1.66-3.94,2.53l-0.97-4.58
			l0.07,5.22c-1.55,1.11-3.02,2.25-4.37,3.36l0.16-8.29l-1.25,9.2c-1.38,1.17-2.62,2.29-3.69,3.28l-0.12-5.76l-1.49,7.29
			c-1.52,1.5-2.4,2.46-2.4,2.46c0.89-20.14,8.72-28.1,21.66-30.2c12.93-2.1,22.17,11.36,22.17,11.36S1665.42,145.02,1658.89,145.65z
			"/>
		<path style="fill:#FFFFFF;" d="M1696.44,170.45l-1.21,6c-0.56-1.49-1.33-3.41-2.29-5.55l1.1-8.78l-1.97,6.92
			c-1.41-2.92-3.15-6.11-5.2-9.08l1.87-6.08l-3.01,4.51c-0.59-0.79-1.2-1.55-1.84-2.29l1.06-3.83l-1.62,3.19
			c-0.44-0.48-0.89-0.95-1.34-1.39l1.3-5.11l-2.04,4.41c-1.3-1.18-2.67-2.2-4.12-3.01l2.09-6.25c0,0-1.46,2.54-3.25,5.65
			c-2.02-0.94-4.18-1.45-6.47-1.38c0,0,3.91-6.22,11.12-8.34c7.21-2.12,22.59,10.96,15.74,39.6c0,0-0.2-0.66-0.59-1.77
			L1696.44,170.45z"/>
		<path style="fill:#FFFFFF;" d="M1684.86,114.68l1.21,3.65c-0.4,0.02-0.85,0.08-1.34,0.19l-1.46-4.74l0.96,4.87
			c-0.8,0.23-1.69,0.6-2.66,1.19l-2.01-6.41l1.16,6.98c-0.33,0.23-0.66,0.5-0.99,0.8l-2.26-6.01l1.7,6.53
			c-1.4,1.34-2.87,3.18-4.33,5.71l-0.59-8.81l-1.07,12.01c-1.44,3.06-2.84,6.88-4.12,11.62c0,0-1.09-32,6.63-35.58
			c7.72-3.58,12.24,11.84,12.24,11.84s-0.38-0.13-1.05-0.18L1684.86,114.68z"/>
		<path style="fill:#FFFFFF;" d="M1673.69,150.25l-0.72,6.07l-2.29-5.87l-3.16,4.57l-1.21-4.27l-3.62,3.01c0,0,0.48-7.74,2.8-11.26
			C1667.81,138.96,1674.7,141.49,1673.69,150.25z"/>
	</g>
</g>
<path style="fill:#DADAEF;" d="M1929,348l-33-2c-0.44-0.11-0.86-0.21-1.29-0.32c-7.25-4.84-63-40.02-150.5-40.02
	c-93.97,0-154.38,39.38-154.38,39.38l16.44,0.06L1590,346c-7,4-93,0-93,0c-9-4-106,0-106,0c-8-1-106,0-106,0l-0.96-0.1
	c-5.68-3.84-61.83-40.24-150.83-40.24c-93.97,0-154.38,39.38-154.38,39.38l4.23,0.02L979,346c-21,1-123-4-123-4c-17-5-82,0-82,0
	c-76.56,5.97-134,0-134,0c-0.35-0.14-0.83-0.28-1.43-0.41c-7.82-5.19-63.42-39.92-150.36-39.92c-93.97,0-154.38,39.38-154.38,39.38
	l3.77,0.01c-1.44,0.3-2.64,0.61-3.59,0.94c-29,10-131,0-131,0c-69-9-203,0-203,0l-77,16l-101,53l252-1l1880,24L1929,348z"/>
</svg>
